<?xml version="1.0" encoding="UTF-8" standalone="no"?>
<svg width="68px" height="40px" viewBox="0 0 68 40" version="1.1" xmlns="http://www.w3.org/2000/svg" xmlns:xlink="http://www.w3.org/1999/xlink">
    <!-- Generator: Sketch 41.2 (35397) - http://www.bohemiancoding.com/sketch -->
    <title>Download</title>
    <desc>Created with Sketch.</desc>
    <defs>
        <rect id="path-1" x="0" y="0" width="68" height="40" rx="5"></rect>
        <filter x="-50%" y="-50%" width="200%" height="200%" filterUnits="objectBoundingBox" id="filter-2">
            <feOffset dx="0" dy="-2" in="SourceAlpha" result="shadowOffsetInner1"></feOffset>
            <feComposite in="shadowOffsetInner1" in2="SourceAlpha" operator="arithmetic" k2="-1" k3="1" result="shadowInnerInner1"></feComposite>
            <feColorMatrix values="0 0 0 0 0   0 0 0 0 0   0 0 0 0 0  0 0 0 0.15 0" type="matrix" in="shadowInnerInner1"></feColorMatrix>
        </filter>
        <polygon id="path-3" points="0 0.0273957219 0 10.6360977 10.7145981 10.6360977 10.7145981 0.0273957219 3.90938283e-21 0.0273957219"></polygon>
    </defs>
    <g id="Page-1" stroke="none" stroke-width="1" fill="none" fill-rule="evenodd">
        <g id="User-Management" transform="translate(-1133.000000, -205.000000)">
            <g id="Buttons-V1-Copy" transform="translate(1045.000000, 205.000000)">
                <g id="Download" transform="translate(88.000000, 0.000000)">
                    <g transform="translate(34.000000, 20.000000) scale(-1, 1) translate(-34.000000, -20.000000) ">
                        <use fill="#E8584C" fill-rule="evenodd" xlink:href="#path-1"></use>
                        <use fill="black" fill-opacity="1" filter="url(#filter-2)" xlink:href="#path-1"></use>
                    </g>
                    <g id="Page-1" transform="translate(19.000000, 9.000000)">
                        <g id="Group-3" transform="translate(8.019231, 13.321027)" stroke="#FFFFFF" stroke-width="2">
                            <path d="M21.5117942,4.93025316 C21.220275,3.67282608 20.3656788,2.84678452 19.2916212,2.23437931 C18.5719673,1.82401471 17.8122173,1.46134699 17.0327365,1.17922132 C14.8217942,0.37882754 12.5343519,-0.0442752795 10.1715635,0.0498618133 C8.288775,0.124920151 6.45825577,0.498212567 4.67942885,1.11221719 C3.47619808,1.52755141 2.32714038,2.04764742 1.35006346,2.88134334 C0.509601923,3.59851033 -0.0140711538,4.45945345 0.0349096154,5.60669215 C0.0641596154,6.29067124 0.040275,6.97693522 0.040275,7.662171 L0.040275,7.71123882 C0.040275,7.86906697 0.169563462,7.99707742 0.329025,7.99707742 L0.411005769,7.99707742 C7.35104423,7.99707742 14.2911404,7.99707742 21.2311788,7.99684893 L21.2340635,7.99684893 C21.3921404,7.99667756 21.5192365,7.86746755 21.5192365,7.71095321 L21.5192365,4.99640046 C21.5192365,4.97423712 21.5168135,4.95184528 21.5117942,4.93025316" id="Fill-1"></path>
                        </g>
                        <g id="Group-6" transform="translate(13.384615, 0.011596)" stroke="#FFFFFF" stroke-width="2">
                            <path d="M5.41242692,10.6745351 C8.36033077,10.6747065 10.7973692,8.25627431 10.7842154,5.34385088 C10.7710038,2.42720041 8.35554231,0.0444694944 5.41306154,0.0454976908 C2.45275385,0.0465830092 0.0372923077,2.44473687 0.0484846154,5.3716693 C0.0596192308,8.29226118 2.46908077,10.6743066 5.41242692,10.6745351" id="Fill-4"></path>
                        </g>
                        <g id="Group-9" transform="translate(0.000000, 4.010137)">
                            <mask id="mask-4" fill="white">
                                <use xlink:href="#path-3"></use>
                            </mask>
                            <g id="Clip-8"></g>
                            <path d="M10.7145981,6.46379096 L10.7145981,4.19970248 C10.7145981,4.08494434 10.620675,3.99194968 10.5047135,3.99194968 L6.92034808,3.99194968 C6.80444423,3.99194968 6.71052115,3.89889791 6.71052115,3.78413977 L6.71052115,0.235148517 C6.71052115,0.120447496 6.61654038,0.0273957219 6.50063654,0.0273957219 L4.21394423,0.0273957219 C4.09804038,0.0273957219 4.00411731,0.120447496 4.00411731,0.235148517 L4.00411731,3.78413977 C4.00411731,3.89889791 3.91013654,3.99194968 3.79423269,3.99194968 L0.209867308,3.99194968 C0.0939634615,3.99194968 -1.73076924e-05,4.08494434 -1.73076924e-05,4.19970248 L-1.73076924e-05,6.46379096 C-1.73076924e-05,6.5785491 0.0939634615,6.67154375 0.209867308,6.67154375 L3.79423269,6.67154375 C3.91013654,6.67154375 4.00411731,6.76459553 4.00411731,6.87929655 L4.00411731,10.4282878 C4.00411731,10.5430459 4.09804038,10.6360977 4.21394423,10.6360977 L6.50063654,10.6360977 C6.61654038,10.6360977 6.71052115,10.5430459 6.71052115,10.4282878 L6.71052115,6.87929655 C6.71052115,6.76459553 6.80444423,6.67154375 6.92034808,6.67154375 L10.5047135,6.67154375 C10.620675,6.67154375 10.7145981,6.5785491 10.7145981,6.46379096" id="Fill-7" fill="#FFFFFF" mask="url(#mask-4)"></path>
                        </g>
                    </g>
                </g>
            </g>
        </g>
    </g>
</svg>