<?xml version="1.0" encoding="UTF-8" standalone="no"?>
<svg width="32px" height="32px" viewBox="0 0 32 32" version="1.1" xmlns="http://www.w3.org/2000/svg" xmlns:xlink="http://www.w3.org/1999/xlink">
    <!-- Generator: Sketch 41.2 (35397) - http://www.bohemiancoding.com/sketch -->
    <title>Call Management - Inactive</title>
    <desc>Created with Sketch.</desc>
    <defs></defs>
    <g id="Page-1" stroke="none" stroke-width="1" fill="none" fill-rule="evenodd">
        <g id="Web-app-Nav---Inactive" transform="translate(-34.000000, -484.000000)" fill="#929292">
            <g id="Sidebar" transform="translate(17.000000, 48.000000)">
                <g id="Call-Management---Inactive" transform="translate(17.000000, 436.000000)">
                    <g id="Asset-26">
                        <g>
                            <g id="Layer_2">
                                <g id="Layer_1-2">
                                    <path d="M30.5157447,23.0195745 C29.2947518,21.7940426 28.0714894,20.5730496 26.8459574,19.3565957 L26.6689362,19.1795745 C26.0790267,18.5270639 25.2404892,18.1547353 24.3608511,18.1547353 C23.481213,18.1547353 22.6426754,18.5270639 22.052766,19.1795745 C21.3038298,19.9217021 20.5548936,20.6638298 19.7991489,21.4331915 L19.3565957,21.2085106 C19.0502128,21.0587234 18.7574468,20.9157447 18.4987234,20.7523404 C16.2990503,19.3286457 14.3484839,17.5528942 12.7251064,15.4961702 C11.9409045,14.5698109 11.2858654,13.5414453 10.7778723,12.4391489 C11.4178723,11.8195745 12.0442553,11.186383 12.6706383,10.5531915 L13.0042553,10.212766 C13.6804283,9.61940469 14.0681027,8.76343389 14.0681027,7.86382979 C14.0681027,6.96422568 13.6804283,6.10825488 13.0042553,5.51489362 L12.0646809,4.57531915 L11.1319149,3.62893617 L10.4987234,2.98893617 C10.0629787,2.55319149 9.63404255,2.11744681 9.19148936,1.68170213 C8.59952132,1.03530702 7.76330882,0.667220316 6.88680851,0.667220316 C6.0103082,0.667220316 5.1740957,1.03530702 4.58212766,1.68170213 L3.9012766,2.36255319 L3.9012766,2.36255319 L3.59489362,2.66893617 C3.14553191,3.1387234 2.67574468,3.61531915 2.19234043,4.08510638 C1.30429433,4.90985712 0.76381147,6.0419496 0.680851064,7.25106383 C0.603803681,9.0129541 0.915277363,10.7702235 1.59319149,12.3982979 C2.83445678,15.6354041 4.63168444,18.6307835 6.90382979,21.2493617 C7.53021277,21.9914894 8.18382979,22.7131915 8.85787234,23.387234 C9.1936569,23.6891545 9.70678733,23.676267 10.0269924,23.3578711 C10.3471974,23.0394751 10.3629919,22.5264259 10.0629787,22.1889362 C9.42297872,21.5489362 8.79659574,20.8612766 8.20425532,20.146383 C6.0687413,17.6773301 4.37992289,14.8549528 3.21361702,11.8059574 C2.61638081,10.4098148 2.33952961,8.89760232 2.40340426,7.38042553 C2.45116527,6.6020498 2.79459224,5.87135411 3.36340426,5.33787234 C3.75829787,4.96340426 4.13957447,4.57531915 4.52765957,4.18723404 L7.65957447,7.27829787 C8.001756,7.60731857 8.54587291,7.59664962 8.87489362,7.25446809 C9.20391432,6.91228655 9.19324536,6.36816964 8.85106383,6.03914894 L5.73276596,2.95489362 L5.77361702,2.91404255 C6.04644534,2.57959002 6.45519086,2.38552833 6.88680851,2.38552833 C7.31842616,2.38552833 7.72717168,2.57959002 8,2.91404255 C8.43574468,3.33617021 8.85787234,3.77191489 9.28680851,4.20085106 L9.92680851,4.84085106 L10.893617,5.77361702 L11.826383,6.71319149 C12.1891952,6.98440521 12.4028399,7.41085121 12.4028399,7.86382979 C12.4028399,8.31680837 12.1891952,8.74325437 11.826383,9.01446809 L11.4859574,9.35489362 C10.8051064,10.0357447 10.1242553,10.7165957 9.44340426,11.3974468 C9.01410811,11.7986561 8.89058689,12.4299868 9.13702128,12.9634043 C9.71201711,14.2811682 10.4757688,15.5082167 11.4042553,16.6059574 C13.1444061,18.8077109 15.23538,20.7077597 17.5931915,22.2297872 C17.9221126,22.4259786 18.2606967,22.6054964 18.6076596,22.7676596 C18.8051064,22.8629787 19.0093617,22.9651064 19.1931915,23.067234 C19.7439541,23.4099128 20.4626999,23.2968842 20.8817021,22.8017021 C21.2561702,22.4204255 21.6306383,22.0459574 22.0119149,21.6714894 L28.1395745,27.7038298 C27.7923404,28.0442553 27.4587234,28.3846809 27.1114894,28.7659574 C26.3529597,29.6107828 25.2287092,30.0304691 24.1021277,29.8893617 C22.1656825,29.7331139 20.2818113,29.1816239 18.5668085,28.2689362 C17.0595546,27.5351568 15.6137587,26.6813404 14.2434043,25.7157447 C13.8707936,25.5333471 13.4209599,25.6461864 13.1785561,25.9828583 C12.9361523,26.3195302 12.9718158,26.7819274 13.2629787,27.0774468 C14.7075087,28.1069425 16.2330658,29.0177228 17.8246809,29.8008511 C19.7450439,30.8108523 21.850631,31.4200595 24.013617,31.5914894 L24.4425532,31.5914894 C25.9446906,31.6480269 27.3924849,31.0254003 28.3846809,29.8961702 C28.813617,29.412766 29.2765957,28.9634043 29.746383,28.4868085 L30.5157447,27.7310638 C31.1986604,27.1387825 31.5909448,26.2792943 31.5909448,25.3753191 C31.5909448,24.471344 31.1986604,23.6118558 30.5157447,23.0195745 L30.5157447,23.0195745 Z M29.3174468,26.4714894 L23.1897872,20.4323404 L23.2374468,20.3846809 C23.5075273,20.0481457 23.9157258,19.8523428 24.347234,19.8523428 C24.7787423,19.8523428 25.1869408,20.0481457 25.4570213,20.3846809 L25.6340426,20.5617021 C26.8595745,21.778156 28.0805674,22.9968794 29.2970213,24.2178723 C29.6416984,24.488685 29.8446377,24.9014523 29.8486105,25.3397741 C29.8525832,25.778096 29.6571588,26.1944738 29.3174468,26.4714894 L29.3174468,26.4714894 Z" id="Shape"></path>
                                    <path d="M11.7582979,23.7548936 C11.4029555,23.4465542 10.8649352,23.4846577 10.5565958,23.84 C10.2482564,24.1953424 10.2863598,24.7333627 10.6417021,25.0417021 L11.1114894,25.4434043 C11.3439984,25.6468129 11.6684752,25.7082548 11.9592548,25.6039344 C12.2500344,25.4996139 12.4614506,25.2459144 12.5116253,24.9410898 C12.5617999,24.6362652 12.442853,24.3281874 12.2008511,24.1361702 L11.7582979,23.7548936 Z" id="Shape"></path>
                                    <path d="M10.212766,9.39574468 C10.5601562,9.39644921 10.8731053,9.18594588 11.0034133,8.86392052 C11.1337212,8.54189515 11.0552286,8.17299449 10.8051064,7.93191489 L10.4851064,7.62553191 C10.2661862,7.40904417 9.94840076,7.32579378 9.65145677,7.40714035 C9.35451279,7.48848693 9.12352312,7.72207199 9.04549933,8.01990631 C8.96747554,8.31774063 9.0542713,8.63457609 9.27319149,8.85106383 L9.59319149,9.15744681 C9.75894726,9.31746885 9.98249948,9.40345047 10.212766,9.39574468 L10.212766,9.39574468 Z" id="Shape"></path>
                                </g>
                            </g>
                        </g>
                    </g>
                </g>
            </g>
        </g>
    </g>
</svg>