<?xml version="1.0" encoding="UTF-8" standalone="no"?>
<svg width="32px" height="33px" viewBox="0 0 32 33" version="1.1" xmlns="http://www.w3.org/2000/svg" xmlns:xlink="http://www.w3.org/1999/xlink">
    <!-- Generator: Sketch 41.2 (35397) - http://www.bohemiancoding.com/sketch -->
    <title>Call HIstory</title>
    <desc>Created with Sketch.</desc>
    <defs>
        <polygon id="path-1" points="0.000290976261 31.3191489 30.8863068 31.3191489 30.8863068 0.440792908 0.000290976261 0.440792908"></polygon>
        <polygon id="path-3" points="5.184 2.01157447 5.184 0.309446809 0.121668085 0.309446809 0.121668085 2.01157447 5.184 2.01157447"></polygon>
    </defs>
    <g id="Page-1" stroke="none" stroke-width="1" fill="none" fill-rule="evenodd">
        <g id="Web-app-Nav---Active" transform="translate(-34.000000, -558.000000)">
            <g id="Group">
                <g id="Sidebar" transform="translate(17.000000, 48.000000)">
                    <g id="Call-History---Active" transform="translate(17.000000, 510.000000)">
                        <g id="Page-1">
                            <path d="M25.393634,19.7845106 C24.3389957,18.7434894 23.0229106,18.7434894 21.9750809,19.7845106 C21.1757617,20.5770213 20.3764426,21.3695319 19.5907404,22.1756596 C19.3755915,22.3969362 19.1944851,22.4439149 18.9323574,22.2961702 C18.4149106,22.0142979 17.8641021,21.7855319 17.3670809,21.4764255 C15.0501447,20.0194043 13.1083574,18.1457021 11.3892085,16.0364255 C10.5361021,14.9885957 9.77695319,13.867234 9.24657021,12.6035745 C9.13899574,12.3489362 9.15874043,12.180766 9.36708085,11.9724255 C10.1670809,11.2003404 10.9452936,10.4078298 11.7316766,9.6146383 C12.8264851,8.51302128 12.8264851,7.22417021 11.7248681,6.11574468 C11.1005277,5.48391489 10.4755064,4.86638298 9.85116596,4.23455319 C9.2064,3.58978723 8.5677617,2.93821277 7.91618723,2.30025532 C6.86154894,1.27285106 5.54546383,1.27285106 4.49763404,2.30706383 C3.69150638,3.09957447 2.91874043,3.91251064 2.0996766,4.69140426 C1.34052766,5.41038298 0.957889362,6.29004255 0.876868085,7.31744681 C0.749548936,8.99029787 1.15942128,10.5685106 1.73678298,12.107234 C2.91874043,15.2902128 4.71959149,18.1184681 6.9024,20.7111489 C9.85116596,24.2175319 13.3704851,26.9913191 17.4882723,28.9930213 C19.3415489,29.8931064 21.2629106,30.5848511 23.3517617,30.699234 C24.7890383,30.7795745 26.0384,30.4166809 27.0392511,29.2953191 C27.7248681,28.5300426 28.4969532,27.8308085 29.2220596,27.0988936 C30.2971234,26.0108936 30.3039319,24.6941277 29.2363574,23.6197447 C27.9597617,22.3363404 26.6770383,21.0604255 25.393634,19.7845106" id="Fill-1" fill="#1797E5"></path>
                            <g id="Group-5" transform="translate(0.000000, 0.240340)">
                                <mask id="mask-2" fill="white">
                                    <use xlink:href="#path-1"></use>
                                </mask>
                                <g id="Clip-4"></g>
                                <path d="M28.6389787,26.2310128 L22.5269787,20.1905021 C22.5419574,20.1755234 22.5562553,20.1612255 22.5719149,20.1462468 C23.2854468,19.4388426 24.0745532,19.4395234 24.7908085,20.145566 L24.9657872,20.3205447 C26.1892766,21.5379064 27.4120851,22.7552681 28.628766,23.9780766 C29.3545532,24.7079489 29.355234,25.4861617 28.6389787,26.2310128 M26.1661277,19.1140766 L25.9884255,18.9370553 C24.6042553,17.5705872 22.749617,17.5719489 21.3722553,18.938417 C20.6246809,19.6805447 19.8757447,20.4226723 19.1206809,21.1940766 C18.9742979,21.1178213 18.8258723,21.0449702 18.6774468,20.9714383 C18.3683404,20.8202894 18.0769362,20.6773106 17.8168511,20.5152681 C15.7674894,19.2257362 13.8794894,17.5059064 12.0459574,15.2577362 C11.1662979,14.1765447 10.5467234,13.2056511 10.1014468,12.2027574 C10.740766,11.5811404 11.3671489,10.9486298 11.9962553,10.3140766 L12.3325957,9.97365106 C13.7494468,8.54794894 13.7467234,6.70284255 12.3271489,5.27645957 C12.0132766,4.95918298 11.7000851,4.64599149 11.3868936,4.33211915 C11.0757447,4.02097021 10.7639149,3.70982128 10.4500426,3.39186383 L9.81412766,2.75322553 C9.38110638,2.3168 8.94808511,1.88105532 8.50757447,1.44939574 C7.1227234,0.100629787 5.27080851,0.105395745 3.89821277,1.45892766 C3.67761702,1.67611915 3.46110638,1.89467234 3.24391489,2.11322553 C3.24187234,2.11526809 3.23914894,2.11594894 3.23778723,2.11799149 C3.23574468,2.11935319 3.23574468,2.1220766 3.23438298,2.1234383 C3.13361702,2.22488511 3.03148936,2.32565106 2.9307234,2.42709787 C2.46297872,2.90028936 1.99455319,3.3728 1.51182979,3.83305532 C0.624680851,4.67186383 0.125617021,5.7408 0.026212766,7.01194894 C-0.127659574,9.01977872 0.432680851,10.8206298 0.936510638,12.1625872 C2.07489362,15.2291404 3.81242553,18.1261617 6.24782979,21.0177362 C6.87148936,21.7598638 7.52919149,22.4781617 8.20051064,23.153566 C8.53276596,23.487183 9.07131915,23.4885447 9.40493617,23.1562894 C9.73787234,22.8253957 9.73923404,22.2861617 9.40765957,21.9532255 C8.76902128,21.311183 8.144,20.6282894 7.55029787,19.9208851 C5.24357447,17.1818213 3.60204255,14.449566 2.53106383,11.5668426 C1.87268085,9.81365106 1.62280851,8.44854468 1.72289362,7.14335319 C1.78893617,6.29569362 2.10280851,5.61688511 2.68357447,5.0674383 C3.07982979,4.68956596 3.46246809,4.30284255 3.84646809,3.91611915 L6.97634043,7.00854468 C7.14178723,7.17194894 7.35761702,7.25365106 7.57412766,7.25365106 C7.7933617,7.25365106 8.01259574,7.16922553 8.17940426,7.00105532 C8.51029787,6.66675745 8.50689362,6.1275234 8.17191489,5.79662979 L5.05089362,2.71305532 C5.06519149,2.69875745 5.07880851,2.68514043 5.09310638,2.6715234 C5.80731915,1.96548085 6.59778723,1.96548085 7.31812766,2.66675745 C7.75114894,3.09160851 8.1787234,3.52190638 8.60629787,3.95220426 L9.24289362,4.59220426 C9.55676596,4.90948085 9.86995745,5.22267234 10.1831489,5.53586383 C10.4942979,5.84769362 10.8061277,6.15884255 11.1186383,6.47475745 C11.8893617,7.25024681 11.8920851,8.00258723 11.1240851,8.77467234 L10.786383,9.11577872 C10.1184681,9.79050213 9.4532766,10.4625021 8.76357447,11.1290553 C8.45446809,11.4374809 8.15080851,11.9596936 8.45855319,12.6922894 C8.96510638,13.8980766 9.68612766,15.0541617 10.7264681,16.3328 C12.6791489,18.7273532 14.7019574,20.5670128 16.9147234,21.9586723 C17.2497021,22.1670128 17.5935319,22.3358638 17.9264681,22.4999489 C18.1266383,22.5979915 18.3268085,22.696034 18.5113191,22.7968 C18.8558298,22.9901617 19.531234,23.2121191 20.1971064,22.5285447 C20.5688511,22.1465872 20.9494468,21.7728 21.3259574,21.3956085 L27.4284255,27.4259064 C27.0798298,27.7683745 26.7319149,28.1176511 26.4017021,28.4873532 C25.6541277,29.3261617 24.7002553,29.6802043 23.3950638,29.608034 C21.6827234,29.5147574 19.9744681,29.0143319 17.8570213,27.9862468 C16.3421277,27.249566 14.8871489,26.3916936 13.5315745,25.4364596 C13.1482553,25.1668426 12.6165106,25.2573957 12.3448511,25.6420766 C12.0745532,26.0253957 12.1664681,26.5571404 12.5504681,26.8274383 C13.9809362,27.8357787 15.5162553,28.7413106 17.1135319,29.5168 C19.412766,30.6340766 21.3797447,31.2032681 23.3011064,31.3074383 C23.4461277,31.3156085 23.5877447,31.3196936 23.728,31.3196936 C25.3606809,31.3196936 26.653617,30.7613957 27.6708085,29.6209702 C28.1011064,29.1402894 28.564766,28.6902468 29.0542979,28.2136511 C29.3130213,27.9630979 29.5710638,27.7118638 29.8250213,27.4558638 C31.2357447,26.0267574 31.2405106,24.191183 29.8365957,22.778417 C28.6171915,21.5528851 27.3916596,20.3334809 26.1661277,19.1140766" id="Fill-3" fill="#211F1F" mask="url(#mask-2)"></path>
                            </g>
                            <path d="M11.0804426,23.7565957 C10.7250383,23.4488511 10.187166,23.485617 9.87942128,23.8417021 C9.5716766,24.1964255 9.60980426,24.7342979 9.96452766,25.0427234 C10.1197617,25.1768511 10.2763574,25.3102979 10.4343149,25.4417021 C10.5929532,25.5744681 10.7863149,25.6391489 10.9789957,25.6391489 C11.2220596,25.6391489 11.4644426,25.5342979 11.6332936,25.3320851 C11.9335489,24.971234 11.8852085,24.4347234 11.5229957,24.1344681 C11.3752511,24.0098723 11.2268255,23.8839149 11.0804426,23.7565957" id="Fill-6" fill="#211F1F"></path>
                            <path d="M9.50066383,9.39819574 C9.72262128,9.39819574 9.94525957,9.31172766 10.1120681,9.13879149 C10.4388766,8.80108936 10.4300255,8.26253617 10.0923234,7.93572766 L9.77368511,7.62730213 C9.43666383,7.30185532 8.89742979,7.30934468 8.57062128,7.64772766 C8.24381277,7.98542979 8.25266383,8.52398298 8.59036596,8.85079149 L8.90900426,9.15853617 C9.07377021,9.31853617 9.28755745,9.39819574 9.50066383,9.39819574" id="Fill-8" fill="#211F1F"></path>
                            <g id="Group-12" transform="translate(26.553191, 2.282894)">
                                <mask id="mask-4" fill="white">
                                    <use xlink:href="#path-3"></use>
                                </mask>
                                <g id="Clip-11"></g>
                                <path d="M0.972731915,2.01157447 L4.33341277,2.01157447 C4.8032,2.01157447 5.1844766,1.63029787 5.1844766,1.16051064 C5.1844766,0.690723404 4.8032,0.309446809 4.33341277,0.309446809 L0.972731915,0.309446809 C0.502944681,0.309446809 0.121668085,0.690723404 0.121668085,1.16051064 C0.121668085,1.63029787 0.502944681,2.01157447 0.972731915,2.01157447" id="Fill-10" fill="#E15944" mask="url(#mask-4)"></path>
                            </g>
                            <path d="M19.0312851,4.1362383 L21.4142638,5.83836596 C21.5647319,5.94525957 21.7369872,5.9963234 21.9085617,5.9963234 C22.1734128,5.9963234 22.4355404,5.87308936 22.6016681,5.6402383 C22.8746894,5.2576 22.7861787,4.72585532 22.4035404,4.45283404 L22.1822638,4.29419574 L25.4837106,4.29419574 C25.9534979,4.29419574 26.3347745,3.9136 26.3347745,3.44313191 C26.3347745,2.97334468 25.9534979,2.59206809 25.4837106,2.59206809 L22.1822638,2.59206809 L22.4035404,2.43411064 C22.7861787,2.16108936 22.8746894,1.62866383 22.6016681,1.24670638 C22.327966,0.863387234 21.7955404,0.775557447 21.4142638,1.04857872 L19.0312851,2.75070638 C18.807966,2.91070638 18.6752,3.16874894 18.6752,3.44313191 C18.6752,3.71819574 18.807966,3.9762383 19.0312851,4.1362383" id="Fill-13" fill="#E15944"></path>
                            <path d="M19.5259234,9.24391489 L19.7812426,9.24391489 C20.2510298,9.24391489 20.6323064,8.8626383 20.6323064,8.39285106 C20.6323064,7.92306383 20.2510298,7.54178723 19.7812426,7.54178723 L19.5259234,7.54178723 C19.0561362,7.54178723 18.6748596,7.92306383 18.6748596,8.39285106 C18.6748596,8.8626383 19.0561362,9.24391489 19.5259234,9.24391489" id="Fill-15" fill="#3AB54A"></path>
                            <path d="M31.3810383,7.70008511 L28.9980596,5.99795745 C28.6147404,5.72493617 28.0836766,5.81276596 27.8106553,6.19608511 C27.537634,6.5787234 27.6261447,7.11046809 28.008783,7.38348936 L28.2300596,7.54212766 L21.9090383,7.54212766 C21.4385702,7.54212766 21.0579745,7.9227234 21.0579745,8.39319149 C21.0579745,8.86297872 21.4385702,9.24425532 21.9090383,9.24425532 L28.2300596,9.24425532 L28.008783,9.40221277 C27.6261447,9.67523404 27.537634,10.2076596 27.8106553,10.589617 C27.976783,10.8224681 28.2389106,10.946383 28.5037617,10.946383 C28.6753362,10.946383 28.8482723,10.8946383 28.9980596,10.7877447 L31.3810383,9.08561702 C31.6043574,8.92561702 31.7371234,8.66757447 31.7371234,8.39319149 C31.7371234,8.11812766 31.6043574,7.86008511 31.3810383,7.70008511" id="Fill-17" fill="#3AB54A"></path>
                        </g>
                    </g>
                </g>
            </g>
        </g>
    </g>
</svg>