<?xml version="1.0" encoding="UTF-8" standalone="no"?>
<svg width="47px" height="47px" viewBox="0 0 47 47" version="1.1" xmlns="http://www.w3.org/2000/svg" xmlns:xlink="http://www.w3.org/1999/xlink">
    <!-- Generator: Sketch 41.2 (35397) - http://www.bohemiancoding.com/sketch -->
    <title>Call management - Active</title>
    <desc>Created with Sketch.</desc>
    <defs></defs>
    <g id="Symbols" stroke="none" stroke-width="1" fill="none" fill-rule="evenodd">
        <g id="Call-management---Active">
            <g id="Asset-35">
                <g>
                    <g id="Layer_2">
                        <g id="Layer_1-2">
                            <path d="M38.29,29 C37.659544,28.2785166 36.74813,27.8645823 35.79,27.8645823 C34.83187,27.8645823 33.920456,28.2785166 33.29,29 C32.12,30.16 30.94,31.33 29.79,32.51 C29.6865869,32.6730771 29.5195699,32.7853581 29.329522,32.8195667 C29.1394741,32.8537753 28.9437876,32.806781 28.79,32.69 C28.03,32.28 27.22,31.94 26.49,31.49 C23.1452679,29.3217701 20.1791621,26.619168 17.71,23.49 C16.4273848,21.9817464 15.3666821,20.2980914 14.56,18.49 C14.3789192,18.178618 14.4558136,17.7813303 14.74,17.56 C15.91,16.43 17.06,15.26 18.21,14.1 C18.977729,13.4674314 19.4224543,12.5247617 19.4224543,11.53 C19.4224543,10.5352383 18.977729,9.59256858 18.21,8.96 L15.46,6.12 C14.51,5.17 13.58,4.22 12.62,3.28 C11.9860801,2.56446922 11.0759491,2.15485891 10.12,2.15485891 C9.16405087,2.15485891 8.25391989,2.56446922 7.62,3.28 C6.42,4.46 5.28,5.65 4.08,6.8 C3.00549022,7.80699047 2.3607507,9.18959856 2.28,10.66 C2.18091645,13.0575458 2.61110641,15.4474901 3.54,17.66 C5.31868822,22.2811952 7.88689231,26.5581517 11.13,30.3 C15.3910306,35.4192597 20.6914725,39.5743972 26.68,42.49 C29.3523826,43.896224 32.2805939,44.7498605 35.29,45 C37.3238667,45.2332122 39.3444722,44.465233 40.71,42.94 C41.71,41.82 42.85,40.79 43.92,39.71 C44.6674608,39.0716295 45.0978967,38.1379622 45.0978967,37.155 C45.0978967,36.1720378 44.6674608,35.2383705 43.92,34.6 C42.0533333,32.7133333 40.1766667,30.8466667 38.29,29 Z" id="Shape" fill="#3AB54A"></path>
                            <path d="M44.82,33.81 C43.0266667,32.01 41.23,30.2166667 39.43,28.43 L39.17,28.17 C38.3035705,27.2116252 37.0719684,26.6647675 35.78,26.6647675 C34.4880316,26.6647675 33.2564295,27.2116252 32.39,28.17 C31.29,29.26 30.19,30.35 29.08,31.48 L28.43,31.15 C27.98,30.93 27.55,30.72 27.17,30.48 C23.9392302,28.3889484 21.0743357,25.7808134 18.69,22.76 C17.5382035,21.3994097 16.5761148,19.8889977 15.83,18.27 C16.77,17.36 17.69,16.43 18.61,15.5 L19.1,15 C20.0931291,14.1285006 20.6625258,12.8712935 20.6625258,11.55 C20.6625258,10.2287065 20.0931291,8.97149936 19.1,8.1 L17.72,6.72 L16.35,5.33 L15.42,4.39 C14.78,3.75 14.15,3.11 13.5,2.47 C12.6305469,1.52060718 11.4023598,0.979979839 10.115,0.979979839 C8.82764016,0.979979839 7.59945306,1.52060718 6.73,2.47 L5.73,3.47 L5.73,3.47 L5.28,3.92 C4.62,4.61 3.93,5.31 3.22,6 C1.9156823,7.21135265 1.1218481,8.87411348 1,10.65 C0.886836657,13.2377763 1.34431363,15.8187658 2.34,18.21 C4.16310839,22.9644997 6.80278653,27.3639633 10.14,31.21 C11.06,32.3 12.02,33.36 13.01,34.35 C13.5031836,34.7934457 14.2568439,34.7745172 14.727145,34.3068731 C15.1974462,33.8392291 15.2206444,33.0856881 14.78,32.59 C13.84,31.65 12.92,30.64 12.05,29.59 C8.91346379,25.9635786 6.43301174,21.818212 4.72,17.34 C3.84280932,15.2894155 3.43618411,13.0683534 3.53,10.84 C3.60014899,9.69676064 4.10455736,8.62355134 4.94,7.84 C5.52,7.29 6.08,6.72 6.65,6.15 L11.25,10.69 C11.7525791,11.1732492 12.5517508,11.1575791 13.035,10.655 C13.5182492,10.1524209 13.5025791,9.35324916 13,8.87 L8.42,4.34 L8.48,4.28 C8.8807166,3.78877284 9.48106158,3.50374473 10.115,3.50374473 C10.7489384,3.50374473 11.3492834,3.78877284 11.75,4.28 C12.39,4.9 13.01,5.54 13.64,6.17 L14.58,7.11 L16,8.48 L17.37,9.86 C17.9028805,10.2583452 18.2166711,10.8846877 18.2166711,11.55 C18.2166711,12.2153123 17.9028805,12.8416548 17.37,13.24 L16.87,13.74 L13.87,16.74 C13.2394713,17.3292762 13.0580495,18.2565431 13.42,19.04 C14.2645251,20.9754657 15.3862855,22.7776933 16.75,24.39 C19.3058464,27.6238253 22.3769643,30.4145221 25.84,32.65 C26.3231029,32.9381561 26.8203982,33.2018228 27.33,33.44 C27.62,33.58 27.92,33.73 28.19,33.88 C28.9989325,34.3833094 30.0545905,34.2172986 30.67,33.49 C31.22,32.93 31.77,32.38 32.33,31.83 L41.33,40.69 C40.82,41.19 40.33,41.69 39.82,42.25 C38.7059095,43.4908373 37.0546666,44.1072515 35.4,43.9 C32.5558461,43.670511 29.7889103,42.8605101 27.27,41.52 C25.0562209,40.4422616 22.9327081,39.1882186 20.92,37.77 C20.3727281,37.5021035 19.7120348,37.6678362 19.3560043,38.1623231 C18.9999737,38.65681 19.0523544,39.3359559 19.48,39.77 C21.6016535,41.2820718 23.8423154,42.6197804 26.18,43.77 C29.0005332,45.2534392 32.0931143,46.1482124 35.27,46.4 L35.9,46.4 C38.1062643,46.4830394 40.2327123,45.5685566 41.69,43.91 C42.32,43.2 43,42.54 43.69,41.84 L44.82,40.73 C45.8230325,39.8600867 46.3992001,38.5977136 46.3992001,37.27 C46.3992001,35.9422864 45.8230325,34.6799133 44.82,33.81 L44.82,33.81 Z M43.06,38.88 L34.06,30.01 L34.13,29.94 C34.5266807,29.445714 35.1262223,29.1581284 35.76,29.1581284 C36.3937777,29.1581284 36.9933193,29.445714 37.39,29.94 L37.65,30.2 C39.45,31.9866667 41.2433333,33.7766667 43.03,35.57 C43.5362446,35.9677561 43.8343117,36.574008 43.8401466,37.2177932 C43.8459815,37.8615785 43.5589519,38.4731334 43.06,38.88 L43.06,38.88 Z" id="Shape" fill="#212020"></path>
                            <path d="M17.27,34.89 C16.7480909,34.4371265 15.9578735,34.493091 15.505,35.015 C15.0521266,35.5369091 15.1080909,36.3271265 15.63,36.78 L16.32,37.37 C16.6614976,37.6687565 17.1380729,37.7589993 17.5651554,37.6057786 C17.992238,37.4525579 18.3027556,37.0799368 18.3764496,36.6322256 C18.4501436,36.1845145 18.2754404,35.7320252 17.92,35.45 L17.27,34.89 Z" id="Shape" fill="#212020"></path>
                            <path d="M15,13.8 C15.5102295,13.8010348 15.9698734,13.491858 16.1612632,13.0188833 C16.352653,12.5459085 16.237367,12.0040857 15.87,11.65 L15.4,11.2 C15.078461,10.8820336 14.6117136,10.7597596 14.1755771,10.8792374 C13.7394407,10.9987152 13.4001746,11.3417932 13.2855771,11.7792374 C13.1709797,12.2166815 13.298461,12.6820336 13.62,13 L14.09,13.45 C14.3334538,13.6850324 14.6617961,13.8113179 15,13.8 L15,13.8 Z" id="Shape" fill="#212020"></path>
                        </g>
                    </g>
                </g>
            </g>
        </g>
    </g>
</svg>