<?xml version="1.0" encoding="UTF-8" standalone="no"?>
<svg width="32px" height="32px" viewBox="0 0 32 32" version="1.1" xmlns="http://www.w3.org/2000/svg" xmlns:xlink="http://www.w3.org/1999/xlink">
    <!-- Generator: Sketch 41.2 (35397) - http://www.bohemiancoding.com/sketch -->
    <title>Call HIstory</title>
    <desc>Created with Sketch.</desc>
    <defs>
        <polygon id="path-1" points="0.000291243702 31.3479349 30.9146949 31.3479349 30.9146949 0.441198048 0.000291243702 0.441198048"></polygon>
        <polygon id="path-3" points="5.18876471 2.01342334 5.18876471 0.309731227 0.121779912 0.309731227 0.121779912 2.01342334 5.18876471 2.01342334"></polygon>
    </defs>
    <g id="Page-1" stroke="none" stroke-width="1" fill="none" fill-rule="evenodd">
        <g id="Web-app-Nav---Inactive" transform="translate(-34.000000, -558.000000)">
            <g id="Sidebar" transform="translate(17.000000, 48.000000)">
                <g id="Call-HIstory" transform="translate(17.000000, 510.000000)">
                    <g id="Page-1">
                        <g id="Group-3" transform="translate(0.000000, 0.240561)">
                            <mask id="mask-2" fill="white">
                                <use xlink:href="#path-1"></use>
                            </mask>
                            <g id="Clip-2"></g>
                            <path d="M28.6653013,26.2551222 L22.5476837,20.2090596 C22.5626762,20.1940671 22.5769872,20.1797561 22.5926611,20.1647636 C23.3068489,19.4567091 24.0966805,19.4573906 24.8135942,20.1640821 L24.9887337,20.3392217 C26.2133476,21.5577023 27.43728,22.7761829 28.6550792,24.0001153 C29.3815335,24.7306584 29.382215,25.5095865 28.6653013,26.2551222 M29.8640191,22.7993531 C28.6434941,21.5726947 27.4168357,20.3521697 26.1901774,19.1316447 L26.012312,18.9544607 C24.6268695,17.5867367 22.7705266,17.5880996 21.3918989,18.9558237 C20.6436374,19.6986334 19.8940128,20.4414432 19.138255,21.2135564 C18.9917375,21.137231 18.8431755,21.064313 18.6946136,20.9907135 C18.3852231,20.8394257 18.093551,20.6963155 17.8332268,20.534124 C15.7819815,19.2434069 13.8922462,17.5219964 12.0570291,15.2717598 C11.176561,14.1895746 10.5564171,13.2177886 10.1107312,12.2139732 C10.750638,11.5917849 11.3775967,10.9586929 12.0072813,10.3235564 L12.3439309,9.98281802 C13.7620842,8.55580551 13.7593583,6.70900325 12.338479,5.28130926 C12.0243182,4.96374105 11.7108389,4.6502617 11.3973595,4.33610088 C11.0859246,4.02466596 10.7738082,3.71323104 10.4596474,3.39498135 L9.823148,2.75575607 C9.38972872,2.31892941 8.95630945,1.88278423 8.51539393,1.45072791 C7.12927003,0.100722278 5.275653,0.105492616 3.90179568,1.46026859 C3.68099718,1.6776597 3.46496902,1.89641377 3.24689643,2.11516783 C3.244852,2.11721227 3.2421261,2.11789374 3.24076314,2.11993817 C3.23871871,2.12130113 3.23871871,2.12402703 3.23735576,2.12538999 C3.13649718,2.22693004 3.03427566,2.32778861 2.93341708,2.42932866 C2.46524249,2.90295507 1.99638642,3.3759 1.51321934,3.83657835 C0.625255006,4.67615782 0.125732478,5.74607647 0.0262368586,7.01839374 C-0.127776909,9.02806896 0.433078536,10.8305752 0.937371402,12.1737661 C2.07680069,15.2431378 3.8159296,18.1428218 6.25357228,21.0370539 C6.87780507,21.7798637 7.5361117,22.4988218 8.20804787,23.1748468 C8.54060857,23.5087705 9.07965676,23.5101334 9.41358041,23.1775727 C9.74682259,22.846375 9.74818554,22.3066453 9.41630632,21.9734031 C8.77708104,21.3307705 8.15148529,20.6472492 7.55723748,19.9391947 C5.24839393,17.1976134 3.60535325,14.4628468 2.53339018,11.5774738 C1.87440207,9.82267096 1.62430006,8.45630989 1.72447716,7.14991877 C1.79058041,6.3014801 2.10474124,5.62204768 2.68604099,5.07209587 C3.08266051,4.69387622 3.4656505,4.30679737 3.85000344,3.91971852 L6.9827525,7.01498636 C7.14835138,7.1785408 7.36437954,7.26031802 7.58108917,7.26031802 C7.80052472,7.26031802 8.01996026,7.17581489 8.18692209,7.00749011 C8.51811984,6.67288498 8.51471245,6.13315532 8.17942584,5.80195757 L5.05553598,2.71554894 C5.069847,2.70123792 5.08347653,2.68760839 5.09778755,2.67397885 C5.81265676,1.96728736 6.60385138,1.96728736 7.32485388,2.66920851 C7.75827315,3.09445006 8.18624061,3.52514343 8.61420807,3.9558368 L9.25138892,4.59642503 C9.56554975,4.91399324 9.8790291,5.22747259 10.1925084,5.54095194 C10.5039434,5.85306834 10.8160598,6.16450325 11.1288576,6.48070851 C11.9002894,7.25691064 11.9030153,8.00994255 11.1343094,8.7827373 L10.7962969,9.1241572 C10.1277681,9.79950075 9.46196527,10.4721184 8.77162922,11.1392842 C8.46223874,11.4479932 8.15830006,11.970686 8.4663276,12.7039551 C8.97334637,13.9108506 9.69503035,15.0679982 10.736327,16.3478118 C12.6908026,18.7445658 14.7154703,20.5859163 16.93027,21.9788549 C17.2655566,22.1873869 17.6097024,22.3563931 17.9429446,22.520629 C18.1432988,22.6187617 18.343653,22.7168944 18.5283332,22.8177529 C18.8731605,23.0112924 19.5491855,23.2334538 20.2156699,22.5492511 C20.5877563,22.1669426 20.9687018,21.7928118 21.3455585,21.4152736 L27.4536355,27.451114 C27.1047193,27.7938969 26.7564847,28.1434945 26.4259684,28.5135364 C25.6777068,29.3531159 24.7229578,29.7074839 23.4165666,29.6352473 C21.7026524,29.541885 19.992827,29.0409995 17.873434,28.0119695 C16.357148,27.2746115 14.900832,26.4159507 13.5440116,25.4598387 C13.1603401,25.1899738 12.6281067,25.2806103 12.3561974,25.6656447 C12.0856511,26.0493161 12.1776505,26.5815496 12.5620034,26.8520959 C13.9937863,27.8613631 15.5305166,28.7677273 17.1292613,29.5439294 C19.4306086,30.6622329 21.3993952,31.2319476 23.3225228,31.3362135 C23.4676774,31.3443912 23.6094246,31.3484801 23.7498088,31.3484801 C25.3839903,31.3484801 26.6781148,30.7896691 27.6962412,29.6481954 C28.1269346,29.1670727 28.5910203,28.7166165 29.0810022,28.2395827 C29.3399634,27.9887992 29.5982431,27.7373343 29.852434,27.481099 C31.264454,26.0506791 31.2692243,24.2134175 29.8640191,22.7993531" id="Fill-1" fill="#929292" mask="url(#mask-2)"></path>
                        </g>
                        <path d="M11.0906268,23.7784309 C10.7348959,23.4704033 10.1965292,23.5072031 9.88850163,23.8636155 C9.58047409,24.2186649 9.6186368,24.7570316 9.97368623,25.0657406 C10.129063,25.1999916 10.2858026,25.333561 10.4439053,25.465086 C10.6026894,25.597974 10.7962288,25.6627143 10.9890867,25.6627143 C11.232374,25.6627143 11.4749797,25.5577669 11.643986,25.3553683 C11.9445173,24.9941855 11.8961324,24.4571818 11.5335867,24.1566505 C11.3857063,24.0319402 11.2371443,23.905867 11.0906268,23.7784309" id="Fill-4" fill="#929292"></path>
                        <path d="M9.50939606,9.40683379 C9.73155751,9.40683379 9.95440044,9.32028623 10.1213623,9.14719111 C10.4484712,8.8091786 10.439612,8.27013041 10.1015994,7.94302153 L9.78266827,7.63431252 C9.44533723,7.30856658 8.90560757,7.31606283 8.57849869,7.65475682 C8.2513898,7.99276934 8.260249,8.53181752 8.59826151,8.85892641 L8.91719268,9.16695394 C9.08211008,9.327101 9.2960938,9.40683379 9.50939606,9.40683379" id="Fill-6" fill="#929292"></path>
                        <g id="Group-10" transform="translate(26.577597, 2.284992)">
                            <mask id="mask-4" fill="white">
                                <use xlink:href="#path-3"></use>
                            </mask>
                            <g id="Clip-9"></g>
                            <path d="M0.97362597,2.01342334 L4.33739568,2.01342334 C4.80761471,2.01342334 5.18924174,1.63179631 5.18924174,1.16157728 C5.18924174,0.69135826 4.80761471,0.309731227 4.33739568,0.309731227 L0.97362597,0.309731227 C0.503406946,0.309731227 0.121779912,0.69135826 0.121779912,1.16157728 C0.121779912,1.63179631 0.503406946,2.01342334 0.97362597,2.01342334" id="Fill-8" fill="#929292" mask="url(#mask-4)"></path>
                        </g>
                        <path d="M19.0487089,4.14003999 L21.4338779,5.8437321 C21.5844843,5.95072397 21.7568979,6.00183473 21.9286301,6.00183473 C22.1937246,6.00183473 22.4560932,5.87848742 22.6223735,5.64542234 C22.8956457,5.26243235 22.8070538,4.73019894 22.4240638,4.45692672 L22.2025838,4.29814262 L25.507065,4.29814262 C25.977284,4.29814262 26.3589111,3.91719706 26.3589111,3.44629656 C26.3589111,2.97607753 25.977284,2.5944505 25.507065,2.5944505 L22.2025838,2.5944505 L22.4240638,2.43634787 C22.8070538,2.16307566 22.8956457,1.63016076 22.6223735,1.24785225 C22.3484198,0.864180788 21.8155049,0.776270275 21.4338779,1.04954249 L19.0487089,2.75323461 C18.8251845,2.91338166 18.6922966,3.17166139 18.6922966,3.44629656 C18.6922966,3.7216132 18.8251845,3.97989293 19.0487089,4.14003999" id="Fill-11" fill="#929292"></path>
                        <path d="M19.7994238,7.54878717 L19.54387,7.54878717 C19.073651,7.54878717 18.692024,7.93041421 18.692024,8.40063323 C18.692024,8.87085225 19.073651,9.25247929 19.54387,9.25247929 L19.7994238,9.25247929 C20.2696429,9.25247929 20.6512699,8.87085225 20.6512699,8.40063323 C20.6512699,7.93041421 20.2696429,7.54878717 19.7994238,7.54878717" id="Fill-13" fill="#929292"></path>
                        <path d="M31.409813,7.70716239 L29.0246441,6.00347028 C28.6409726,5.73019806 28.1094207,5.81810857 27.8361484,6.20178004 C27.5628762,6.58477003 27.6514682,7.11700344 28.0344582,7.39027566 L28.2559382,7.54905976 L21.9291071,7.54905976 C21.4582066,7.54905976 21.0772611,7.93000532 21.0772611,8.40090582 C21.0772611,8.87112484 21.4582066,9.25275188 21.9291071,9.25275188 L28.2559382,9.25275188 L28.0344582,9.41085451 C27.6514682,9.68412672 27.5628762,10.2170416 27.8361484,10.5993501 C28.0024288,10.8324152 28.2647974,10.956444 28.5298919,10.956444 C28.701624,10.956444 28.8747191,10.9046518 29.0246441,10.7976599 L31.409813,9.09396777 C31.6333374,8.93382071 31.7662254,8.67554099 31.7662254,8.40090582 C31.7662254,8.12558917 31.6333374,7.86730945 31.409813,7.70716239" id="Fill-15" fill="#929292"></path>
                    </g>
                </g>
            </g>
        </g>
    </g>
</svg>