<?xml version="1.0" encoding="UTF-8" standalone="no"?>
<svg width="44px" height="44px" viewBox="0 0 44 44" version="1.1" xmlns="http://www.w3.org/2000/svg" xmlns:xlink="http://www.w3.org/1999/xlink">
    <!-- Generator: Sketch 41.2 (35397) - http://www.bohemiancoding.com/sketch -->
    <title>Dashboard - Active</title>
    <desc>Created with Sketch.</desc>
    <defs></defs>
    <g id="Symbols" stroke="none" stroke-width="1" fill="none" fill-rule="evenodd">
        <g id="Dashboard---Active">
            <g id="Asset-31">
                <g>
                    <g id="Layer_2">
                        <g id="Layer_1-2">
                            <path d="M26.73,30.88 L39.39,30.88 C40.8866917,30.88 42.1,32.0933083 42.1,33.59 L42.1,39.39 C42.1,40.8866917 40.8866917,42.1 39.39,42.1 L26.73,42.1 C26.0078043,42.10533 25.313356,41.8221677 24.8007986,41.3133653 C24.2882412,40.8045628 23.9999803,40.1122154 24,39.39 L24,33.59 C23.9999803,32.8677846 24.2882412,32.1754372 24.8007986,31.6666347 C25.313356,31.1578323 26.0078043,30.87467 26.73,30.88 L26.73,30.88 Z" id="path415" fill="#E15944"></path>
                            <path d="M4,1.25 L16.62,1.25 C17.3457211,1.24992094 18.0411521,1.54092229 18.5505413,2.05783018 C19.0599306,2.57473807 19.3407118,3.27435793 19.33,4 L19.33,7.59 C19.33,9.08669167 18.1166917,10.3 16.62,10.3 L4,10.3 C3.27435793,10.3107118 2.57473807,10.0299306 2.05783018,9.52054133 C1.54092229,9.0111521 1.24992094,8.31572112 1.25,7.59 L1.25,4 C1.23910404,3.2673687 1.52533511,2.56154682 2.04344096,2.04344096 C2.56154682,1.52533511 3.2673687,1.23910404 4,1.25 L4,1.25 Z" id="path417" fill="#FFBE40"></path>
                            <path d="M26.73,1.25 L39.39,1.25 C40.1157211,1.24992094 40.8111521,1.54092229 41.3205413,2.05783018 C41.8299306,2.57473807 42.1107118,3.27435793 42.1,4 L42.1,23.49 C42.1,24.9866917 40.8866917,26.2 39.39,26.2 L26.73,26.2 C26.0078043,26.20533 25.313356,25.9221677 24.8007986,25.4133653 C24.2882412,24.9045628 23.9999803,24.2122154 24,23.49 L24,4 C23.9892164,3.27087677 24.2727243,2.56817374 24.7864634,2.05067098 C25.3002025,1.53316822 26.0008175,1.24453869 26.73,1.25 Z" id="path419" fill="#4895D8"></path>
                            <path d="M4,15 L16.62,15 C17.3387367,15 18.0280358,15.285517 18.5362594,15.7937406 C19.044483,16.3019642 19.33,16.9912633 19.33,17.71 L19.33,39.41 C19.33,40.1287367 19.044483,40.8180358 18.5362594,41.3262594 C18.0280358,41.834483 17.3387367,42.12 16.62,42.12 L4,42.12 C2.50330833,42.12 1.29,40.9066917 1.29,39.41 L1.29,17.69 C1.30098831,16.2011247 2.51108415,14.9999595 4,15 L4,15 Z" id="path431" fill="#3AB54A"></path>
                            <path d="M39.39,29.63 L26.73,29.63 C24.520861,29.63 22.73,31.420861 22.73,33.63 L22.73,39.43 C22.73,41.639139 24.520861,43.43 26.73,43.43 L39.39,43.43 C41.599139,43.43 43.39,41.639139 43.39,39.43 L43.39,33.63 C43.39,31.420861 41.599139,29.63 39.39,29.63 L39.39,29.63 Z M40.85,39.39 C40.85,40.1963357 40.1963357,40.85 39.39,40.85 L26.73,40.85 C25.9236643,40.85 25.27,40.1963357 25.27,39.39 L25.27,33.59 C25.27,32.7836643 25.9236643,32.13 26.73,32.13 L39.39,32.13 C40.1963357,32.13 40.85,32.7836643 40.85,33.59 L40.85,39.39 Z" id="Shape" fill="#212020"></path>
                            <path d="M16.62,0 L4,0 C1.790861,-1.3527075e-16 2.705415e-16,1.790861 0,4 L0,7.58 C2.705415e-16,9.789139 1.790861,11.58 4,11.58 L16.62,11.58 C18.829139,11.58 20.62,9.789139 20.62,7.58 L20.62,4 C20.62,1.790861 18.829139,1.3527075e-16 16.62,0 Z M18.08,7.58 C18.0583297,8.37067273 17.4109696,9.00029691 16.62,9 L4,9 C3.61274337,9.01075522 3.23708921,8.86715738 2.95575227,8.60082507 C2.67441532,8.33449276 2.51046454,7.96726459 2.5,7.58 L2.5,4 C2.48885074,3.59886117 2.64330297,3.21081802 2.9270605,2.9270605 C3.21081802,2.64330297 3.59886117,2.48885074 4,2.5 L16.62,2.5 C17.0142472,2.49985201 17.3917969,2.65915167 17.6667795,2.941668 C17.941762,3.22418433 18.0908013,3.60590075 18.08,4 L18.08,7.58 Z" id="Shape" fill="#212020"></path>
                            <path d="M24,12.72 C24.3315206,12.72 24.649463,12.5883039 24.8838835,12.3538835 C25.1183039,12.119463 25.25,11.8015206 25.25,11.47 L25.25,11.26 C25.25,10.5696441 24.6903559,10.01 24,10.01 C23.3096441,10.01 22.75,10.5696441 22.75,11.26 L22.75,11.47 C22.75,12.1603559 23.3096441,12.72 24,12.72 L24,12.72 Z" id="Shape" fill="#212020"></path>
                            <path d="M39.39,0 L26.73,0 C24.520861,-1.3527075e-16 22.73,1.790861 22.73,4 L22.73,7.6 C22.73,8.29035594 23.2896441,8.85 23.98,8.85 C24.6703559,8.85 25.23,8.29035594 25.23,7.6 L25.23,4 C25.2188507,3.59886117 25.373303,3.21081802 25.6570605,2.9270605 C25.940818,2.64330297 26.3288612,2.48885074 26.73,2.5 L39.39,2.5 C39.7842472,2.49985201 40.1617969,2.65915167 40.4367795,2.941668 C40.711762,3.22418433 40.8608013,3.60590075 40.85,4 L40.85,23.49 C40.85,24.2963357 40.1963357,24.95 39.39,24.95 L26.73,24.95 C26.3427839,24.95 25.9714272,24.796179 25.6976241,24.5223759 C25.423821,24.2485728 25.27,23.8772161 25.27,23.49 L25.27,15.06 C25.27,14.3696441 24.7103559,13.81 24.02,13.81 C23.3296441,13.81 22.77,14.3696441 22.77,15.06 L22.77,23.49 C22.77,25.699139 24.560861,27.49 26.77,27.49 L39.39,27.49 C41.599139,27.49 43.39,25.699139 43.39,23.49 L43.39,4 C43.39,1.790861 41.599139,1.3527075e-16 39.39,0 Z" id="Shape" fill="#212020"></path>
                            <path d="M16.62,13.73 L4,13.73 C1.790861,13.73 6.86875135e-16,15.520861 4.16333634e-16,17.73 L4.16333634e-16,29.77 C5.00877853e-16,30.4603559 0.559644063,31.02 1.25,31.02 C1.94035594,31.02 2.5,30.4603559 2.5,29.77 L2.5,17.69 C2.49985201,17.2957528 2.65915167,16.9182031 2.941668,16.6432205 C3.22418433,16.368238 3.60590075,16.2191987 4,16.23 L16.62,16.23 C17.4263357,16.23 18.08,16.8836643 18.08,17.69 L18.08,39.39 C18.08,40.1963357 17.4263357,40.85 16.62,40.85 L4,40.85 C3.60590075,40.8608013 3.22418433,40.711762 2.941668,40.4367795 C2.65915167,40.1617969 2.49985201,39.7842472 2.5,39.39 L2.5,37.39 C2.5,36.6996441 1.94035594,36.14 1.25,36.14 C0.559644063,36.14 8.45442189e-17,36.6996441 0,37.39 L0,39.39 C2.42785925e-16,41.599139 1.790861,43.39 4,43.39 L16.62,43.39 C18.829139,43.39 20.62,41.599139 20.62,39.39 L20.62,17.69 C20.5980639,15.4964978 18.8136118,13.7298903 16.62,13.73 L16.62,13.73 Z" id="Shape" fill="#212020"></path>
                            <path d="M1.25,35.64 C1.94035594,35.64 2.5,35.0803559 2.5,34.39 L2.5,33.81 C2.5,33.1196441 1.94035594,32.56 1.25,32.56 C0.559644063,32.56 8.45442189e-17,33.1196441 0,33.81 L0,34.39 C8.45442189e-17,35.0803559 0.559644063,35.64 1.25,35.64 Z" id="Shape" fill="#212020"></path>
                        </g>
                    </g>
                </g>
            </g>
        </g>
    </g>
</svg>