<?xml version="1.0" encoding="UTF-8" standalone="no"?>
<svg width="32px" height="32px" viewBox="0 0 32 32" version="1.1" xmlns="http://www.w3.org/2000/svg" xmlns:xlink="http://www.w3.org/1999/xlink">
    <!-- Generator: Sketch 41.2 (35397) - http://www.bohemiancoding.com/sketch -->
    <title>Dashboard - Inactive</title>
    <desc>Created with Sketch.</desc>
    <defs></defs>
    <g id="Page-1" stroke="none" stroke-width="1" fill="none" fill-rule="evenodd">
        <g id="Web-app-Nav---Inactive" transform="translate(-34.000000, -255.000000)" fill="#929292">
            <g id="Sidebar" transform="translate(17.000000, 48.000000)">
                <g id="Dashboard---Inactive" transform="translate(17.000000, 207.000000)">
                    <g id="Asset-22">
                        <g>
                            <g id="Layer_2">
                                <g id="Layer_1-2">
                                    <path d="M28.6472727,21.5490909 L19.44,21.5490909 C17.8333535,21.5490909 16.5309091,22.8515353 16.5309091,24.4581818 L16.5309091,28.6763636 C16.5309091,30.2830102 17.8333535,31.5854545 19.44,31.5854545 L28.6472727,31.5854545 C30.2539193,31.5854545 31.5563636,30.2830102 31.5563636,28.6763636 L31.5563636,24.4581818 C31.5563636,22.8515353 30.2539193,21.5490909 28.6472727,21.5490909 L28.6472727,21.5490909 Z M29.7090909,28.6472727 C29.7090909,29.2336987 29.2336987,29.7090909 28.6472727,29.7090909 L19.44,29.7090909 C18.853574,29.7090909 18.3781818,29.2336987 18.3781818,28.6472727 L18.3781818,24.4290909 C18.3781818,23.8426649 18.853574,23.3672727 19.44,23.3672727 L28.6472727,23.3672727 C29.2336987,23.3672727 29.7090909,23.8426649 29.7090909,24.4290909 L29.7090909,28.6472727 Z" id="Shape"></path>
                                    <path d="M12.0872727,0 L2.90909091,0 C1.30244436,-9.83787274e-17 1.96757455e-16,1.30244436 0,2.90909091 L0,5.51272727 C1.96757455e-16,7.11937382 1.30244436,8.42181818 2.90909091,8.42181818 L12.0872727,8.42181818 C13.6939193,8.42181818 14.9963636,7.11937382 14.9963636,5.51272727 L14.9963636,2.90909091 C14.9963636,1.30244436 13.6939193,9.83787274e-17 12.0872727,0 Z M13.1490909,5.51272727 C13.1333307,6.08776199 12.6625233,6.54567048 12.0872727,6.54545455 L2.90909091,6.54545455 C2.62744972,6.55327652 2.3542467,6.44884173 2.14963801,6.25514551 C1.94502933,6.06144928 1.82579239,5.79437425 1.81818182,5.51272727 L1.81818182,2.90909091 C1.81007326,2.61735357 1.92240216,2.33514038 2.12877127,2.12877127 C2.33514038,1.92240216 2.61735357,1.81007326 2.90909091,1.81818182 L12.0872727,1.81818182 C12.373998,1.81807419 12.6485796,1.93392849 12.8485669,2.13939491 C13.0485542,2.34486133 13.1569464,2.62247327 13.1490909,2.90909091 L13.1490909,5.51272727 Z" id="Shape"></path>
                                    <path d="M17.4545455,9.25090909 C17.6956514,9.25090909 17.9268822,9.15513015 18.0973698,8.98464253 C18.2678574,8.81415491 18.3636364,8.58292408 18.3636364,8.34181818 L18.3636364,8.18909091 C18.3636364,7.68701386 17.9566225,7.28 17.4545455,7.28 C16.9524684,7.28 16.5454545,7.68701386 16.5454545,8.18909091 L16.5454545,8.34181818 C16.5454545,8.84389523 16.9524684,9.25090909 17.4545455,9.25090909 L17.4545455,9.25090909 Z" id="Shape"></path>
                                    <path d="M28.6472727,0 L19.44,0 C17.8333535,-9.83787274e-17 16.5309091,1.30244436 16.5309091,2.90909091 L16.5309091,5.52727273 C16.5309091,6.02934977 16.937923,6.43636364 17.44,6.43636364 C17.942077,6.43636364 18.3490909,6.02934977 18.3490909,5.52727273 L18.3490909,2.90909091 C18.3409824,2.61735357 18.4533112,2.33514038 18.6596804,2.12877127 C18.8660495,1.92240216 19.1482627,1.81007326 19.44,1.81818182 L28.6472727,1.81818182 C28.933998,1.81807419 29.2085796,1.93392849 29.4085669,2.13939491 C29.6085542,2.34486133 29.7169464,2.62247327 29.7090909,2.90909091 L29.7090909,17.0836364 C29.7090909,17.6700624 29.2336987,18.1454545 28.6472727,18.1454545 L19.44,18.1454545 C19.1583883,18.1454545 18.8883107,18.0335847 18.6891812,17.8344552 C18.4900516,17.6353257 18.3781818,17.3652481 18.3781818,17.0836364 L18.3781818,10.9527273 C18.3781818,10.4506502 17.971168,10.0436364 17.4690909,10.0436364 C16.9670139,10.0436364 16.56,10.4506502 16.56,10.9527273 L16.56,17.0836364 C16.56,18.6902829 17.8624444,19.9927273 19.4690909,19.9927273 L28.6472727,19.9927273 C30.2539193,19.9927273 31.5563636,18.6902829 31.5563636,17.0836364 L31.5563636,2.90909091 C31.5563636,1.30244436 30.2539193,9.83787274e-17 28.6472727,0 Z" id="Shape"></path>
                                    <path d="M12.0872727,9.98545455 L2.90909091,9.98545455 C1.30244436,9.98545455 8.32119183e-17,11.2878989 -1.13545537e-16,12.8945455 L-1.13545537e-16,21.6509091 C-5.2058832e-17,22.1529861 0.407013864,22.56 0.909090909,22.56 C1.41116795,22.56 1.81818182,22.1529861 1.81818182,21.6509091 L1.81818182,12.8654545 C1.81807419,12.5787293 1.93392849,12.3041477 2.13939491,12.1041604 C2.34486133,11.9041731 2.62247327,11.7957809 2.90909091,11.8036364 L12.0872727,11.8036364 C12.6736987,11.8036364 13.1490909,12.2790286 13.1490909,12.8654545 L13.1490909,28.6472727 C13.1490909,29.2336987 12.6736987,29.7090909 12.0872727,29.7090909 L2.90909091,29.7090909 C2.62247327,29.7169464 2.34486133,29.6085542 2.13939491,29.4085669 C1.93392849,29.2085796 1.81807419,28.933998 1.81818182,28.6472727 L1.81818182,27.1927273 C1.81818182,26.6906502 1.41116795,26.2836364 0.909090909,26.2836364 C0.407013864,26.2836364 -3.5484693e-16,26.6906502 -4.16333634e-16,27.1927273 L-4.16333634e-16,28.6472727 C-2.39762053e-16,30.2539193 1.30244436,31.5563636 2.90909091,31.5563636 L12.0872727,31.5563636 C13.6939193,31.5563636 14.9963636,30.2539193 14.9963636,28.6472727 L14.9963636,12.8654545 C14.9804101,11.2701802 13.6826268,9.98537478 12.0872727,9.98545455 L12.0872727,9.98545455 Z" id="Shape"></path>
                                    <path d="M0.909090909,25.92 C1.41116795,25.92 1.81818182,25.5129861 1.81818182,25.0109091 L1.81818182,24.5890909 C1.81818182,24.0870139 1.41116795,23.68 0.909090909,23.68 C0.407013864,23.68 6.14867046e-17,24.0870139 0,24.5890909 L0,25.0109091 C6.14867046e-17,25.5129861 0.407013864,25.92 0.909090909,25.92 Z" id="Shape"></path>
                                </g>
                            </g>
                        </g>
                    </g>
                </g>
            </g>
        </g>
    </g>
</svg>