<?xml version="1.0" encoding="UTF-8" standalone="no"?>
<svg width="32px" height="32px" viewBox="0 0 32 32" version="1.1" xmlns="http://www.w3.org/2000/svg" xmlns:xlink="http://www.w3.org/1999/xlink">
    <!-- Generator: Sketch 41.2 (35397) - http://www.bohemiancoding.com/sketch -->
    <title>Dispatch Management - Inactive</title>
    <desc>Created with Sketch.</desc>
    <defs></defs>
    <g id="Symbols" stroke="none" stroke-width="1" fill="none" fill-rule="evenodd">
        <g id="Dispatch-Management---Inactive" fill="#929292">
            <g id="Page-1">
                <path d="M27.5614345,30.3591172 L4.00777931,30.3591172 L4.00777931,29.7069793 L4.85743448,29.7069793 L26.7117793,29.7069793 L27.5614345,29.7069793 L27.5614345,30.3591172 Z M5.54708966,27.4576 L6.46350345,27.4576 L14.0833655,27.4576 C14.1214345,27.4642207 14.1556414,27.4802207 14.1953655,27.4802207 L17.3738483,27.4802207 C17.4135724,27.4802207 17.448331,27.4642207 17.4858483,27.4576 L25.1057103,27.4576 L26.0221241,27.4576 L26.0221241,28.327669 L5.54708966,28.327669 L5.54708966,27.4576 Z M14.7266759,16.5461517 C14.7266759,18.2785655 13.4858483,19.7273931 11.8466759,20.0496 L11.8466759,13.0427034 C13.4858483,13.3649103 14.7266759,14.8131862 14.7266759,16.5461517 L14.7266759,16.5461517 Z M16.8425379,16.5461517 C16.8425379,14.8131862 18.0833655,13.3649103 19.7230897,13.0427034 L19.7230897,20.0496 C18.0833655,19.7273931 16.8425379,18.2785655 16.8425379,16.5461517 L16.8425379,16.5461517 Z M14.8850207,26.0788414 L16.6841931,26.0788414 L16.6841931,24.9433931 L14.8850207,24.9433931 L14.8850207,26.0788414 Z M8.82433103,10.7166345 C8.89108966,9.97015172 9.12391724,9.43166897 9.51674483,9.11663448 C10.0519172,8.6873931 10.7542621,8.77401379 10.756469,8.77401379 C10.7901241,8.77897931 10.8237793,8.78173793 10.8579862,8.78173793 L20.7112276,8.78173793 C20.7410207,8.78173793 20.7774345,8.77897931 20.8066759,8.77511724 C20.8144,8.77235862 21.5184,8.68849655 22.0519172,9.11663448 C22.4447448,9.43166897 22.6775724,9.97015172 22.7448828,10.7166345 C22.9672276,13.2098759 24.0331586,23.2220138 24.3382621,26.0782897 L18.0635034,26.0782897 L18.0635034,24.2537379 C18.0635034,23.8724966 17.7550897,23.5640828 17.3738483,23.5640828 L16.4745379,23.5640828 L16.4745379,22.8633931 L17.3738483,22.8633931 C17.7550897,22.8633931 18.0635034,22.5544276 18.0635034,22.1737379 C18.0635034,21.7930483 17.7550897,21.4840828 17.3738483,21.4840828 L16.4745379,21.4840828 L16.4745379,19.5320828 C17.3793655,20.7227034 18.8055724,21.4962207 20.4127448,21.4962207 C20.7934345,21.4962207 21.1024,21.1872552 21.1024,20.8065655 L21.1024,12.2862897 C21.1024,11.9056 20.7934345,11.5966345 20.4127448,11.5966345 C18.296331,11.5966345 16.4910897,12.9345655 15.7848828,14.807669 C15.0786759,12.9345655 13.2734345,11.5966345 11.1570207,11.5966345 C10.7757793,11.5966345 10.4673655,11.9056 10.4673655,12.2862897 L10.4673655,20.8065655 C10.4673655,21.1872552 10.7757793,21.4962207 11.1570207,21.4962207 C12.7641931,21.4962207 14.1909517,20.7221517 15.0952276,19.531531 L15.0952276,21.4840828 L14.1953655,21.4840828 C13.8146759,21.4840828 13.5057103,21.7930483 13.5057103,22.1737379 C13.5057103,22.5544276 13.8146759,22.8633931 14.1953655,22.8633931 L15.0952276,22.8633931 L15.0952276,23.5640828 L14.1953655,23.5640828 C13.8146759,23.5640828 13.5057103,23.8724966 13.5057103,24.2537379 L13.5057103,26.0782897 L7.2304,26.0782897 C7.53550345,23.2220138 8.60143448,13.2098759 8.82433103,10.7166345 L8.82433103,10.7166345 Z M28.2510897,28.327669 L27.4014345,28.327669 L27.4014345,26.7679448 C27.4014345,26.3872552 27.092469,26.0782897 26.7117793,26.0782897 L25.7258483,26.0782897 C25.4433655,23.4393931 24.3437793,13.1216 24.1186759,10.5941517 C24.0160552,9.44822069 23.604469,8.58311724 22.8949517,8.02477241 C21.9917793,7.31415172 20.9468138,7.37318621 20.6687448,7.40242759 L10.900469,7.40242759 C10.6201931,7.37208276 9.57633103,7.31415172 8.67371034,8.02532414 C7.9641931,8.58366897 7.5526069,9.44822069 7.45053793,10.5941517 C7.22488276,13.1216 6.12474483,23.4393931 5.84336552,26.0782897 L4.85743448,26.0782897 C4.4761931,26.0782897 4.16777931,26.3872552 4.16777931,26.7679448 L4.16777931,28.327669 L3.31812414,28.327669 C2.93688276,28.327669 2.62846897,28.6366345 2.62846897,29.0173241 L2.62846897,31.0487724 C2.62846897,31.4294621 2.93688276,31.7384276 3.31812414,31.7384276 L28.2510897,31.7384276 C28.6317793,31.7384276 28.9407448,31.4294621 28.9407448,31.0487724 L28.9407448,29.0173241 C28.9407448,28.6366345 28.6317793,28.327669 28.2510897,28.327669 L28.2510897,28.327669 Z" id="Fill-1"></path>
                <path d="M15.8146759,6.9113931 C16.1953655,6.9113931 16.504331,6.60242759 16.504331,6.22173793 L16.504331,0.6896 C16.504331,0.308910345 16.1953655,-5.51724138e-05 15.8146759,-5.51724138e-05 C15.4339862,-5.51724138e-05 15.1250207,0.308910345 15.1250207,0.6896 L15.1250207,6.22173793 C15.1250207,6.60242759 15.4339862,6.9113931 15.8146759,6.9113931" id="Fill-3"></path>
                <path d="M25.0969931,7.77451034 C25.2696828,7.77451034 25.4429241,7.70995862 25.5764414,7.58030345 L30.3587862,2.95078621 C30.6324414,2.6854069 30.6396138,2.2489931 30.3747862,1.97533793 C30.1099586,1.70168276 29.6724414,1.69506207 29.3998897,1.95933793 L24.6175448,6.5894069 C24.3438897,6.85423448 24.3367172,7.29064828 24.6015448,7.56430345 C24.7367172,7.70444138 24.917131,7.77451034 25.0969931,7.77451034" id="Fill-5"></path>
                <path d="M6.05335172,7.58057931 C6.18686897,7.70968276 6.36011034,7.77478621 6.5328,7.77478621 C6.71266207,7.77478621 6.89307586,7.70471724 7.0288,7.56457931 C7.29307586,7.29092414 7.28590345,6.85451034 7.01224828,6.58913103 L2.22935172,1.95961379 C1.9568,1.69533793 1.51928276,1.70195862 1.25445517,1.97506207 C0.989627586,2.24926897 0.9968,2.68568276 1.27045517,2.95051034 L6.05335172,7.58057931 Z" id="Fill-7"></path>
                <path d="M6.12662069,15.9808552 C6.12662069,15.6001655 5.81765517,15.2912 5.43696552,15.2912 L0.689931034,15.2912 C0.308689655,15.2912 0.000275862069,15.6001655 0.000275862069,15.9808552 C0.000275862069,16.3615448 0.308689655,16.6705103 0.689931034,16.6705103 L5.43696552,16.6705103 C5.81765517,16.6705103 6.12662069,16.3615448 6.12662069,15.9808552" id="Fill-9"></path>
                <path d="M30.9401931,15.2912 L26.1931586,15.2912 C25.8119172,15.2912 25.5035034,15.6001655 25.5035034,15.9808552 C25.5035034,16.3615448 25.8119172,16.6705103 26.1931586,16.6705103 L30.9401931,16.6705103 C31.3208828,16.6705103 31.6298483,16.3615448 31.6298483,15.9808552 C31.6298483,15.6001655 31.3208828,15.2912 30.9401931,15.2912" id="Fill-11"></path>
            </g>
        </g>
    </g>
</svg>