<?xml version="1.0" encoding="UTF-8" standalone="no"?>
<svg width="32px" height="32px" viewBox="0 0 32 32" version="1.1" xmlns="http://www.w3.org/2000/svg" xmlns:xlink="http://www.w3.org/1999/xlink">
    <!-- Generator: Sketch 41.2 (35397) - http://www.bohemiancoding.com/sketch -->
    <title>Dispatch Management - Active</title>
    <desc>Created with Sketch.</desc>
    <defs>
        <polygon id="path-1" points="0 31.7384276 31.6297931 31.7384276 31.6297931 -5.51724138e-05 0 -5.51724138e-05"></polygon>
    </defs>
    <g id="Symbols" stroke="none" stroke-width="1" fill="none" fill-rule="evenodd">
        <g id="Dispatch-Management---Active">
            <g id="Page-1">
                <path d="M23.4315586,10.6547862 C23.1700414,7.72513103 20.7110069,8.09147586 20.7110069,8.09147586 L15.7846621,8.09147586 L10.8577655,8.09147586 C10.8577655,8.09147586 8.39873103,7.72513103 8.13721379,10.6547862 C7.87624828,13.5849931 6.46328276,26.7678897 6.46328276,26.7678897 L15.7846621,26.7678897 L25.1054897,26.7678897 C25.1054897,26.7678897 23.6930759,13.5849931 23.4315586,10.6547862 Z" id="Fill-1" fill="#E15944"></path>
                <mask id="mask-2" fill="white">
                    <use xlink:href="#path-1"></use>
                </mask>
                <g id="Clip-4"></g>
                <polygon id="Fill-3" fill="#595959" mask="url(#mask-2)" points="4.85737931 29.0173241 26.7117241 29.0173241 26.7117241 26.7679448 4.85737931 26.7679448"></polygon>
                <polygon id="Fill-5" fill="#444444" mask="url(#mask-2)" points="3.31806897 31.0482207 28.2510345 31.0482207 28.2510345 29.0173241 3.31806897 29.0173241"></polygon>
                <path d="M11.1568,12.2862345 L11.1568,20.8054069 C13.5099034,20.8054069 15.4166621,18.8980966 15.4166621,16.5460966 C15.4166621,14.1929931 13.5099034,12.2862345 11.1568,12.2862345" id="Fill-6" fill="#A03025" mask="url(#mask-2)"></path>
                <path d="M20.4126897,12.2862345 L20.4126897,20.8054069 C18.0601379,20.8054069 16.1528276,18.8980966 16.1528276,16.5460966 C16.1528276,14.1929931 18.0601379,12.2862345 20.4126897,12.2862345" id="Fill-7" fill="#A03025" mask="url(#mask-2)"></path>
                <path d="M14.8849655,26.1009103 L16.6841379,26.1009103 L16.6841379,24.9422897 L14.8849655,24.9422897 L14.8849655,26.1009103 Z M17.3737931,27.4802207 L14.1953103,27.4802207 C13.8146207,27.4802207 13.5056552,27.1712552 13.5056552,26.7905655 L13.5056552,24.2526345 C13.5056552,23.8719448 13.8146207,23.5629793 14.1953103,23.5629793 L17.3737931,23.5629793 C17.7550345,23.5629793 18.0634483,23.8719448 18.0634483,24.2526345 L18.0634483,26.7905655 C18.0634483,27.1712552 17.7550345,27.4802207 17.3737931,27.4802207 L17.3737931,27.4802207 Z" id="Fill-8" fill="#A03025" mask="url(#mask-2)"></path>
                <path d="M15.7850483,24.9425103 C15.4043586,24.9425103 15.0953931,24.6335448 15.0953931,24.2528552 L15.0953931,16.5458207 C15.0953931,16.165131 15.4043586,15.8561655 15.7850483,15.8561655 C16.1657379,15.8561655 16.4747034,16.165131 16.4747034,16.5458207 L16.4747034,24.2528552 C16.4747034,24.6335448 16.1657379,24.9425103 15.7850483,24.9425103" id="Fill-9" fill="#A03025" mask="url(#mask-2)"></path>
                <path d="M17.3739034,22.8632828 L14.1954207,22.8632828 C13.814731,22.8632828 13.5057655,22.5543172 13.5057655,22.1736276 C13.5057655,21.7929379 13.814731,21.4839724 14.1954207,21.4839724 L17.3739034,21.4839724 C17.7545931,21.4839724 18.0635586,21.7929379 18.0635586,22.1736276 C18.0635586,22.5543172 17.7545931,22.8632828 17.3739034,22.8632828" id="Fill-10" fill="#A03025" mask="url(#mask-2)"></path>
                <path d="M27.5614345,30.3590069 L4.00777931,30.3590069 L4.00777931,29.706869 L4.85743448,29.706869 L26.7117793,29.706869 L27.5614345,29.706869 L27.5614345,30.3590069 Z M5.54708966,27.4574897 L6.46350345,27.4574897 L14.0833655,27.4574897 C14.1214345,27.4641103 14.1556414,27.4801103 14.1953655,27.4801103 L17.3738483,27.4801103 C17.4135724,27.4801103 17.448331,27.4641103 17.4858483,27.4574897 L25.1057103,27.4574897 L26.0221241,27.4574897 L26.0221241,28.3275586 L5.54708966,28.3275586 L5.54708966,27.4574897 Z M14.7266759,16.5460414 C14.7266759,18.2784552 13.4858483,19.7272828 11.8466759,20.0494897 L11.8466759,13.0425931 C13.4858483,13.3648 14.7266759,14.8130759 14.7266759,16.5460414 L14.7266759,16.5460414 Z M16.8425379,16.5460414 C16.8425379,14.8130759 18.0833655,13.3648 19.7230897,13.0425931 L19.7230897,20.0494897 C18.0833655,19.7272828 16.8425379,18.2784552 16.8425379,16.5460414 L16.8425379,16.5460414 Z M14.8850207,26.078731 L16.6841931,26.078731 L16.6841931,24.9432828 L14.8850207,24.9432828 L14.8850207,26.078731 Z M8.82433103,10.7165241 C8.89108966,9.97004138 9.12391724,9.43155862 9.51674483,9.11652414 C10.0519172,8.68728276 10.7542621,8.77390345 10.756469,8.77390345 C10.7901241,8.77886897 10.8237793,8.78162759 10.8579862,8.78162759 L20.7112276,8.78162759 C20.7410207,8.78162759 20.7774345,8.77886897 20.8066759,8.7750069 C20.8144,8.77224828 21.5184,8.68838621 22.0519172,9.11652414 C22.4447448,9.43155862 22.6775724,9.97004138 22.7448828,10.7165241 C22.9672276,13.2097655 24.0331586,23.2219034 24.3382621,26.0781793 L18.0635034,26.0781793 L18.0635034,24.2536276 C18.0635034,23.8723862 17.7550897,23.5639724 17.3738483,23.5639724 L16.4745379,23.5639724 L16.4745379,22.8632828 L17.3738483,22.8632828 C17.7550897,22.8632828 18.0635034,22.5543172 18.0635034,22.1736276 C18.0635034,21.7929379 17.7550897,21.4839724 17.3738483,21.4839724 L16.4745379,21.4839724 L16.4745379,19.5319724 C17.3793655,20.7225931 18.8055724,21.4961103 20.4127448,21.4961103 C20.7934345,21.4961103 21.1024,21.1871448 21.1024,20.8064552 L21.1024,12.2861793 C21.1024,11.9054897 20.7934345,11.5965241 20.4127448,11.5965241 C18.296331,11.5965241 16.4910897,12.9350069 15.7848828,14.8075586 C15.0786759,12.9350069 13.2734345,11.5965241 11.1570207,11.5965241 C10.7757793,11.5965241 10.4673655,11.9054897 10.4673655,12.2861793 L10.4673655,20.8064552 C10.4673655,21.1871448 10.7757793,21.4961103 11.1570207,21.4961103 C12.7641931,21.4961103 14.1909517,20.7220414 15.0952276,19.5314207 L15.0952276,21.4839724 L14.1953655,21.4839724 C13.8146759,21.4839724 13.5057103,21.7929379 13.5057103,22.1736276 C13.5057103,22.5543172 13.8146759,22.8632828 14.1953655,22.8632828 L15.0952276,22.8632828 L15.0952276,23.5639724 L14.1953655,23.5639724 C13.8146759,23.5639724 13.5057103,23.8723862 13.5057103,24.2536276 L13.5057103,26.0781793 L7.2304,26.0781793 C7.53550345,23.2219034 8.60143448,13.2097655 8.82433103,10.7165241 L8.82433103,10.7165241 Z M28.2510897,28.3275586 L27.4014345,28.3275586 L27.4014345,26.7678345 C27.4014345,26.3871448 27.092469,26.0781793 26.7117793,26.0781793 L25.7258483,26.0781793 C25.4433655,23.4392828 24.3437793,13.1214897 24.1186759,10.5940414 C24.0160552,9.44811034 23.604469,8.5830069 22.8949517,8.02466207 C21.9917793,7.31404138 20.9468138,7.37307586 20.6687448,7.40231724 L10.900469,7.40231724 C10.6201931,7.37197241 9.57633103,7.31404138 8.67371034,8.02521379 C7.9641931,8.58355862 7.5526069,9.44811034 7.45053793,10.5940414 C7.22488276,13.1214897 6.12474483,23.4392828 5.84336552,26.0781793 L4.85743448,26.0781793 C4.4761931,26.0781793 4.16777931,26.3871448 4.16777931,26.7678345 L4.16777931,28.3275586 L3.31812414,28.3275586 C2.93688276,28.3275586 2.62846897,28.6365241 2.62846897,29.0172138 L2.62846897,31.0486621 C2.62846897,31.4293517 2.93688276,31.7383172 3.31812414,31.7383172 L28.2510897,31.7383172 C28.6317793,31.7383172 28.9407448,31.4293517 28.9407448,31.0486621 L28.9407448,29.0172138 C28.9407448,28.6365241 28.6317793,28.3275586 28.2510897,28.3275586 L28.2510897,28.3275586 Z" id="Fill-11" fill="#211F1F" mask="url(#mask-2)"></path>
                <path d="M15.8146759,6.91122759 C16.1953655,6.91122759 16.504331,6.60226207 16.504331,6.22157241 L16.504331,0.689986207 C16.504331,0.308744828 16.1953655,0.000331034483 15.8146759,0.000331034483 C15.4339862,0.000331034483 15.1250207,0.308744828 15.1250207,0.689986207 L15.1250207,6.22157241 C15.1250207,6.60226207 15.4339862,6.91122759 15.8146759,6.91122759" id="Fill-12" fill="#211F1F" mask="url(#mask-2)"></path>
                <path d="M25.0969931,7.7744 C25.2696828,7.7744 25.4429241,7.70984828 25.5764414,7.5801931 L30.3587862,2.95067586 C30.6324414,2.68529655 30.6396138,2.24888276 30.3747862,1.97522759 C30.1099586,1.70157241 29.6724414,1.69495172 29.3998897,1.95977931 L24.6175448,6.58929655 C24.3438897,6.85412414 24.3367172,7.29053793 24.6015448,7.5641931 C24.7367172,7.70433103 24.917131,7.7744 25.0969931,7.7744" id="Fill-13" fill="#211F1F" mask="url(#mask-2)"></path>
                <path d="M6.05335172,7.58041379 C6.18686897,7.70951724 6.36011034,7.77462069 6.5328,7.77462069 C6.71266207,7.77462069 6.89307586,7.70455172 7.0288,7.56441379 C7.29307586,7.29075862 7.28590345,6.85434483 7.01224828,6.58896552 L2.22935172,1.95944828 C1.9568,1.69517241 1.51928276,1.7017931 1.25445517,1.97544828 C0.989627586,2.24910345 0.9968,2.68551724 1.27045517,2.95034483 L6.05335172,7.58041379 Z" id="Fill-14" fill="#211F1F" mask="url(#mask-2)"></path>
                <path d="M6.12662069,15.9807448 C6.12662069,15.6000552 5.81765517,15.2910897 5.43696552,15.2910897 L0.689931034,15.2910897 C0.308689655,15.2910897 0.000275862069,15.6000552 0.000275862069,15.9807448 C0.000275862069,16.3614345 0.308689655,16.6704 0.689931034,16.6704 L5.43696552,16.6704 C5.81765517,16.6704 6.12662069,16.3614345 6.12662069,15.9807448" id="Fill-15" fill="#211F1F" mask="url(#mask-2)"></path>
                <path d="M30.9401931,15.2910897 L26.1931586,15.2910897 C25.8119172,15.2910897 25.5035034,15.6000552 25.5035034,15.9807448 C25.5035034,16.3614345 25.8119172,16.6704 26.1931586,16.6704 L30.9401931,16.6704 C31.3208828,16.6704 31.6298483,16.3614345 31.6298483,15.9807448 C31.6298483,15.6000552 31.3208828,15.2910897 30.9401931,15.2910897" id="Fill-16" fill="#211F1F" mask="url(#mask-2)"></path>
            </g>
        </g>
    </g>
</svg>