<?xml version="1.0" encoding="UTF-8" standalone="no"?>
<svg width="68px" height="40px" viewBox="0 0 68 40" version="1.1" xmlns="http://www.w3.org/2000/svg" xmlns:xlink="http://www.w3.org/1999/xlink">
    <!-- Generator: Sketch 41.2 (35397) - http://www.bohemiancoding.com/sketch -->
    <title>Download button</title>
    <desc>Created with Sketch.</desc>
    <defs>
        <rect id="path-1" x="0" y="-2.84217094e-14" width="68" height="40" rx="5"></rect>
        <filter x="-50%" y="-50%" width="200%" height="200%" filterUnits="objectBoundingBox" id="filter-2">
            <feOffset dx="0" dy="-2" in="SourceAlpha" result="shadowOffsetInner1"></feOffset>
            <feComposite in="shadowOffsetInner1" in2="SourceAlpha" operator="arithmetic" k2="-1" k3="1" result="shadowInnerInner1"></feComposite>
            <feColorMatrix values="0 0 0 0 0   0 0 0 0 0   0 0 0 0 0  0 0 0 0.15 0" type="matrix" in="shadowInnerInner1"></feColorMatrix>
        </filter>
        <polygon id="path-3" points="8.48220882 7.82608696 0 7.82608696 0 0.519652174 16.9644176 0.519652174 16.9644176 7.82608696 8.48220882 7.82608696"></polygon>
    </defs>
    <g id="Symbols" stroke="none" stroke-width="1" fill="none" fill-rule="evenodd">
        <g id="Download-button">
            <g id="Download">
                <g transform="translate(34.000000, 20.000000) scale(-1, 1) translate(-34.000000, -20.000000) ">
                    <use fill="#3AB54A" fill-rule="evenodd" xlink:href="#path-1"></use>
                    <use fill="black" fill-opacity="1" filter="url(#filter-2)" xlink:href="#path-1"></use>
                </g>
                <g id="download-button" transform="translate(21.000000, 8.000000)">
                    <g id="Group-3" transform="translate(0.000000, 15.984887)">
                        <mask id="mask-4" fill="white">
                            <use xlink:href="#path-3"></use>
                        </mask>
                        <g id="Clip-2"></g>
                        <path d="M16.9644176,7.04347826 C16.9644176,6.61147826 16.6086529,6.26086957 16.1703,6.26086957 L3.83818235,6.26086957 C2.59724118,6.26086957 1.58818235,5.26591304 1.58818235,4.04295652 L1.58818235,1.30226087 C1.58818235,0.87026087 1.23241765,0.519652174 0.794064706,0.519652174 C0.355711765,0.519652174 -5.29411766e-05,0.87026087 -5.29411766e-05,1.30226087 L-5.29411766e-05,4.04295652 C-5.29411766e-05,6.12886957 1.72159412,7.82608696 3.83818235,7.82608696 L16.1703,7.82608696 C16.6086529,7.82608696 16.9644176,7.47547826 16.9644176,7.04347826" id="Fill-1" fill="#FFFFFF" mask="url(#mask-4)"></path>
                    </g>
                    <path d="M20.3730353,23.0283652 C20.3730353,22.5963652 20.0172706,22.2457565 19.5789176,22.2457565 L19.0495059,22.2457565 C18.6111529,22.2457565 18.2553882,22.5963652 18.2553882,23.0283652 C18.2553882,23.4603652 18.6111529,23.8109739 19.0495059,23.8109739 L19.5789176,23.8109739 C20.0172706,23.8109739 20.3730353,23.4603652 20.3730353,23.0283652" id="Fill-4" fill="#FFFFFF"></path>
                    <g id="Group-8" transform="translate(20.117647, 15.984887)" fill="#FFFFFF">
                        <path d="M4.96683529,1.30231304 L4.96683529,4.0430087 C4.96683529,5.26596522 3.95777647,6.26092174 2.71683529,6.26092174 L1.22601176,6.26092174 C0.787129412,6.26092174 0.431894118,6.61153043 0.431894118,7.04353043 C0.431894118,7.47553043 0.787129412,7.82613913 1.22601176,7.82613913 L2.71683529,7.82613913 C4.83342353,7.82613913 6.55507059,6.12892174 6.55507059,4.0430087 L6.55507059,1.30231304 C6.55507059,0.870313043 6.19930588,0.519704348 5.76095294,0.519704348 C5.3226,0.519704348 4.96683529,0.870313043 4.96683529,1.30231304" id="Fill-6"></path>
                    </g>
                    <path d="M13.0470882,17.7197739 C13.1370882,17.7542087 13.2345,17.7750783 13.3366765,17.7750783 C13.4388529,17.7750783 13.5362647,17.7542087 13.6262647,17.7197739 C13.6305,17.7182087 13.6342059,17.717687 13.6384412,17.7161217 C13.7363824,17.6764696 13.8247941,17.6185565 13.8978529,17.5460348 L18.4963235,13.0142087 C18.8065588,12.7089913 18.8065588,12.2133391 18.4963235,11.9076 C18.1860882,11.6018609 17.6836765,11.6018609 17.3734412,11.9076 L14.1307941,15.1032522 L14.1307941,0.782556522 C14.1307941,0.350556522 13.7750294,-5.2173913e-05 13.3366765,-5.2173913e-05 C12.8983235,-5.2173913e-05 12.5425588,0.350556522 12.5425588,0.782556522 L12.5425588,15.1032522 L7.53802941,10.1712522 C7.22779412,9.86551304 6.72538235,9.86551304 6.41514706,10.1712522 C6.26002941,10.3241217 6.18220588,10.5244696 6.18220588,10.7248174 C6.18220588,10.9251652 6.26002941,11.1249913 6.41514706,11.2778609 L12.7749706,17.5460348 C12.8485588,17.6185565 12.9369706,17.6764696 13.0349118,17.7161217 C13.0386176,17.717687 13.0428529,17.7182087 13.0470882,17.7197739" id="Fill-9" fill="#FFFFFF"></path>
                    <path d="M18.8933824,10.4093217 C18.7382647,10.5621913 18.6609706,10.7625391 18.6609706,10.962887 C18.6609706,11.162713 18.7382647,11.3630609 18.8933824,11.5159304 C19.2036176,11.8216696 19.7060294,11.8216696 20.0162647,11.5159304 L20.2576765,11.2780174 C20.5679118,10.9722783 20.5679118,10.4771478 20.2576765,10.1714087 C19.9474412,9.86566957 19.4450294,9.86566957 19.1347941,10.1714087 L18.8933824,10.4093217 Z" id="Fill-11" fill="#FFFFFF"></path>
                </g>
            </g>
        </g>
    </g>
</svg>