<?xml version="1.0" encoding="UTF-8" standalone="no"?>
<svg width="40px" height="29px" viewBox="0 0 40 29" version="1.1" xmlns="http://www.w3.org/2000/svg" xmlns:xlink="http://www.w3.org/1999/xlink">
    <!-- Generator: Sketch 41.2 (35397) - http://www.bohemiancoding.com/sketch -->
    <title>Feed - Active</title>
    <desc>Created with Sketch.</desc>
    <defs></defs>
    <g id="Page-1" stroke="none" stroke-width="1" fill="none" fill-rule="evenodd">
        <g id="Web-app-Nav---Inactive" transform="translate(-30.000000, -713.000000)" fill="#929292">
            <g id="Sidebar" transform="translate(17.000000, 48.000000)">
                <g id="Feed---Active" transform="translate(13.000000, 665.000000)">
                    <g id="Feed---Iactive">
                        <g id="Asset-1">
                            <g id="Layer_2">
                                <g id="Layer_1-2">
                                    <path d="M20.4399565,4.65269565 L10.3131449,4.65269565 C10.1054417,4.65412059 9.90681311,4.7378519 9.76095767,4.88546856 C9.61510223,5.03308523 9.53396842,5.2324945 9.5354058,5.43982609 L9.5354058,12.718087 C9.53396842,12.9254185 9.61510223,13.1248278 9.76095767,13.2724445 C9.90681311,13.4200611 10.1054417,13.5037924 10.3131449,13.5052174 L20.4399565,13.5052174 C20.6476597,13.5037924 20.8462883,13.4200611 20.9921438,13.2724445 C21.1379992,13.1248278 21.219133,12.9254185 21.2176957,12.718087 L21.2176957,5.43982609 C21.219133,5.2324945 21.1379992,5.03308523 20.9921438,4.88546856 C20.8462883,4.7378519 20.6476597,4.65412059 20.4399565,4.65269565 Z" id="Shape"></path>
                                    <rect id="Rectangle-path" x="22.4113092" y="4.65269565" width="10.4859758" height="1.41521739" rx="0.707608696"></rect>
                                    <path d="M8.12035266,24.2743478 L8.12035266,22.4655652 C8.12035266,22.2849565 8.34449275,22.1393913 8.61994203,22.1393913 L33.8073478,22.1393913 C34.0773961,22.1393913 34.3042367,22.2849565 34.3069372,22.4655652 L34.3069372,24.2716522 C34.3069372,24.4522609 34.0827971,24.6005217 33.8073478,24.6005217 L8.61724155,24.6005217 C8.34179227,24.6032174 8.11765217,24.4576522 8.12035266,24.2743478 Z M4.40178744,17.1766957 C4.43172954,16.978515 4.33221603,16.78324 4.15411973,16.6906982 C3.97602343,16.5981563 3.75869916,16.6287971 3.61324638,16.7669565 C1.10989855,19.1553043 0.556299517,19.6270435 0.748033816,22.0450435 C0.896560386,23.932 1.58788406,26.2098261 0.310555556,29.0537391 C0.256109144,29.1728826 0.25435542,29.3093872 0.30572307,29.4298853 C0.357090719,29.5503833 0.456845844,29.6437699 0.580603865,29.6872174 L4.09123188,30.9110435 C4.21692449,30.9550686 4.35546659,30.9434417 4.47203088,30.8790856 C4.58859517,30.8147296 4.67209545,30.7037651 4.70154106,30.574087 C4.78795652,30.1913043 4.88517391,29.8085217 4.99049275,29.4473043 C5.90595652,26.4173913 7.13737681,26.3769565 7.13197585,23.6786087 L7.13197585,16.5998261 C7.13197585,15.2277391 5.36856039,15.0633043 5.18762802,16.3922609 C4.86086957,18.8695652 4.46389855,21.3414783 4.22625604,21.9210435 C4.02642029,22.3954783 3.43231401,22.1178261 3.53763285,21.6676522 C3.8643913,20.2982609 4.17764734,18.5676522 4.40178744,17.1766957 Z M38.8869565,21.6676522 C38.9922754,22.1178261 38.3981691,22.3954783 38.1983333,21.9210435 C37.9606908,21.3387826 37.5718213,18.8722609 37.2342609,16.3922609 C37.0533285,15.0633043 35.2845121,15.2277391 35.289913,16.5998261 L35.289913,23.6786087 C35.289913,26.3742609 36.5186329,26.4308696 37.4259952,29.4553913 C37.5340145,29.8166087 37.6312319,30.1966957 37.7149469,30.5821739 C37.7432868,30.7172711 37.8301239,30.8328963 37.9520876,30.8979313 C38.0740513,30.9629663 38.2186105,30.9707291 38.3468599,30.9191304 L41.8574879,29.6953043 C41.9812459,29.6518569 42.0810011,29.5584702 42.1323687,29.4379722 C42.1837364,29.3174742 42.1819826,29.1809695 42.1275362,29.0618261 C40.8502077,26.2071304 41.5415314,23.940087 41.6927585,22.0531304 C41.8844928,19.6270435 41.3308937,19.1633913 38.8275459,16.7750435 C38.6820931,16.6368841 38.4647688,16.6062433 38.2866725,16.6987851 C38.1085762,16.7913269 38.0090627,16.9866019 38.0390048,17.1847826 C38.2550435,18.5676522 38.5682995,20.2982609 38.8869565,21.6676522 Z" id="Shape"></path>
                                    <path d="M5.37396135,13.8098261 L5.37396135,3.10269565 C5.37396135,1.38912416 6.76557498,3.14777976e-16 8.48221739,0 L33.9531739,0 C34.7782509,-1.41257822e-15 35.5695348,0.327174216 36.1529524,0.909548055 C36.7363699,1.49192189 37.0641304,2.28179032 37.0641304,3.1053913 L37.0641304,13.8098261 C37.0634803,13.9432151 37.0059654,14.0700185 36.9059757,14.1585106 C36.805986,14.2470027 36.6729805,14.2888121 36.5402367,14.2734783 L36.2971932,14.2734783 C35.5734638,14.2734783 35.9488309,14.5673043 35.4384396,15.0821739 L35.4222367,15.0983478 C35.2949152,15.2444661 35.0896762,15.2955649 34.9085249,15.2262478 C34.7273736,15.1569307 34.6089421,14.9819802 34.6120918,14.7883478 L34.6120918,2.92747826 C34.620987,2.79943015 34.5769242,2.67333745 34.4901744,2.57859282 C34.4034247,2.48384819 34.281568,2.42873017 34.1530097,2.42608696 L8.28238164,2.42608696 C8.02287184,2.42608696 7.81249758,2.63608487 7.81249758,2.89513043 L7.81249758,14.756 C7.81564725,14.9496323 7.69721579,15.1245829 7.51606446,15.1939 C7.33491313,15.2632171 7.12967413,15.2121183 7.00235266,15.066 L6.98614976,15.0498261 C6.47575845,14.5403478 6.84842512,14.2411304 6.12739614,14.2411304 L5.88705314,14.2411304 C5.76145654,14.2530749 5.63632428,14.2141001 5.53981902,14.1329779 C5.44331375,14.0518557 5.38354387,13.9354019 5.37396135,13.8098261 Z" id="Shape"></path>
                                    <rect id="Rectangle-path" x="22.4113092" y="7.41573913" width="10.4859758" height="1.41521739" rx="0.707608696"></rect>
                                    <rect id="Rectangle-path" x="22.4113092" y="10.1787826" width="10.4859758" height="1.41521739" rx="0.707608696"></rect>
                                    <rect id="Rectangle-path" x="9.5354058" y="15.4838261" width="23.3618792" height="1.41521739" rx="0.707608696"></rect>
                                    <rect id="Rectangle-path" x="9.5354058" y="18.2468696" width="23.3618792" height="1.41521739" rx="0.707608696"></rect>
                                </g>
                            </g>
                        </g>
                    </g>
                </g>
            </g>
        </g>
    </g>
</svg>