<?xml version="1.0" encoding="UTF-8" standalone="no"?>
<svg width="43px" height="31px" viewBox="0 0 43 31" version="1.1" xmlns="http://www.w3.org/2000/svg" xmlns:xlink="http://www.w3.org/1999/xlink">
    <!-- Generator: Sketch 41.2 (35397) - http://www.bohemiancoding.com/sketch -->
    <title>Feed - Actove</title>
    <desc>Created with Sketch.</desc>
    <defs></defs>
    <g id="Symbols" stroke="none" stroke-width="1" fill="none" fill-rule="evenodd">
        <g id="Feed---Actove">
            <g id="Asset-15">
                <g id="Layer_2">
                    <g>
                        <g id="Layer_1-2">
                            <rect id="_Rectangle_" fill="#EFEFEF" x="7.15982406" y="1.64337194" width="27.9660397" height="20.9725561"></rect>
                            <rect id="_Rectangle_2" fill="#DBDBDB" opacity="0.381005131" x="21.5804606" y="1.64337194" width="13.5454031" height="20.9725561"></rect>
                            <path d="M38.0648874,20.7064864 C38.1658759,21.1421104 37.5961973,21.4107886 37.4045781,20.9516879 C37.1767067,20.3882461 36.8038262,18.001444 36.4801451,15.6015993 C36.3066521,14.3155955 34.6105636,14.4747157 34.6157425,15.8024558 L34.6157425,22.6524474 C34.6157425,25.2609743 35.7939414,25.3157534 36.663996,28.2425205 C36.7675739,28.5920631 36.860794,28.9598654 36.9410669,29.3328848 C36.9682416,29.4636155 37.0515083,29.5755037 37.1684572,29.6384367 C37.2854062,29.7013697 37.4240216,29.7088816 37.5469978,29.6589506 L40.9132803,28.4746794 C41.0319498,28.4326362 41.1276033,28.3422679 41.1768589,28.2256645 C41.2261145,28.109061 41.2244329,27.9769683 41.1722251,27.8616756 C39.9474162,25.0992456 40.6103149,22.9054745 40.755324,21.0795057 C40.9391748,18.7318315 40.4083379,18.2831649 38.0079195,15.9720101 C37.8684473,15.8383161 37.6600587,15.8086657 37.4892851,15.8982165 C37.3185115,15.9877673 37.2230897,16.1767308 37.2518007,16.3685062 C37.4589565,17.7066805 37.7593325,19.3813547 38.0648874,20.7064864 Z" id="Shape" fill="#F7D0AD"></path>
                            <path d="M41.4266309,15.8203125 C41.4266309,15.8203125 39.5311026,18.7349882 39.2544912,20.8782988 C38.9778799,23.0216093 39.1811893,27.3507231 40.2224286,29.6032585 C41.2636679,31.8557938 41.4266309,29.8216581 41.4266309,29.8216581 L36.8071521,28.3726835 L36.8071521,26.5466056 C36.8071521,26.5466056 37.5604093,25.0446577 37.5604093,24.8259077 C37.5604093,24.6071577 37.2796118,22.6791694 37.2796118,22.6791694 L36.6537934,19.5963611 L37.4313865,18.0027354 L38.3989139,16.835005 C38.3989139,16.835005 40.3413125,15.3414705 40.5299508,15.1900282 C40.7185892,15.0385859 41.6889965,15 41.6889965,15 L41.4266309,15.8203125 Z" id="Path-4" fill="#BC967A" transform="translate(39.171395, 22.832161) scale(-1, 1) translate(-39.171395, -22.832161) "></path>
                            <path d="M20.3763673,4.5023174 L10.6659368,4.5023174 C10.4667737,4.50369628 10.276312,4.58472133 10.1364537,4.72756693 C9.99659533,4.87041253 9.91879748,5.06337676 9.92017576,5.26400725 L9.92017576,12.3070298 C9.91879748,12.5076603 9.99659533,12.7006245 10.1364537,12.8434701 C10.276312,12.9863157 10.4667737,13.0673408 10.6659368,13.0687197 L20.3763673,13.0687197 C20.5755304,13.0673408 20.7659921,12.9863157 20.9058504,12.8434701 C21.0457088,12.7006245 21.1235066,12.5076603 21.1221283,12.3070298 L21.1221283,5.26400725 C21.1235066,5.06337676 21.0457088,4.87041253 20.9058504,4.72756693 C20.7659921,4.58472133 20.5755304,4.50369628 20.3763673,4.5023174 Z" id="Shape" fill="#B165F3"></path>
                            <rect id="Rectangle-path" fill="#75888E" x="22.264075" y="4.5023174" width="10.0548271" height="1.36947661" rx="0.684738306"></rect>
                            <rect id="Rectangle-path" fill="#75888E" x="22.264075" y="7.17605745" width="10.0548271" height="1.36947661" rx="0.684738306"></rect>
                            <rect id="Rectangle-path" fill="#75888E" x="22.264075" y="9.8497975" width="10.0548271" height="1.36947661" rx="0.684738306"></rect>
                            <rect id="Rectangle-path" fill="#75888E" x="9.92017576" y="14.9833784" width="22.4013157" height="1.36947661" rx="0.684738306"></rect>
                            <rect id="Rectangle-path" fill="#75888E" x="9.92017576" y="17.6571185" width="22.4013157" height="1.36947661" rx="0.684738306"></rect>
                            <g id="Group" opacity="0.0950909515" transform="translate(7.250455, 1.565116)" fill="#FFFFFF">
                                <polygon id="Shape" points="5.00799267 21.0455949 0.00258944812 21.0455949 7.42912666 0.0860813871 12.4371193 0.0860813871"></polygon>
                                <polygon id="Shape" points="6.90346869 21.0455949 6.04377192 21.0455949 13.4703091 0.0860813871 14.3300059 0.0860813871"></polygon>
                                <polygon id="Shape" points="8.62804114 21.0455949 7.76834437 21.0455949 15.197471 0.0860813871 16.0545784 0.0860813871"></polygon>
                                <polygon id="Shape" points="20.8605941 21.0455949 13.7473801 21.0455949 21.1765067 0.0860813871 28.2897207 0.0860813871"></polygon>
                            </g>
                            <path d="M8.4105275,23.4897846 L8.4105275,21.739463 C8.4105275,21.5646917 8.62804114,21.4238313 8.8947543,21.4238313 L33.3365551,21.4238313 C33.5954999,21.4238313 33.8207819,21.5646917 33.8207819,21.739463 L33.8207819,23.487176 C33.8207819,23.6619473 33.6032683,23.8054163 33.3365551,23.8054163 L8.8947543,23.8054163 C8.62545169,23.8080248 8.4105275,23.6671644 8.4105275,23.4897846 Z" id="Shape" fill="#333333"></path>
                            <path d="M5.92724675,13.3634832 L5.92724675,3.00241444 C5.92724645,2.20567246 6.24161318,1.44160102 6.80111706,0.878464044 C7.36062093,0.315327068 8.11937667,-0.000692217186 8.91029099,8.06926522e-14 L33.3339657,8.06926522e-14 C34.9814555,8.04609402e-14 36.3170099,1.34539461 36.3170099,3.00502297 L36.3170099,13.3634832 C36.3163865,13.492561 36.2612365,13.615266 36.165358,13.700898 C36.0694795,13.78653 35.9419428,13.8269881 35.814657,13.8121498 L35.5816066,13.8121498 C34.8876345,13.8121498 35.2475678,14.0964793 34.7581621,14.5947079 L34.7426255,14.6103591 C34.620539,14.7517547 34.4237388,14.801202 34.2500358,14.7341252 C34.0763328,14.6670485 33.9627709,14.4977525 33.965791,14.3103785 L33.965791,2.83286019 C33.9743385,2.70850626 33.931741,2.58608419 33.8479939,2.49431967 C33.7642467,2.40255514 33.6467217,2.34952562 33.5229954,2.34767419 L8.71608238,2.34767419 C8.46724277,2.34767419 8.26551841,2.55088484 8.26551841,2.80155787 L8.26551841,14.2790761 C8.26853857,14.4664501 8.15497662,14.6357462 7.98127364,14.7028229 C7.80757065,14.7698997 7.6107704,14.7204524 7.48868397,14.5790567 L7.47314728,14.5634056 C6.98374159,14.070394 7.34108543,13.7808475 6.64970278,13.7808475 L6.41924189,13.7808475 C6.29880941,13.7924059 6.17882218,13.7546908 6.0862849,13.6761905 C5.99374761,13.5976902 5.93643527,13.4850004 5.92724675,13.3634832 Z" id="Shape" fill="#333333"></path>
                            <path d="M4.85262578,30.2067413 C4.74415818,30.206627 4.6364845,30.1881082 4.53412366,30.1519622 L1.16525165,28.9546484 C0.91325335,28.8641466 0.709645047,28.6726642 0.602721302,28.4256193 C0.495797558,28.1785745 0.495084755,27.8979778 0.600751964,27.6503849 C1.52777439,25.5635634 1.29472406,23.8001993 1.1031049,22.2455172 C1.05390539,21.8516297 1.00470587,21.4786103 0.976221942,21.1134166 C0.776834437,18.5753199 1.46303819,17.9153626 3.73398419,15.7294171 L3.88158273,15.5859481 C4.06190098,15.4160901 4.30021025,15.3226795 4.5470709,15.3250954 C4.80151247,15.325173 5.04586971,15.4253208 5.22809576,15.6042078 L5.22809576,15.5442117 C5.28348664,14.7935748 5.90250762,14.2120194 6.64970278,14.2086459 C7.03777525,14.2064173 7.41065674,14.3604252 7.68548203,14.6364443 C7.98892095,14.9511706 8.15166444,15.3770443 8.136046,15.8154985 L8.136046,22.6628815 C8.136046,24.303645 7.69583982,25.0522922 7.18312909,25.9209316 C6.70008517,26.6933715 6.32456399,27.5289403 6.06707695,28.4042492 C5.97126737,28.7277065 5.88063669,29.0798577 5.80813214,29.44766 C5.70959041,29.8975425 5.30988552,30.2150794 4.85262578,30.2067413 Z" id="Shape" fill="#F7D0AD"></path>
                            <path d="M5.31960055,16.1319421 C5.31960055,16.1319421 3.42407227,19.0466179 3.14746094,21.1899284 C2.87084961,23.333239 3.09608981,27.3855132 4.1373291,29.6380485 C5.1785684,31.8905839 3.83503004,29.7124632 2.44995117,29.166613 C1.0648723,28.6207628 0.663258084,28.2689406 0.663258084,28.2689406 L0.700121755,26.8582352 C0.700121755,26.8582352 1.45337904,25.3562873 1.45337904,25.1375373 C1.45337904,24.9187873 1.17258154,22.9907991 1.17258154,22.9907991 L0.546763123,19.9079907 L1.32435619,18.3143651 L2.29188356,17.1466346 C2.29188356,17.1466346 4.23428223,15.6531001 4.42292055,15.5016578 C4.61155887,15.3502155 5.58196621,15.3116296 5.58196621,15.3116296 L5.31960055,16.1319421 Z" id="Path-4" fill="#BC967A"></path>
                            <path d="M6.66006057,14.7173087 C6.93276777,14.7247929 7.19022558,14.8456959 7.37125635,15.0512885 C7.55228713,15.2568811 7.64072925,15.5288089 7.61556693,15.8024558 L7.61556693,22.6524474 C7.61556693,25.2609743 6.43995748,25.3157534 5.56731346,28.2425205 C5.46373554,28.5920631 5.37051541,28.9598654 5.29024251,29.3328848 C5.26200761,29.4583716 5.18194058,29.5657497 5.07016903,29.6280257 C4.95839748,29.6903017 4.82555178,29.7015528 4.70502724,29.6589506 L1.33874468,28.4746794 C1.22007518,28.4326362 1.12442166,28.3422679 1.07516608,28.2256645 C1.0259105,28.109061 1.02759211,27.9769683 1.07979987,27.8616756 C2.30460883,25.0992456 1.64171011,22.9054745 1.49929046,21.0795057 C1.31543965,18.7318315 1.84627651,18.2831649 4.24669492,15.9720101 C4.32881353,15.8903721 4.43946586,15.8444736 4.55483925,15.8441923 C4.68681815,15.8425614 4.81279432,15.8996443 4.89914279,16.0002046 C4.98549126,16.1007649 5.02342311,16.2345672 5.00281377,16.3658977 C4.78788958,17.7118975 4.48492415,19.3839633 4.17419037,20.7117034 C4.14334293,20.8241612 4.16499903,20.9446493 4.23303044,21.0390721 C4.30106186,21.1334948 4.40806708,21.1915796 4.52376587,21.1968894 C4.66734533,21.1912644 4.79183084,21.0951224 4.83449964,20.956905 C5.05719218,20.3908546 5.43784106,17.9988355 5.75116428,15.6015993 C5.77440029,15.1111263 6.17266138,14.7236469 6.66006057,14.7173087 L6.66006057,14.7173087 Z M6.66006057,13.6738979 L6.66006057,13.6738979 C5.89598143,13.6707933 5.20392348,14.127693 4.90182529,14.8346924 C4.78649344,14.8067718 4.66827568,14.7927614 4.54966035,14.7929559 C4.16349514,14.7902221 3.79164638,14.9400575 3.5138811,15.2103202 L3.36628256,15.3537892 C1.03577925,17.6075564 0.240818675,18.3692463 0.460921766,21.155153 C0.489405695,21.5359979 0.538605209,21.9142343 0.590394172,22.3133389 C0.776834437,23.8706295 0.996937527,25.4800906 0.129472406,27.4364857 C-0.0401884707,27.8183705 -0.0431960829,28.2544068 0.121180476,28.6386297 C0.285557034,29.0228526 0.602268517,29.320085 0.994348079,29.4580941 L4.36063064,30.6423653 C4.76037327,30.7828969 5.20067196,30.7447064 5.5706843,30.5374079 C5.94069665,30.3301095 6.20517471,29.9734507 6.29753783,29.5572181 C6.37781072,29.1946329 6.46585196,28.8503073 6.55648264,28.5398926 C6.80195159,27.7062288 7.16098812,26.9108799 7.62333527,26.1765673 C8.1412249,25.2818425 8.65911452,24.4340713 8.65911452,22.6498389 L8.65911452,15.8050644 C8.67254021,15.2284417 8.45618506,14.6704165 8.05836256,14.2555994 C7.68923809,13.8844094 7.18938889,13.6753077 6.66782891,13.6738979 L6.66006057,13.6738979 Z" id="Shape" fill="#282828"></path>
                            <path d="M35.5841961,14.7173087 C36.0705907,14.7250116 36.4673335,15.1121166 36.4905029,15.6015993 C36.8115945,18.001444 37.184475,20.3908546 37.4149359,20.9516879 C37.4576047,21.0899053 37.5820902,21.1860474 37.7256697,21.1916724 C37.8399127,21.1843042 37.9446888,21.1251869 38.0106069,21.0309037 C38.076525,20.9366205 38.0964848,20.8173269 38.0648874,20.7064864 C37.7515642,19.3787462 37.4511882,17.7066805 37.236264,16.3606806 C37.2156547,16.2293502 37.2535865,16.0955478 37.339935,15.9949875 C37.4262834,15.8944272 37.5522596,15.8373443 37.6842385,15.8389752 C37.7996119,15.8392566 37.9102642,15.885155 37.9923828,15.966793 C40.3928013,18.2779479 40.9236381,18.7344401 40.7397873,21.0742887 C40.5973677,22.9002575 39.9344689,25.1044627 41.1566885,27.8564586 C41.2088962,27.9717512 41.2105778,28.1038439 41.1613222,28.2204474 C41.1120667,28.3370509 41.0164131,28.4274192 40.8977436,28.4694624 L37.5314611,29.6537336 C37.4109365,29.6963358 37.2780908,29.6850847 37.1663193,29.6228086 C37.0545477,29.5605326 36.9744807,29.4531546 36.9462458,29.3276677 C36.8633835,28.9546484 36.7701633,28.5868461 36.6691749,28.2373035 C35.7991203,25.3105363 34.6183319,25.2583658 34.6209214,22.6472304 L34.6209214,15.7972388 C34.5957373,15.5231512 34.6845229,15.2508172 34.8661185,15.0451405 C35.0477142,14.8394638 35.3058541,14.7188671 35.5790172,14.7120916 L35.5841961,14.7173087 Z M35.5790172,13.6686809 C35.0540207,13.6694027 34.5508961,13.8805825 34.1807152,14.2555994 C33.7819469,14.6699917 33.5646391,15.2280683 33.5773738,15.8050644 L33.5773738,22.6498389 C33.5773738,24.4340713 34.0745478,25.279234 34.613153,26.1739587 C35.0756875,26.9090998 35.4347285,27.7053364 35.6800057,28.5398926 C35.7706364,28.8476988 35.8586776,29.1894158 35.9389505,29.5572181 C36.0313136,29.9734507 36.2957917,30.3301095 36.665804,30.5374079 C37.0358164,30.7447064 37.476115,30.7828969 37.8758577,30.6423653 L41.2421402,29.4580941 C41.6342198,29.320085 41.9509313,29.0228526 42.1153078,28.6386297 C42.2796844,28.2544068 42.2766768,27.8183705 42.1070159,27.4364857 C41.2395508,25.477482 41.4467066,23.868021 41.6460941,22.3107304 C41.6978831,21.9116258 41.7470826,21.5281723 41.7755666,21.155153 C41.9930802,18.3692463 41.2032985,17.610165 38.859848,15.3537892 L38.70966,15.2103202 C38.4318947,14.9400575 38.0600459,14.7902221 37.6738807,14.7929559 C37.5552654,14.7927614 37.4370476,14.8067718 37.3217158,14.8346924 C37.0201676,14.1272279 36.3277635,13.6700997 35.5634805,13.6738979 L35.5790172,13.6686809 Z" id="Shape" fill="#282828"></path>
                        </g>
                    </g>
                </g>
            </g>
        </g>
    </g>
</svg>