<?xml version="1.0" encoding="UTF-8" standalone="no"?>
<svg width="68px" height="40px" viewBox="0 0 68 40" version="1.1" xmlns="http://www.w3.org/2000/svg" xmlns:xlink="http://www.w3.org/1999/xlink">
    <!-- Generator: Sketch 41.2 (35397) - http://www.bohemiancoding.com/sketch -->
    <title>Download</title>
    <desc>Created with Sketch.</desc>
    <defs>
        <rect id="path-1" x="0" y="-2.84217094e-14" width="68" height="40" rx="5"></rect>
        <filter x="-50%" y="-50%" width="200%" height="200%" filterUnits="objectBoundingBox" id="filter-2">
            <feOffset dx="0" dy="-2" in="SourceAlpha" result="shadowOffsetInner1"></feOffset>
            <feComposite in="shadowOffsetInner1" in2="SourceAlpha" operator="arithmetic" k2="-1" k3="1" result="shadowInnerInner1"></feComposite>
            <feColorMatrix values="0 0 0 0 0   0 0 0 0 0   0 0 0 0 0  0 0 0 0.15 0" type="matrix" in="shadowInnerInner1"></feColorMatrix>
        </filter>
    </defs>
    <g id="Page-1" stroke="none" stroke-width="1" fill="none" fill-rule="evenodd">
        <g id="User-Management" transform="translate(-1221.000000, -205.000000)">
            <g id="Buttons-V1-Copy" transform="translate(1045.000000, 205.000000)">
                <g id="Download" transform="translate(176.000000, 0.000000)">
                    <g transform="translate(34.000000, 20.000000) scale(-1, 1) translate(-34.000000, -20.000000) ">
                        <use fill="#E99400" fill-rule="evenodd" xlink:href="#path-1"></use>
                        <use fill="black" fill-opacity="1" filter="url(#filter-2)" xlink:href="#path-1"></use>
                    </g>
                    <g id="User-Management---Active" transform="translate(12.000000, 8.000000)" fill="#FFFFFF">
                        <g id="Asset-41">
                            <g id="Layer_2">
                                <g>
                                    <g id="Layer_1-2">
                                        <path d="M12.17,8.28 C10.0010496,8.21503648 7.94231586,9.23502844 6.68,11 C5.62,12.54 4.68,15.34 6.46,20 C6.80744544,20.9077988 7.21157459,21.7928751 7.67,22.65 C7.89,23.06 7.92,23.31 7.87,23.41 C7.6,24 5.43,24.5 3.99,24.84 L3.86,24.84 C0.29,25.6 0,27.74 0,30.24 L0,31.36 C0.00549175546,32.0464475 0.563530525,32.600022 1.25,32.6 L12.18,32.6 C12.5132605,32.6000107 12.8327278,32.4669428 13.0674379,32.230355 C13.3021479,31.9937673 13.4326661,31.6732499 13.43,31.34 C13.43,25.57 14.67,24.34 16,22.99 C17.33,21.64 18.87,20.14 18.87,15.16 C18.87,11 16.18,8.28 12.17,8.28 Z M14.24,21.28 C12.77,22.74 11.13,24.37 10.94,30.16 L2.5,30.16 C2.5,28.16 2.61,27.68 4.43,27.26 L4.56,27.26 C7.03,26.69 9.37,26.15 10.15,24.44 C10.5550714,23.4558749 10.4542812,22.3359834 9.88,21.44 C9.46827166,20.6505605 9.10753313,19.8355587 8.8,19 C7.74,16.19 7.72,13.83 8.74,12.35 C9.54272221,11.2752725 10.8307106,10.6744616 12.17,10.75 C14.8,10.75 16.37,12.39 16.37,15.14 C16.37,19.11 15.43,20 14.24,21.23 L14.24,21.28 Z" id="Shape"></path>
                                        <path d="M44.91,32.61 L24.82,32.61 C24.1296441,32.61 23.57,32.0503559 23.57,31.36 C23.57,30.6696441 24.1296441,30.11 24.82,30.11 L43.67,30.11 L43.67,29.85 C43.67,26.99 43.54,26.05 40.78,25.41 L40.62,25.41 C37.42,24.67 34.4,23.97 33.44,21.87 C32.9769018,20.6872265 33.103092,19.3548063 33.78,18.28 C36.49,13.15 37.09,8.83 35.45,6.11 C34.346359,4.38470887 32.3941624,3.39329921 30.35,3.52 C28.2866349,3.39919708 26.3209997,4.41075206 25.22,6.16 C23.6,8.88 24.22,13.29 26.92,18.27 C27.614617,19.3334229 27.752444,20.6669926 27.29,21.85 C26.29,23.96 23.35,24.65 20.18,25.38 L19.93,25.44 C17.18,26.08 17.05,27.01 17.05,29.88 L17.05,30.14 L17.15,30.14 C17.8403559,30.14 18.4,30.6996441 18.4,31.39 C18.4,32.0803559 17.8403559,32.64 17.15,32.64 L15.81,32.64 C15.1196441,32.64 14.56,32.0803559 14.56,31.39 L14.56,29.85 C14.56,26.58 14.91,24.01 19.38,22.98 L19.63,22.92 C21.84,22.41 24.63,21.78 25.03,20.8 C25.1217338,20.3260979 25.0170699,19.8352601 24.74,19.44 C21.56,13.58 21,8.4 23.08,4.86 C24.634094,2.35580137 27.415155,0.881227805 30.36,1 C33.2796507,0.8789448 36.0411588,2.32835512 37.6,4.8 C39.7,8.3 39.13,13.5 36,19.43 C35.7242255,19.8333505 35.6232404,20.3310629 35.72,20.81 C36.17,21.81 38.95,22.43 41.19,22.95 L41.35,22.95 C45.82,23.95 46.17,26.56 46.17,29.83 L46.17,31.34 C46.1753992,31.6767135 46.0447108,32.001362 45.8075308,32.2404243 C45.5703509,32.4794866 45.2467456,32.6127373 44.91,32.61 Z" id="Shape"></path>
                                        <path d="M21,32.61 L20.37,32.61 C19.6796441,32.61 19.12,32.0503559 19.12,31.36 C19.12,30.6696441 19.6796441,30.11 20.37,30.11 L21,30.11 C21.6903559,30.11 22.25,30.6696441 22.25,31.36 C22.25,32.0503559 21.6903559,32.61 21,32.61 Z" id="Shape"></path>
                                        <path d="M56.87,24.77 L56.76,24.77 C55.32,24.44 53.13,23.93 52.86,23.34 C52.86,23.24 52.86,22.99 53.06,22.58 C55.47,18 55.89,14 54.25,11.28 C53.0272141,9.33342494 50.8569791,8.18918855 48.56,8.28 C44.56,8.28 41.86,11.05 41.86,15.17 C41.86,20.17 43.39,21.66 44.73,23 C46.07,24.34 47.33,25.58 47.3,31.36 C47.2973339,31.6932499 47.4278521,32.0137673 47.6625621,32.250355 C47.8972722,32.4869428 48.2167395,32.6200107 48.55,32.62 L59.47,32.62 C60.1564695,32.620022 60.7145082,32.0664475 60.72,31.38 L60.72,30.24 C60.73,27.74 60.44,25.6 56.87,24.77 Z M49.79,30.11 C49.61,24.32 47.96,22.68 46.49,21.22 C45.3,20 44.35,19.1 44.35,15.17 C44.35,12.42 45.92,10.78 48.55,10.78 C49.970131,10.6899697 51.3279956,11.3746395 52.1,12.57 C53.25,14.48 52.79,17.7 50.84,21.39 C50.2690102,22.2876691 50.1719598,23.4074816 50.58,24.39 C51.37,26.11 53.71,26.65 56.19,27.22 L56.3,27.22 C58.11,27.64 58.22,28.14 58.22,30.12 L49.79,30.11 Z" id="Shape"></path>
                                    </g>
                                </g>
                            </g>
                        </g>
                    </g>
                </g>
            </g>
        </g>
    </g>
</svg>