<?xml version="1.0" encoding="UTF-8"?>
<svg width="68px" height="68px" viewBox="0 0 68 68" version="1.1" xmlns="http://www.w3.org/2000/svg" xmlns:xlink="http://www.w3.org/1999/xlink">
    <!-- Generator: Sketch 50 (54983) - http://www.bohemiancoding.com/sketch -->
    <title>Fire truck</title>
    <desc>Created with Sketch.</desc>
    <defs></defs>
    <g id="Fire-truck" stroke="none" stroke-width="1" fill="none" fill-rule="evenodd">
        <circle id="Oval" stroke="#F14132" stroke-width="4" fill="#FFFFFF" cx="34" cy="34" r="31"></circle>
        <g id="Group-2" transform="translate(17.000000, 14.000000)" fill="#F14132">
            <path d="M33.7150406,22.6161519 C33.6908957,22.1979241 33.4193884,21.8379241 33.0310986,21.7103291 C32.6437942,21.5842532 32.2185478,21.7138734 31.9628087,22.0399494 C31.9539391,22.0526076 31.3246928,22.8293165 30.4559681,23.3229873 C30.6905188,22.6652658 30.9137362,21.8612152 31.0467797,20.9412152 C31.3892435,18.5619747 31.1763739,14.9103291 28.2119681,11.0252658 C27.9986058,10.7467848 27.6615623,10.6034937 27.316142,10.6450127 C26.9731855,10.688557 26.6775333,10.9133671 26.5366058,11.2369114 C25.5190696,13.5756456 23.8397652,14.7042532 22.2530986,14.1108354 C18.6288957,12.7548861 19.1029246,5.81665823 20.3052435,1.484 C20.4003449,1.14172152 20.314113,0.773113924 20.0770986,0.513873418 C19.8410696,0.254632911 19.4892435,0.14121519 19.150229,0.216151899 C6.46231594,3.02172152 5.45956232,16.519443 5.55663478,21.719443 C3.70585217,20.3407089 2.78095362,19.0536203 2.7504029,19.0110886 C2.53014203,18.6941266 2.14973623,18.5336203 1.7782,18.602481 C1.40370725,18.6703291 1.10066377,18.9533671 0.998663768,19.3295696 C0.629098551,20.7007089 0.441852174,22.119443 0.441852174,23.5457722 C0.441852174,32.5832405 7.91101159,39.9351392 17.0919971,39.9351392 C14.3242,39.9351392 11.8919681,38.5118481 10.4925478,36.3700759 C5.70446087,34.0014684 2.41286667,29.1442532 2.41286667,23.5457722 C2.41286667,22.9472911 2.4508087,22.3508354 2.52570725,21.759443 C3.35304058,22.5731139 4.5588087,23.5893165 6.16222899,24.5234937 C6.48596812,24.7113418 6.88509855,24.6961519 7.19553333,24.484 C7.50498261,24.2718481 7.67153333,23.8976709 7.62669275,23.5184304 C7.62077971,23.4718481 7.08811304,18.8207089 8.34069275,13.8672911 C9.82141739,8.01210127 13.0627507,4.23792405 17.9873304,2.62627848 C16.3035913,10.2976709 18.4840261,14.8561519 21.5790116,16.0141266 C23.4238812,16.7042532 25.8299971,16.1391899 27.5354174,13.5548861 C30.9960261,19.2627342 28.0380261,23.9290633 27.9030116,24.1356456 C27.7108377,24.4252658 27.6778232,24.7964051 27.816287,25.1169114 C27.9552435,25.4374177 28.2444899,25.6617215 28.5830116,25.7093165 C29.7769536,25.8753924 30.8615043,25.4505823 31.7055913,24.9103291 C31.220229,29.9280506 28.0843449,34.2019747 23.6879971,36.3756456 C22.2880841,38.5133671 19.8568377,39.9351392 17.0919971,39.9351392 C26.2724899,39.9351392 33.742142,32.5832405 33.742142,23.5457722 C33.742142,23.2338734 33.732287,22.9234937 33.7150406,22.6161519" id="Fill-7"></path>
            <path d="M11.2076812,32.179038 C11.2076812,26.3623291 14.2248116,23.977519 16.3273913,23.0220759 C15.9735942,24.4109367 16.1495072,25.7527089 16.5437101,26.737519 C17.1187536,28.1765063 18.1865507,29.134481 19.3987246,29.3015696 C19.9047826,29.3724557 20.779913,29.3395443 21.6855942,28.5987848 C22.5134203,29.6084051 22.9761159,30.8716962 22.9761159,32.179038 C22.9761159,35.339038 20.3364348,37.9096709 17.0916522,37.9096709 C19.4627826,37.9096709 21.7038261,37.3567595 23.6881449,36.3754937 C24.4809855,35.1643544 24.9471304,33.7258734 24.9471304,32.179038 C24.9471304,29.971443 23.9897101,27.8615696 22.3212464,26.3906835 C22.1162609,26.2099241 21.8452464,26.1248608 21.5786667,26.1522025 C21.3096232,26.1800506 21.0637391,26.3213165 20.8991594,26.5410633 C20.6128696,26.9233418 20.1649565,27.3653671 19.6608696,27.294481 C19.170087,27.2271392 18.662058,26.7056203 18.3664058,25.9673924 C18.1742319,25.4863797 17.6484638,23.779038 18.9685507,22.0235949 C19.2109855,21.7010633 19.2415362,21.2600506 19.0454203,20.9046076 C18.8502899,20.5496709 18.4624928,20.3506835 18.0717391,20.3992911 C15.0156812,20.7749873 9.23666667,23.7203038 9.23666667,32.179038 C9.23666667,33.7233418 9.70133333,35.1603038 10.4926957,36.3699241 C12.478,37.3527089 14.7190435,37.9096709 17.0916522,37.9096709 C13.8468696,37.9096709 11.2076812,35.339038 11.2076812,32.179038" id="Fill-9"></path>
            <path d="M23.6881942,36.3755443 C21.7038754,37.3563038 19.4628319,37.9097215 17.0917014,37.9097215 C14.7190928,37.9097215 12.4780493,37.3527595 10.4927449,36.3699747 C11.8921652,38.5117468 14.3243971,39.935038 17.0917014,39.935038 C19.8570348,39.935038 22.2877884,38.5137722 23.6881942,36.3755443" id="Fill-11"></path>
        </g>
    </g>
</svg>