<?xml version="1.0" encoding="UTF-8" standalone="no"?>
<svg width="29px" height="32px" viewBox="0 0 29 32" version="1.1" xmlns="http://www.w3.org/2000/svg" xmlns:xlink="http://www.w3.org/1999/xlink">
    <!-- Generator: Sketch 41.2 (35397) - http://www.bohemiancoding.com/sketch -->
    <title>Logout</title>
    <desc>Created with Sketch.</desc>
    <defs></defs>
    <g id="Page-1" stroke="none" stroke-width="1" fill="none" fill-rule="evenodd">
        <g id="Web-app-Nav---Inactive" transform="translate(-36.000000, -952.000000)" fill="#929292">
            <g id="Sidebar" transform="translate(17.000000, 48.000000)">
                <g id="Logout" transform="translate(19.000000, 904.000000)">
                    <g id="Asset-40">
                        <g>
                            <g id="Layer_2">
                                <g id="Layer_1-2">
                                    <path d="M0.941176471,20.0784314 C1.45132817,20.0786128 1.86874893,19.6723233 1.88235294,19.1623529 L1.88235294,4.54901961 C1.88580273,3.07769159 3.07769159,1.88580273 4.54901961,1.88235294 L16.627451,1.88235294 C17.1472484,1.88235294 17.5686275,1.46097388 17.5686275,0.941176471 C17.5686275,0.421379059 17.1472484,-5.95121061e-16 16.627451,-6.26949473e-16 L4.54901961,-6.26949473e-16 C2.03809845,0.00345619371 0.00345619371,2.03809845 -5.05739241e-16,4.54901961 L-5.05739241e-16,19.1623529 C0.0136040139,19.6723233 0.431024772,20.0786128 0.941176471,20.0784314 Z" id="Shape"></path>
                                    <path d="M0.941176471,24.1443137 C1.45611236,24.1443595 1.87548713,23.7305764 1.88235294,23.2156863 L1.88235294,22.5882353 C1.88235294,22.0684379 1.46097388,21.6470588 0.941176471,21.6470588 C0.421379059,21.6470588 6.36568236e-17,22.0684379 0,22.5882353 L0,23.2156863 C0.00686580988,23.7305764 0.426240579,24.1443595 0.941176471,24.1443137 L0.941176471,24.1443137 Z" id="Shape"></path>
                                    <path d="M16.627451,29.7286275 L4.54901961,29.7286275 C3.07769159,29.7251777 1.88580273,28.5332888 1.88235294,27.0619608 L1.88235294,25.2988235 C1.88235294,24.7790261 1.46097388,24.3576471 0.941176471,24.3576471 C0.421379059,24.3576471 -7.72275807e-16,24.7790261 -8.3593263e-16,25.2988235 L-8.3593263e-16,27.0682353 C0.00345619371,29.5791565 2.03809845,31.6137987 4.54901961,31.6172549 L16.627451,31.6172549 C17.1472484,31.6172549 17.5686275,31.1958758 17.5686275,30.6760784 C17.5686275,30.156281 17.1472484,29.734902 16.627451,29.734902 L16.627451,29.7286275 Z" id="Shape"></path>
                                    <path d="M28.5678431,16.1505882 C28.656134,15.9311628 28.656134,15.6860921 28.5678431,15.4666667 L28.5678431,15.4666667 C28.5198866,15.3514705 28.4495022,15.2469603 28.3607843,15.1592157 L22.9082353,9.70666667 C22.6736055,9.4548666 22.320244,9.35121671 21.9867747,9.43637893 C21.6533054,9.52154114 21.3929137,9.78193283 21.3077515,10.1154022 C21.2225893,10.4488715 21.3262391,10.802233 21.5780392,11.0368627 L25.4243137,14.8831373 L8.20078431,14.8831373 C7.68098692,14.8831373 7.25960788,15.3045163 7.25960788,15.8243137 C7.25960788,16.3441111 7.68098692,16.7654902 8.20078431,16.7654902 L25.4243137,16.7654902 L19.494902,22.694902 C19.2431019,22.9295317 19.139452,23.2828932 19.2246142,23.6163626 C19.3097764,23.9498319 19.5701681,24.2102236 19.9036374,24.2953858 C20.2371068,24.380548 20.5904683,24.2768981 20.825098,24.025098 L28.3545098,16.4956863 C28.4432277,16.4079417 28.5136121,16.3034315 28.5615686,16.1882353 L28.5678431,16.1505882 Z" id="Shape"></path>
                                    <path d="M19.7772549,9.2172549 C20.1480907,9.56280328 20.725973,9.55260722 21.0843881,9.19419206 C21.4428033,8.83577691 21.4529994,8.25789459 21.107451,7.88705882 L20.8188235,7.59843137 C20.5841938,7.34663131 20.2308323,7.24298142 19.8973629,7.32814363 C19.5638936,7.41330585 19.3035019,7.67369754 19.2183397,8.00716686 C19.1331775,8.34063618 19.2368274,8.6939977 19.4886275,8.92862745 L19.7772549,9.2172549 Z" id="Shape"></path>
                                </g>
                            </g>
                        </g>
                    </g>
                </g>
            </g>
        </g>
    </g>
</svg>