<?xml version="1.0" encoding="UTF-8"?>
<svg width="68px" height="68px" viewBox="0 0 68 68" version="1.1" xmlns="http://www.w3.org/2000/svg" xmlns:xlink="http://www.w3.org/1999/xlink">
    <!-- Generator: Sketch 50 (54983) - http://www.bohemiancoding.com/sketch -->
    <title>Police car</title>
    <desc>Created with Sketch.</desc>
    <defs></defs>
    <g id="Police-car" stroke="none" stroke-width="1" fill="none" fill-rule="evenodd">
        <circle id="Oval" stroke="#0BA4FF" stroke-width="4" fill="#FFFFFF" cx="34" cy="34" r="31"></circle>
        <g id="Group-2" transform="translate(12.000000, 18.000000)" fill="#0BA4FF">
            <path d="M43.3271326,10.0586486 L38.9764697,4.35091551 C38.8800323,4.22428181 38.7413761,4.13406674 38.5841394,4.09565017 L21.9030952,0.0216152998 C21.788214,-0.00720509992 21.6676814,-0.00720509992 21.5528002,0.0216152998 L4.87876193,4.08543956 C4.72152514,4.12385612 4.582869,4.2140712 4.48643162,4.3407049 L0.135768686,10.0586486 C-0.0173756982,10.2614176 -0.0429682669,10.5297116 0.0692126511,10.7563738 L3.44955865,17.5940815 C3.05722834,18.1216299 2.90309857,19.0065497 2.90309857,19.8063811 C2.90309857,20.7151257 3.10626963,21.7361871 3.62820906,22.216086 L3.62820906,23.8259594 C3.62820906,27.9850827 15.2439887,32.2088732 21.7349536,32.2088732 C25.0417377,32.2088732 29.4659625,31.1878119 33.2771713,29.5404995 C35.7292357,28.4819992 39.8416981,26.3309633 39.8416981,23.8259594 L39.8416981,22.2262966 C40.3636376,21.7463977 40.5668086,20.7253364 40.5668086,19.8165917 C40.5668086,19.0167603 40.4091759,18.135244 40.0203485,17.6042921 L43.4006945,10.7665845 C43.5151636,10.535945 43.4867397,10.2624022 43.3271326,10.0586486 L43.3271326,10.0586486 Z M21.7174388,30.840651 C15.2650064,30.840651 6.62323065,27.0967593 5.21154211,24.4998599 L38.2233356,24.4998599 C36.8256588,27.0831452 28.1838831,30.840651 21.7174388,30.840651 Z M38.9344343,21.1371644 L13.362905,21.1371644 C13.1126083,21.1371644 12.8813246,21.2669066 12.7561763,21.4775182 C12.631028,21.6881299 12.631028,21.9476142 12.7561763,22.1582258 C12.8813246,22.3688375 13.1126083,22.4985796 13.362905,22.4985796 L38.4335125,22.4985796 L38.4335125,23.1452518 L5.0258858,23.1452518 L5.0258858,22.4985796 L7.12765534,22.4985796 C7.51458042,22.4985796 7.82824518,22.1938164 7.82824518,21.817872 C7.82824518,21.4419276 7.51458042,21.1371644 7.12765534,21.1371644 L4.52846701,21.1371644 C4.36240434,20.7138377 4.28499432,20.2625586 4.30077531,19.8097847 C4.28499432,19.3570107 4.36240434,18.9057317 4.52846701,18.4824049 L38.9344343,18.4824049 C39.100497,18.9057317 39.177907,19.3570107 39.162126,19.8097847 C39.177907,20.2625586 39.100497,20.7138377 38.9344343,21.1371644 L38.9344343,21.1371644 Z M38.6962337,17.1175862 L4.76666756,17.1175862 L1.51593068,10.5521616 L5.46375445,5.35836273 L21.7174388,1.38303046 L28.8249228,3.11883479 L37.985135,5.35836273 L41.9469706,10.5521616 L38.6962337,17.1175862 Z" id="Shape"></path>
            <path d="M11.1423202,21.4210526 L8.80585304,21.4210526 C8.55555639,21.4210526 8.32427274,21.5507947 8.19912441,21.7614064 C8.07397608,21.9720181 8.07397608,22.2315023 8.19912441,22.442114 C8.32427274,22.6527257 8.55555639,22.7824678 8.80585304,22.7824678 L11.1423202,22.7824678 C11.5292453,22.7824678 11.84291,22.4777046 11.84291,22.1017602 C11.84291,21.7258158 11.5292453,21.4210526 11.1423202,21.4210526 L11.1423202,21.4210526 Z" id="Shape"></path>
            <path d="M25.0274495,6.3684366 L17.8113741,6.3684366 C16.9338329,6.36465583 16.2182324,7.05081947 16.2105263,7.9034322 L16.2105263,11.3273913 C16.2413241,14.0887917 18.5632311,16.3067734 21.4054,16.2897496 C22.281862,16.2904597 23.1448244,16.0799646 23.9170146,15.6771128 C24.1372757,15.5615959 24.2773777,15.3406808 24.2845457,15.0975841 C24.2917137,14.8544874 24.1648586,14.6261413 23.9517655,14.4985615 C23.7386725,14.3709816 23.4717153,14.3635505 23.2514543,14.4790674 C22.6837444,14.7746854 22.049499,14.9290392 21.4054,14.9283344 C19.337042,14.9453977 17.6424461,13.3369012 17.611706,11.3273913 L17.611706,7.90683573 C17.6191853,7.80612177 17.7075279,7.72932162 17.8113741,7.7332553 L25.0274495,7.7332553 C25.1312957,7.72932162 25.2196383,7.80612177 25.2271176,7.90683573 L25.2271176,11.3273913 C25.2272644,11.5767835 25.2002582,11.8254911 25.1465498,12.0693626 C25.0738348,12.4332471 25.3141472,12.7867697 25.6871435,12.8646278 C26.0601398,12.9424859 26.4286851,12.7160544 26.5162029,12.3552598 C26.5902619,12.0196586 26.6278329,11.6774269 26.6282973,11.3341984 L26.6282973,7.90683573 C26.6225109,7.05289058 25.9063474,6.36466441 25.0274495,6.3684366 Z" id="Shape"></path>
            <path d="M25.6846749,12.8537465 C25.5305254,12.7524209 25.3412163,12.7148537 25.1585196,12.7493345 C24.9758229,12.7838152 24.8147545,12.8875098 24.7108551,13.0375375 C24.6279036,13.1560372 24.5378385,13.2696854 24.441128,13.3778913 C24.2370645,13.6631466 24.2868159,14.0519376 24.5565599,14.2799549 C24.8263039,14.5079722 25.2294857,14.5020501 25.4920127,14.2662147 C25.6251436,14.1156648 25.7491249,13.9576993 25.8633254,13.7931229 C26.0778698,13.4851523 25.998324,13.066886 25.6846749,12.8537465 L25.6846749,12.8537465 Z" id="Shape"></path>
        </g>
    </g>
</svg>