<?xml version="1.0" encoding="UTF-8" standalone="no"?>
<svg width="46px" height="47px" viewBox="0 0 46 47" version="1.1" xmlns="http://www.w3.org/2000/svg" xmlns:xlink="http://www.w3.org/1999/xlink">
    <!-- Generator: Sketch 41.2 (35397) - http://www.bohemiancoding.com/sketch -->
    <title>Responder Management - Active</title>
    <desc>Created with Sketch.</desc>
    <defs></defs>
    <g id="Symbols" stroke="none" stroke-width="1" fill="none" fill-rule="evenodd">
        <g id="Responder-Management---Active">
            <g id="Asset-34">
                <g>
                    <g id="Layer_2">
                        <g id="Layer_1-2">
                            <path d="M22.85,2.16 C10.9206494,2.16 1.25,11.8306494 1.25,23.76 C1.25,35.6893506 10.9206494,45.36 22.85,45.36 C34.7793506,45.36 44.45,35.6893506 44.45,23.76 C44.45,18.0313238 42.1742922,12.5372793 38.1235065,8.48649353 C34.0727207,4.43570775 28.5786762,2.16 22.85,2.16 L22.85,2.16 Z M22.85,35.93 C17.9258825,35.9380922 13.4821245,32.9781031 11.5921365,28.4311323 C9.70214845,23.8841614 10.7384195,18.6463505 14.2174365,15.1616067 C17.6964535,11.6768629 22.932553,10.6319785 27.4826262,12.5144853 C32.0326994,14.3969922 34.9999934,18.8358759 35,23.76 C35.0000091,30.4735027 29.5634936,35.9189671 22.85,35.93 Z" id="Shape" fill="#E15944"></path>
                            <path d="M22.85,11.59 C24.2446036,11.5929015 25.6282443,11.8364763 26.94,12.31 L31,3.75 C25.7778964,1.62502701 19.9321036,1.62502701 14.71,3.75 L18.77,12.31 C20.0785956,11.8376081 21.4587559,11.5940504 22.85,11.59 L22.85,11.59 Z" id="Shape" fill="#EAEAEA"></path>
                            <path d="M22.85,35.93 C21.4553964,35.9270985 20.0717557,35.6835237 18.76,35.21 L14.7,43.77 C19.9221036,45.894973 25.7678964,45.894973 30.99,43.77 L26.93,35.21 C25.6214044,35.6823919 24.2412441,35.9259496 22.85,35.93 Z" id="Shape" fill="#EAEAEA"></path>
                            <path d="M10.68,23.76 C10.6829015,22.3653964 10.9264763,20.9817557 11.4,19.67 L2.84,15.61 C0.715027009,20.8321036 0.715027009,26.6778964 2.84,31.9 L11.4,27.84 C10.9276081,26.5314044 10.6840504,25.1512441 10.68,23.76 Z" id="Shape" fill="#EAEAEA"></path>
                            <path d="M35,23.76 C34.9970985,25.1546036 34.7535237,26.5382443 34.28,27.85 L42.84,31.91 C44.964973,26.6878964 44.964973,20.8421036 42.84,15.62 L34.3,19.67 C34.7667128,20.982957 35.0035159,22.3665637 35,23.76 Z" id="Shape" fill="#EAEAEA"></path>
                            <path d="M36,8.28 L36.51,8.72 C37.025074,9.16824294 37.8045337,9.12023097 38.2607024,8.6121629 C38.716871,8.10409483 38.6809402,7.32398486 38.18,6.86 L37.61,6.36 C37.0798066,5.91541078 36.2895892,5.98480664 35.845,6.515 C35.4004108,7.04519336 35.4698066,7.83541078 36,8.28 L36,8.28 Z" id="Shape" fill="#212020"></path>
                            <path d="M40.87,9.79 C40.4447407,9.23771525 39.6522847,9.13474074 39.1,9.56 C38.5477153,9.98525926 38.4447407,10.7777153 38.87,11.33 C39.830774,12.5656932 40.6461388,13.9078573 41.3,15.33 L35.02,18.33 C33.6727837,15.3874102 31.3125898,13.0272163 28.37,11.68 L31.37,5.41 C32.148437,5.76834052 32.9032941,6.17582976 33.63,6.63 C34.0158468,6.87472693 34.5029443,6.8950171 34.9078074,6.6832274 C35.3126706,6.4714377 35.5737911,6.05974403 35.5928074,5.6032274 C35.6118238,5.14671077 35.3858468,4.71472693 35,4.47 C24.9522502,-1.81689376 11.7658896,0.618504467 4.6266606,10.0796735 C-2.51256842,19.5408425 -1.23646609,32.8893567 7.56602276,40.8265161 C16.3685116,48.7636756 29.7774565,48.6565937 38.4520608,40.5798648 C47.1266651,32.5031359 48.1894198,19.135944 40.9,9.79 L40.87,9.79 Z M42.09,17.17 C43.5935836,21.4861336 43.5935836,26.1838664 42.09,30.5 L35.78,27.5 C36.4772271,25.1030056 36.4772271,22.5569944 35.78,20.16 L42.09,17.17 Z M26.52,11 C24.1230056,10.3027729 21.5769944,10.3027729 19.18,11 L16.18,4.69 C20.4945225,3.17692449 25.1954775,3.17692449 29.51,4.69 L26.52,11 Z M14.33,5.39 L17.33,11.65 C14.3874102,12.9972163 12.0272163,15.3574102 10.68,18.3 L4.42,15.3 C6.45295953,10.9325229 9.96252289,7.42295953 14.33,5.39 L14.33,5.39 Z M9.43,23.85 C9.42961727,25.0910211 9.60125035,26.3261063 9.94,27.52 L3.64,30.52 C2.1180487,26.2104243 2.1180487,21.5095757 3.64,17.2 L9.95,20.2 C9.60881588,21.3867883 9.43381662,22.6151484 9.43,23.85 L9.43,23.85 Z M4.43,32.37 L10.67,29.37 C10.935741,29.9546674 11.2432013,30.5194587 11.59,31.06 C11.9784967,31.5992896 12.7210878,31.7402503 13.2801792,31.3808344 C13.8392706,31.0214185 14.019328,30.2873266 13.69,29.71 C10.8360688,25.2498538 11.600357,19.3838403 15.5018429,15.8038634 C19.4033289,12.2238865 25.313284,11.96566 29.5121488,15.1917043 C33.7110136,18.4177486 34.9840255,24.1947453 32.5299865,28.8868153 C30.0759476,33.5788852 24.6048295,35.8285779 19.56,34.22 C19.2558679,34.1230722 18.925966,34.1481734 18.64,34.29 C18.3168298,34.3367537 18.0368415,34.5383453 17.89,34.83 L14.37,42.27 C9.97799939,40.2529809 6.44230134,36.7456251 4.39,32.37 L4.43,32.37 Z M22.85,44.2 C20.5817728,44.1962411 18.3303448,43.8108615 16.19,43.06 L19.19,36.75 C21.5873858,37.4444752 24.1326142,37.4444752 26.53,36.75 L29.53,43.06 C27.3833184,43.8130761 25.1249425,44.1984876 22.85,44.2 L22.85,44.2 Z M31.37,42.31 L28.37,36.05 C31.3125898,34.7027837 33.6727837,32.3425898 35.02,29.4 L41.28,32.4 C39.2470405,36.7674771 35.7374771,40.2770405 31.37,42.31 Z" id="Shape" fill="#212020"></path>
                            <path d="M15.15,34.84 C15.695953,35.0960674 16.3468925,34.9258592 16.6976238,34.435326 C17.048355,33.9447928 16.9988818,33.2737894 16.58,32.84 C16.35,32.68 16.13,32.51 15.92,32.34 C15.3842036,31.958948 14.6448039,32.058094 14.2283199,32.566837 C13.811836,33.0755801 13.8606491,33.8199988 14.34,34.27 C14.6,34.44 14.87,34.65 15.15,34.84 Z" id="Shape" fill="#212020"></path>
                            <path d="M17.09,25.68 C16.4585035,25.6633106 15.8544908,25.4181525 15.39,24.99 L14.65,25.88 C15.3176434,26.4700601 16.1789877,26.793954 17.07,26.79 C18.3,26.79 19.16,26.15 19.16,25.02 L19.16,25.02 C19.16,24.02 18.51,23.61 17.35,23.31 C16.35,23.06 16.12,22.94 16.12,22.56 L16.12,22.56 C16.12,22.28 16.37,22.06 16.85,22.06 C17.3885856,22.0928304 17.9045858,22.2880737 18.33,22.62 L18.98,21.68 C18.3788283,21.2002848 17.628978,20.9456187 16.86,20.96 C16.3614114,20.8977281 15.859728,21.0490823 15.4787684,21.3767075 C15.0978089,21.7043327 14.8730632,22.1777075 14.86,22.68 L14.86,22.68 C14.86,23.81 15.6,24.13 16.75,24.42 C17.75,24.66 17.9,24.83 17.9,25.14 L17.9,25.14 C17.92,25.47 17.61,25.68 17.09,25.68 Z" id="Shape" fill="#212020"></path>
                            <path d="M22.91,26.8 C24.5475228,26.8002274 25.882708,25.4872954 25.91,23.85 L25.91,23.85 C25.91,22.1765772 24.5534228,20.8200001 22.88,20.8200001 C21.2065772,20.8200001 19.85,22.1765772 19.85,23.85 L19.85,23.85 C19.8408062,24.654505 20.1639641,25.4271558 20.7431878,25.9855578 C21.3224115,26.5439597 22.1063703,26.8386272 22.91,26.8 L22.91,26.8 Z M21.2,23.8 C21.1780205,23.3336955 21.3487618,22.8788706 21.6721692,22.5422243 C21.9955765,22.2055781 22.4431892,22.0167363 22.91,22.02 C23.3794119,22.0197176 23.8287872,22.210198 24.1550064,22.5477312 C24.4812257,22.8852644 24.6562803,23.3408704 24.64,23.81 L24.64,23.81 C24.6619795,24.2763045 24.4912382,24.7311294 24.1678308,25.0677757 C23.8444235,25.4044219 23.3968108,25.5932637 22.93,25.59 C22.4605881,25.5902824 22.0112128,25.399802 21.6849936,25.0622688 C21.3587743,24.7247356 21.1837197,24.2691296 21.2,23.8 L21.2,23.8 Z" id="Shape" fill="#212020"></path>
                            <path d="M29,25.68 C28.3685035,25.6633106 27.7644908,25.4181525 27.3,24.99 L26.56,25.88 C27.2276434,26.4700601 28.0889877,26.793954 28.98,26.79 C30.21,26.79 31.07,26.15 31.07,25.02 L31.07,25.02 C31.07,24.02 30.42,23.61 29.26,23.31 C28.26,23.06 28.03,22.94 28.03,22.56 L28.03,22.56 C28.03,22.28 28.28,22.06 28.76,22.06 C29.2985856,22.0928304 29.8145858,22.2880737 30.24,22.62 L30.89,21.68 C30.2888283,21.2002848 29.538978,20.9456187 28.77,20.96 C28.2714114,20.8977281 27.769728,21.0490823 27.3887684,21.3767075 C27.0078089,21.7043327 26.7830632,22.1777075 26.77,22.68 L26.77,22.68 C26.77,23.81 27.51,24.13 28.66,24.42 C29.66,24.66 29.81,24.83 29.81,25.14 L29.81,25.14 C29.81,25.47 29.5,25.68 29,25.68 Z" id="Shape" fill="#212020"></path>
                        </g>
                    </g>
                </g>
            </g>
        </g>
    </g>
</svg>