<?xml version="1.0" encoding="UTF-8" standalone="no"?>
<svg width="34px" height="34px" viewBox="0 0 34 34" version="1.1" xmlns="http://www.w3.org/2000/svg" xmlns:xlink="http://www.w3.org/1999/xlink">
    <!-- Generator: Sketch 41.2 (35397) - http://www.bohemiancoding.com/sketch -->
    <title>Responder Management - Inactive</title>
    <desc>Created with Sketch.</desc>
    <defs></defs>
    <g id="Page-1" stroke="none" stroke-width="1" fill="none" fill-rule="evenodd">
        <g id="Web-app-Nav---Inactive" transform="translate(-33.000000, -410.000000)" fill="#929292">
            <g id="Sidebar" transform="translate(17.000000, 48.000000)">
                <g id="Responder-Management---Inactive" transform="translate(16.000000, 362.000000)">
                    <g id="Asset-25">
                        <g>
                            <g id="Layer_2">
                                <g id="Layer_1-2">
                                    <path d="M26.6086957,5.98978723 L26.9856522,6.30808511 C27.3663591,6.63234596 27.9424815,6.59761389 28.2796496,6.23007529 C28.6168177,5.86253669 28.5902601,5.29820181 28.22,4.96255319 L27.7986957,4.60085106 C27.4068136,4.27923333 26.8227399,4.32943459 26.4941304,4.71297872 C26.165521,5.09652286 26.2168136,5.6681695 26.6086957,5.98978723 L26.6086957,5.98978723 Z" id="Shape"></path>
                                    <path d="M30.2082609,7.08212766 C29.8939388,6.68260252 29.3082105,6.60811032 28.9,6.91574468 C28.4917895,7.22337904 28.4156779,7.79664507 28.73,8.19617021 C29.4401373,9.0900759 30.0427982,10.0610032 30.526087,11.0897872 L25.8843478,13.26 C24.8885793,11.131318 23.1440881,9.42394369 20.9691304,8.4493617 L23.1865217,3.91361702 C23.7618882,4.17284208 24.3198261,4.46762153 24.8569565,4.79617021 C25.1421477,4.97320671 25.5021762,4.98788471 25.8014229,4.83467514 C26.1006696,4.68146557 26.2936717,4.38364462 26.3077272,4.05339855 C26.3217828,3.72315247 26.1547564,3.41065352 25.8695652,3.23361702 C18.4429675,-1.31434868 8.69652711,0.447428764 3.41970566,7.29167868 C-1.85711579,14.1359286 -0.913909722,23.7923006 5.59227769,29.5340755 C12.0984651,35.2758504 22.0094243,35.1983869 28.4210884,29.3556469 C34.8327525,23.5129068 35.6182668,13.8430233 30.2304348,7.08212766 L30.2082609,7.08212766 Z M31.11,12.4208511 C32.2213444,15.5431605 32.2213444,18.9415204 31.11,22.0638298 L26.446087,19.893617 C26.9614287,18.159621 26.9614287,16.3178258 26.446087,14.5838298 L31.11,12.4208511 Z M19.6017391,7.95744681 C17.8300476,7.45306978 15.9482133,7.45306978 14.1765217,7.95744681 L11.9591304,3.39276596 C15.1481253,2.2982007 18.6227442,2.2982007 21.8117391,3.39276596 L19.6017391,7.95744681 Z M10.5917391,3.89914894 L12.8091304,8.42765957 C10.6341728,9.40224156 8.88968159,11.1096159 7.89391304,13.2382979 L3.26695652,11.0680851 C4.76957878,7.90863358 7.36360388,5.36980051 10.5917391,3.89914894 L10.5917391,3.89914894 Z M6.97,17.2531915 C6.96971711,18.1509515 7.09657635,19.0444173 7.34695652,19.9080851 L2.69043478,22.0782979 C1.56551426,18.9607325 1.56551426,15.5601186 2.69043478,12.4425532 L7.35434783,14.612766 C7.10216826,15.4712936 6.97282098,16.3598946 6.97,17.2531915 L6.97,17.2531915 Z M3.27434783,23.4165957 L7.88652174,21.246383 C8.08293901,21.6693339 8.31019229,22.0779063 8.56652174,22.4689362 C8.85367147,22.8590606 9.40254319,22.9610321 9.81578465,22.7010291 C10.2290261,22.4410261 10.362112,21.909981 10.1186957,21.4923404 C8.00926827,18.2658517 8.57417688,14.0223526 11.4578839,11.432582 C14.341591,8.84281152 18.7098186,8.65600934 21.8133274,10.9897435 C24.9168362,13.3234777 25.857758,17.5025817 24.0439031,20.8968451 C22.2300482,24.2911085 18.1861783,25.9185457 14.4573913,24.7548936 C14.232598,24.6847756 13.9887575,24.702934 13.7773913,24.8055319 C13.5385263,24.8393537 13.3315785,24.9851859 13.2230435,25.1961702 L10.6213043,30.5782979 C7.37504303,29.1191776 4.76170099,26.5819415 3.24478261,23.4165957 L3.27434783,23.4165957 Z M16.8891304,31.9744681 C15.2126147,31.9717489 13.5485157,31.6929636 11.9665217,31.1497872 L14.183913,26.5851064 C15.9558938,27.0874927 17.8371497,27.0874927 19.6091304,26.5851064 L21.8265217,31.1497872 C20.239844,31.6945657 18.5706096,31.973374 16.8891304,31.9744681 L16.8891304,31.9744681 Z M23.1865217,30.607234 L20.9691304,26.0787234 C23.1440881,25.1041414 24.8885793,23.3967671 25.8843478,21.2680851 L30.5113043,23.4382979 C29.0086821,26.5977494 26.414657,29.1365825 23.1865217,30.607234 Z" id="Shape"></path>
                                    <path d="M11.1978261,25.2034043 C11.6013566,25.3886445 12.0824858,25.2655152 12.3417219,24.9106614 C12.6009581,24.5558076 12.5643909,24.0704009 12.2547826,23.7565957 C12.0847826,23.6408511 11.9221739,23.5178723 11.7669565,23.3948936 C11.3709331,23.119239 10.8244202,23.1909616 10.5165843,23.5589885 C10.2087483,23.9270154 10.2448276,24.465531 10.5991304,24.7910638 C10.7913043,24.9140426 10.9908696,25.0659574 11.1978261,25.2034043 Z" id="Shape"></path>
                                    <path d="M12.6317391,18.5770213 C12.1649809,18.5649481 11.7185367,18.3875997 11.3752174,18.0778723 L10.8282609,18.7217021 C11.3217364,19.1485541 11.9583822,19.3828603 12.6169565,19.38 C13.526087,19.38 14.1617391,18.9170213 14.1617391,18.0995745 L14.1617391,18.0995745 C14.1617391,17.3761702 13.6813043,17.0795745 12.823913,16.8625532 C12.0847826,16.6817021 11.9147826,16.5948936 11.9147826,16.32 L11.9147826,16.32 C11.9147826,16.1174468 12.0995652,15.9582979 12.4543478,15.9582979 C12.8524329,15.9820475 13.2338243,16.1232873 13.5482609,16.3634043 L14.0286957,15.6834043 C13.5843514,15.3363762 13.0301142,15.1521497 12.4617391,15.1625532 C12.0932171,15.1175054 11.7224076,15.2269957 11.4408288,15.4640012 C11.1592501,15.7010066 10.9931337,16.043448 10.9834783,16.4068085 L10.9834783,16.4068085 C10.9834783,17.2242553 11.5304348,17.4557447 12.3804348,17.6655319 C13.1195652,17.8391489 13.2304348,17.9621277 13.2304348,18.186383 L13.2304348,18.186383 C13.2452174,18.4251064 13.016087,18.5770213 12.6317391,18.5770213 Z" id="Shape"></path>
                                    <path d="M16.9334783,19.387234 C18.1438212,19.3873986 19.1306972,18.4376179 19.1508696,17.2531915 L19.1508696,17.2531915 C19.1508695,16.0426303 18.148182,15.0612767 16.9113043,15.0612767 C15.6744267,15.0612767 14.6717392,16.0426303 14.6717391,17.2531915 L14.6717391,17.2531915 C14.6649437,17.8351738 14.9037995,18.3941127 15.3319214,18.7980631 C15.7600433,19.2020134 16.3394911,19.4151771 16.9334783,19.387234 L16.9334783,19.387234 Z M15.6695652,17.2170213 C15.6533195,16.8796946 15.7795196,16.5506723 16.0185598,16.307141 C16.2576,16.0636097 16.5884442,15.9270007 16.9334783,15.9293617 C17.2804349,15.9291574 17.6125818,16.0669518 17.8537004,16.3111247 C18.094819,16.5552977 18.2242072,16.884885 18.2121739,17.2242553 L18.2121739,17.2242553 C18.2284196,17.561582 18.1022195,17.8906043 17.8631793,18.1341356 C17.6241391,18.3776669 17.293295,18.5142759 16.9482609,18.5119149 C16.6013042,18.5121192 16.2691573,18.3743248 16.0280387,18.1301519 C15.7869202,17.8859789 15.657532,17.5563916 15.6695652,17.2170213 L15.6695652,17.2170213 Z" id="Shape"></path>
                                    <path d="M21.4347826,18.5770213 C20.9680243,18.5649481 20.5215802,18.3875997 20.1782609,18.0778723 L19.6313043,18.7217021 C20.1247799,19.1485541 20.7614257,19.3828603 21.42,19.38 C22.3291304,19.38 22.9647826,18.9170213 22.9647826,18.0995745 L22.9647826,18.0995745 C22.9647826,17.3761702 22.4843478,17.0795745 21.6269565,16.8625532 C20.8878261,16.6817021 20.7178261,16.5948936 20.7178261,16.32 L20.7178261,16.32 C20.7178261,16.1174468 20.9026087,15.9582979 21.2573913,15.9582979 C21.6554763,15.9820475 22.0368678,16.1232873 22.3513043,16.3634043 L22.8317391,15.6834043 C22.3873948,15.3363762 21.8331577,15.1521497 21.2647826,15.1625532 C20.8962606,15.1175054 20.5254511,15.2269957 20.2438723,15.4640012 C19.9622935,15.7010066 19.7961772,16.043448 19.7865217,16.4068085 L19.7865217,16.4068085 C19.7865217,17.2242553 20.3334783,17.4557447 21.1834783,17.6655319 C21.9226087,17.8391489 22.0334783,17.9621277 22.0334783,18.186383 L22.0334783,18.186383 C22.0334783,18.4251064 21.8043478,18.5770213 21.4347826,18.5770213 Z" id="Shape"></path>
                                </g>
                            </g>
                        </g>
                    </g>
                </g>
            </g>
        </g>
    </g>
</svg>