<?xml version="1.0" encoding="UTF-8" standalone="no"?>
<svg width="46px" height="46px" viewBox="0 0 46 46" version="1.1" xmlns="http://www.w3.org/2000/svg" xmlns:xlink="http://www.w3.org/1999/xlink">
    <!-- Generator: Sketch 41.2 (35397) - http://www.bohemiancoding.com/sketch -->
    <title>Settings - Active</title>
    <desc>Created with Sketch.</desc>
    <defs></defs>
    <g id="Symbols" stroke="none" stroke-width="1" fill="none" fill-rule="evenodd">
        <g id="Settings---Active">
            <g transform="translate(1.000000, 0.000000)" id="Asset-36">
                <g>
                    <g id="Layer_2">
                        <g id="Layer_1-2">
                            <g id="layer1" transform="translate(1.000000, 1.000000)" fill="#4B5860">
                                <g id="g465">
                                    <path d="M21.63,28.82 C17.6922097,28.82 14.5,25.6277903 14.5,21.69 C14.5,17.7522097 17.6922097,14.56 21.63,14.56 C25.5677903,14.56 28.76,17.7522097 28.76,21.69 C28.76,25.6277903 25.5677903,28.82 21.63,28.82 M43,24.57 L43,18.81 C40.06,17.81 38.2,17.47 37.27,15.21 C36.34,12.95 37.45,11.41 38.78,8.61 L34.72,4.54 C31.94,5.86 30.38,7 28.11,6 C25.84,5 25.55,3.19 24.51,0.26 L18.75,0.26 C17.75,3.17 17.42,5.06 15.15,5.99 L15.15,5.99 C12.89,6.93 11.35,5.82 8.54,4.48 L4.48,8.61 C5.81,11.4 6.93,12.94 6,15.21 C5.07,17.48 3.18,17.78 0.26,18.81 L0.26,24.57 C3.16,25.57 5.06,25.9 6,28.17 C6.94,30.44 5.8,32.03 4.49,34.77 L8.56,38.84 C11.35,37.52 12.9,36.39 15.17,37.33 L15.17,37.33 C17.43,38.27 17.73,40.14 18.77,43.07 L24.53,43.07 C25.53,40.16 25.86,38.28 28.14,37.33 L28.14,37.33 C30.39,36.4 31.92,37.51 34.73,38.84 L38.8,34.77 C37.48,31.99 36.35,30.43 37.29,28.17 C38.23,25.91 40.12,25.61 43.03,24.57" id="path467"></path>
                                </g>
                            </g>
                            <path d="M44.44,18.58 L43.21,18.16 C40.94,17.39 40,17 39.44,15.68 C38.88,14.36 39.29,13.4 40.36,11.25 C40.54,10.89 40.73,10.5 40.93,10.09 C41.1555569,9.61145465 41.0554307,9.04273768 40.68,8.67 L36.61,4.6 C36.2372623,4.22456934 35.6685453,4.12444311 35.19,4.35 L34,4.92 C31.87,6 30.95,6.4 29.59,5.83 C28.23,5.26 27.87,4.32 27.11,2.06 C26.98,1.67 26.84,1.26 26.69,0.83 C26.5121187,0.331366423 26.0394109,-0.00113145938 25.51,-1.38777031e-16 L19.75,-1.38777031e-16 C19.2205891,-0.00113145938 18.7478813,0.331366423 18.57,0.83 C18.42,1.26 18.28,1.67 18.15,2.06 C17.39,4.33 17,5.27 15.67,5.83 C14.34,6.39 13.4,6 11.26,4.92 L10.08,4.34 C9.60187991,4.11130093 9.03126486,4.21176133 8.66,4.59 L4.6,8.67 C4.22456934,9.04273768 4.12444311,9.61145465 4.35,10.09 C4.55,10.51 4.74,10.9 4.92,11.27 C5.98,13.41 6.39,14.33 5.83,15.68 C5.27,17.03 4.32,17.4 2.06,18.16 L0.83,18.58 C0.334813227,18.7566428 0.00308516567,19.2242595 -4.23516474e-22,19.75 L-4.23516474e-22,25.51 C-0.00113145938,26.0394109 0.331366423,26.5121187 0.83,26.69 L2.08,27.12 C4.34,27.88 5.28,28.24 5.83,29.59 C6.38,30.94 6,31.87 4.92,34 C4.74,34.37 4.54,34.76 4.35,35.17 C4.12444311,35.6485453 4.22456934,36.2172623 4.6,36.59 L8.67,40.66 C9.04273768,41.0354307 9.61145465,41.1355569 10.09,40.91 L11.28,40.33 C13.41,39.27 14.33,38.87 15.69,39.43 C17.05,39.99 17.4,40.93 18.17,43.19 C18.3,43.58 18.44,43.99 18.6,44.43 C18.7778813,44.9286336 19.2505891,45.2611315 19.78,45.26 L25.54,45.26 C26.0694109,45.2611315 26.5421187,44.9286336 26.72,44.43 C26.87,44 27.01,43.58 27.14,43.2 C27.89,40.96 28.25,40.02 29.58,39.45 L29.58,39.45 C30.92,38.89 31.83,39.3 33.96,40.36 L35.15,40.94 C35.6285453,41.1655569 36.1972623,41.0654307 36.57,40.69 L40.64,36.62 C41.0154307,36.2472623 41.1155569,35.6785453 40.89,35.2 C40.69,34.78 40.5,34.39 40.31,34.02 C39.25,31.88 38.84,30.96 39.4,29.61 C39.96,28.26 40.9,27.9 43.17,27.14 L44.41,26.72 C44.9086336,26.5421187 45.2411315,26.0694109 45.24,25.54 L45.24,19.75 C45.2415781,19.2318937 44.9233716,18.7665167 44.44,18.58 L44.44,18.58 Z M42.77,24.58 L42.4,24.7 C40.11,25.47 38.14,26.13 37.12,28.59 C36.1,31.05 37,33 38.1,35.11 L38.27,35.46 L35.46,38.27 L35.1,38.09 C32.88,36.99 31.1,36.09 28.7,37.09 L28.64,37.09 C26.17,38.09 25.51,40.09 24.74,42.37 L24.62,42.73 L20.62,42.73 L20.5,42.36 C19.73,40.08 19.07,38.1 16.61,37.09 C14.15,36.08 12.29,37 10.14,38.09 L9.78,38.27 L7,35.46 L7.17,35.12 C8.25,32.96 9.17,31.12 8.17,28.63 C7.17,26.14 5.17,25.51 2.9,24.75 L2.53,24.62 L2.53,20.62 L2.89,20.5 C5.18,19.73 7.15,19.07 8.18,16.61 C9.21,14.15 8.27,12.29 7.18,10.13 L7,9.8 L9.8,7 L10.15,7.17 C12.31,8.24 14.15,9.17 16.63,8.17 C19.11,7.17 19.75,5.17 20.52,2.89 L20.64,2.53 L24.64,2.53 L24.76,2.89 C25.56,5.27 26.19,7.15 28.65,8.17 C31.11,9.19 32.98,8.26 35.14,7.17 L35.47,7 L38.28,9.81 L38.12,10.14 C37.04,12.31 36.12,14.14 37.12,16.64 C38.12,19.14 40.02,19.73 42.4,20.53 L42.76,20.65 L42.77,24.58 Z" id="Shape" fill="#212020"></path>
                            <path d="M26.79,26.79 C24.9675946,28.5913037 22.1873614,29.00236 19.9216756,27.8054789 C17.6559898,26.6085979 16.4284668,24.0803867 16.8891868,21.5597532 C17.3499069,19.0391196 19.3923943,17.1085992 21.9349746,16.7905704 C24.4775548,16.4725416 26.9326201,17.8405029 28,20.17 C28.323919,20.7104789 28.9994798,20.9253642 29.5761183,20.6713385 C30.1527567,20.4173127 30.4501705,19.7738043 30.27,19.17 C28.7340141,15.853913 25.2241489,13.9177333 21.5998886,14.3872253 C17.9756283,14.8567174 15.0749693,17.6233259 14.4346456,21.2213352 C13.7943219,24.8193445 15.5623883,28.416828 18.8021445,30.1078823 C22.0419008,31.7989366 26.0042551,31.1925586 28.59,28.61 C29.078772,28.121228 29.078772,27.328772 28.59,26.84 C28.101228,26.351228 27.308772,26.351228 26.82,26.84 L26.79,26.79 Z" id="Shape" fill="#212020"></path>
                            <path d="M29.7,21.07 C29.0133593,21.1024143 28.4817391,21.6831758 28.51,22.37 C28.5208308,22.5731891 28.5208308,22.7768109 28.51,22.98 C28.4701221,23.6670605 28.9931209,24.2571104 29.68,24.3 L29.76,24.3 C30.4164269,24.2960935 30.9579996,23.7850935 31,23.13 C31.014816,22.8401892 31.014816,22.5498108 31,22.26 C30.9675857,21.5733593 30.3868242,21.0417391 29.7,21.07 L29.7,21.07 Z" id="Shape" fill="#212020"></path>
                        </g>
                    </g>
                </g>
            </g>
        </g>
    </g>
</svg>