<?xml version="1.0" encoding="UTF-8" standalone="no"?>
<svg width="36px" height="36px" viewBox="0 0 36 36" version="1.1" xmlns="http://www.w3.org/2000/svg" xmlns:xlink="http://www.w3.org/1999/xlink">
    <!-- Generator: Sketch 41.2 (35397) - http://www.bohemiancoding.com/sketch -->
    <title>Settings - Inactive</title>
    <desc>Created with Sketch.</desc>
    <defs></defs>
    <g id="Page-1" stroke="none" stroke-width="1" fill="none" fill-rule="evenodd">
        <g id="Web-app-Nav---Inactive" transform="translate(-32.000000, -782.000000)" fill="#929292">
            <g id="Sidebar" transform="translate(17.000000, 48.000000)">
                <g id="Settings---Inactive" transform="translate(15.000000, 734.000000)">
                    <g id="Asset-27">
                        <g>
                            <g id="Layer_2">
                                <g id="Layer_1-2">
                                    <path d="M34.7791304,14.5408696 L33.8165217,14.2121739 C32.04,13.6095652 31.3043478,13.3043478 30.866087,12.2713043 C30.4278261,11.2382609 30.7486957,10.4869565 31.586087,8.80434783 C31.7269565,8.5226087 31.8756522,8.2173913 32.0321739,7.89652174 C32.2086967,7.52200799 32.130337,7.07692514 31.8365217,6.78521739 L28.6513043,3.6 C28.3595966,3.3061847 27.9145138,3.22782504 27.54,3.40434783 L26.6086957,3.85043478 C24.9417391,4.69565217 24.2217391,5.00869565 23.1573913,4.5626087 C22.0930435,4.11652174 21.8113043,3.38086957 21.2165217,1.61217391 C21.1147826,1.30695652 21.0052174,0.986086957 20.8878261,0.649565217 C20.7486147,0.259330244 20.3786694,-0.000885489947 19.9643478,-1.08606988e-16 L15.4565217,-1.08606988e-16 C15.0422002,-0.000885489947 14.6722549,0.259330244 14.5330435,0.649565217 C14.4156522,0.986086957 14.306087,1.30695652 14.2043478,1.61217391 C13.6095652,3.38869565 13.3043478,4.12434783 12.2634783,4.5626087 C11.2226087,5.00086957 10.4869565,4.69565217 8.81217391,3.85043478 L7.88869565,3.39652174 C7.51451471,3.21753986 7.06794641,3.29616104 6.7773913,3.59217391 L3.6,6.78521739 C3.3061847,7.07692514 3.22782504,7.52200799 3.40434783,7.89652174 C3.56086957,8.22521739 3.70956522,8.53043478 3.85043478,8.82 C4.68,10.4947826 5.00086957,11.2147826 4.5626087,12.2713043 C4.12434783,13.3278261 3.38086957,13.6173913 1.61217391,14.2121739 L0.649565217,14.5408696 C0.262027743,14.6791118 0.00241447748,15.0450726 -4.23516474e-22,15.4565217 L-4.23516474e-22,19.9643478 C-0.000885489947,20.3786694 0.259330244,20.7486147 0.649565217,20.8878261 L1.62782609,21.2243478 C3.39652174,21.8191304 4.13217391,22.1008696 4.5626087,23.1573913 C4.99304348,24.213913 4.69565217,24.9417391 3.85043478,26.6086957 C3.70956522,26.8982609 3.55304348,27.2034783 3.40434783,27.5243478 C3.22782504,27.8988616 3.3061847,28.3439444 3.6,28.6356522 L6.78521739,31.8208696 C7.07692514,32.1146849 7.52200799,32.1930445 7.89652174,32.0165217 L8.82782609,31.5626087 C10.4947826,30.7330435 11.2147826,30.42 12.2791304,30.8582609 C13.3434783,31.2965217 13.6173913,32.0321739 14.22,33.8008696 C14.3217391,34.106087 14.4313043,34.4269565 14.5565217,34.7713043 C14.6957332,35.1615393 15.0656784,35.4217551 15.48,35.4208696 L19.9878261,35.4208696 C20.4021477,35.4217551 20.7720929,35.1615393 20.9113043,34.7713043 C21.0286957,34.4347826 21.1382609,34.106087 21.24,33.8086957 C21.8269565,32.0556522 22.1086957,31.32 23.1495652,30.873913 L23.1495652,30.873913 C24.1982609,30.4356522 24.9104348,30.7565217 26.5773913,31.586087 L27.5086957,32.04 C27.8832094,32.2165228 28.3282922,32.1381631 28.62,31.8443478 L31.8052174,28.6591304 C32.0990327,28.3674227 32.1773923,27.9223398 32.0008696,27.5478261 C31.8443478,27.2191304 31.6956522,26.913913 31.5469565,26.6243478 C30.7173913,24.9495652 30.3965217,24.2295652 30.8347826,23.1730435 C31.2730435,22.1165217 32.0086957,21.8347826 33.7852174,21.24 L34.7556522,20.9113043 C35.1458871,20.7720929 35.4061029,20.4021477 35.4052174,19.9878261 L35.4052174,15.4565217 C35.4064524,15.0510473 35.1574213,14.6868392 34.7791304,14.5408696 L34.7791304,14.5408696 Z M33.4721739,19.2365217 L33.1826087,19.3304348 C31.3904348,19.9330435 29.8486957,20.4495652 29.0504348,22.3747826 C28.2521739,24.3 28.9565217,25.826087 29.8173913,27.4773913 L29.9504348,27.7513043 L27.7513043,29.9504348 L27.4695652,29.8095652 C25.7321739,28.9486957 24.3391304,28.2443478 22.4608696,29.0269565 L22.413913,29.0269565 C20.4808696,29.8095652 19.9643478,31.3747826 19.3617391,33.1591304 L19.2678261,33.4408696 L16.1373913,33.4408696 L16.0434783,33.1513043 C15.4408696,31.3669565 14.9243478,29.8173913 12.9991304,29.0269565 C11.073913,28.2365217 9.61826087,28.9565217 7.93565217,29.8095652 L7.65391304,29.9504348 L5.47826087,27.7513043 L5.61130435,27.4852174 C6.45652174,25.7947826 7.17652174,24.3547826 6.39391304,22.406087 C5.61130435,20.4573913 4.04608696,19.9643478 2.26956522,19.3695652 L1.98,19.2678261 L1.98,16.1373913 L2.26173913,16.0434783 C4.05391304,15.4408696 5.59565217,14.9243478 6.40173913,12.9991304 C7.20782609,11.073913 6.47217391,9.61826087 5.61913043,7.92782609 L5.47826087,7.66956522 L7.66956522,5.47826087 L7.94347826,5.61130435 C9.63391304,6.44869565 11.073913,7.17652174 13.0147826,6.39391304 C14.9556522,5.61130435 15.4565217,4.04608696 16.0591304,2.26173913 L16.1530435,1.98 L19.2834783,1.98 L19.3773913,2.26173913 C20.0034783,4.12434783 20.4965217,5.59565217 22.4217391,6.39391304 C24.3469565,7.19217391 25.8104348,6.46434783 27.5008696,5.61130435 L27.7591304,5.47826087 L29.9582609,7.6773913 L29.8330435,7.93565217 C28.9878261,9.63391304 28.2678261,11.066087 29.0504348,13.0226087 C29.8330435,14.9791304 31.32,15.4408696 33.1826087,16.0669565 L33.4643478,16.1608696 L33.4721739,19.2365217 Z" id="Shape"></path>
                                    <path d="M20.966087,20.966087 C19.5398566,22.3758029 17.3640219,22.6974991 15.5908765,21.7608096 C13.8177311,20.8241201 12.857061,18.8455201 13.2176245,16.8728503 C13.578188,14.9001806 15.1766564,13.3893385 17.1665018,13.1404464 C19.1563472,12.8915543 21.0777027,13.9621327 21.9130435,15.7852174 C22.1665453,16.2082009 22.6952451,16.376372 23.1465273,16.1775692 C23.5978096,15.9787665 23.8305682,15.4751512 23.6895652,15.0026087 C22.4874893,12.4074102 19.7406383,10.8921391 16.9042606,11.2595676 C14.067883,11.6269962 11.797802,13.7921681 11.2966791,16.6080015 C10.7955562,19.4238349 12.1792604,22.2392567 14.7147218,23.5626905 C17.2501833,24.8861243 20.3511562,24.4115676 22.3747826,22.3904348 C22.7572998,22.0079176 22.7572998,21.3877346 22.3747826,21.0052174 C21.9922654,20.6227002 21.3720824,20.6227002 20.9895652,21.0052174 L20.966087,20.966087 Z" id="Shape"></path>
                                    <path d="M23.2434783,16.4895652 C22.7061073,16.5149329 22.2900567,16.9694419 22.3121739,17.5069565 C22.3206502,17.6659741 22.3206502,17.8253303 22.3121739,17.9843478 C22.2809651,18.5220474 22.6902685,18.9838256 23.2278261,19.0173913 L23.2904348,19.0173913 C23.8041602,19.0143341 24.2279997,18.614421 24.2608696,18.1017391 C24.2724647,17.8749307 24.2724647,17.647678 24.2608696,17.4208696 C24.2355019,16.8834986 23.7809929,16.467448 23.2434783,16.4895652 L23.2434783,16.4895652 Z" id="Shape"></path>
                                </g>
                            </g>
                        </g>
                    </g>
                </g>
            </g>
        </g>
    </g>
</svg>