<?xml version="1.0" encoding="UTF-8" standalone="no"?>
<svg width="32px" height="42px" viewBox="0 0 32 42" version="1.1" xmlns="http://www.w3.org/2000/svg" xmlns:xlink="http://www.w3.org/1999/xlink">
    <!-- Generator: Sketch 41.2 (35397) - http://www.bohemiancoding.com/sketch -->
    <title>Agent Management - Inactive</title>
    <desc>Created with Sketch.</desc>
    <defs></defs>
    <g id="Page-1" stroke="none" stroke-width="1" fill="none" fill-rule="evenodd">
        <g id="Web-app-Nav---Inactive" transform="translate(-34.000000, -327.000000)" fill="#929292">
            <g id="Sidebar" transform="translate(17.000000, 48.000000)">
                <g id="Agent-Management---Inactive" transform="translate(17.000000, 279.000000)">
                    <g id="Asset-24">
                        <g>
                            <g id="Layer_2">
                                <g id="Layer_1-2">
                                    <path d="M31.7210256,34.3302564 L28.9969231,28.8820513 C28.8227028,28.5343735 28.4668342,28.3151331 28.0779487,28.3158974 L22.334359,28.3158974 C25.3780685,26.2050795 27.1979785,22.7398974 27.2082051,19.0358974 L27.2082051,14.9333333 C28.6546374,13.6636583 29.4838881,11.8323328 29.4838881,9.90769231 C29.4838881,7.98305186 28.6546374,6.15172629 27.2082051,4.88205128 C25.9345143,3.71377932 24.2592423,3.08187849 22.5312821,3.11794872 C21.0783502,1.66485893 19.1132375,0.839924053 17.0584615,0.820512821 C16.6063103,0.811143228 16.1546347,0.855209139 15.7128205,0.951794872 C13.9648787,1.23376726 12.3647967,2.10180454 11.1753846,3.41333333 C10.4797731,3.19727422 9.75388037,3.09476266 9.02564103,3.10974359 C8.10760514,3.03213451 7.18680944,3.22313548 6.37538462,3.65948718 C5.87464644,3.93817856 5.69464195,4.57003106 5.97333333,5.07076923 C6.25202471,5.5715074 6.88387721,5.75151189 7.38461538,5.47282051 C7.88711634,5.20422154 8.4596452,5.09544106 9.02564103,5.16102564 C9.71775733,5.15687128 10.4019614,5.30829348 11.0276923,5.60410256 C11.4754536,5.8224414 12.0153565,5.68746565 12.3076923,5.28410256 C13.2002947,4.04499122 14.5496169,3.21236789 16.0574359,2.97025641 L16.1476923,2.97025641 C16.441375,2.90669641 16.741706,2.87914311 17.0420513,2.88820513 C18.7133326,2.86921234 20.309988,3.5791698 21.4153846,4.83282051 C21.6330573,5.08578332 21.9617062,5.21478568 22.2933333,5.1774359 C24.0500701,4.98973383 25.7633784,5.80447493 26.7265334,7.28558554 C27.6896884,8.76669616 27.7394858,10.6632058 26.8553846,12.1928205 L26.8061538,12.0861538 C26.7041861,11.804928 26.5835766,11.5308154 26.4451282,11.265641 L26.4451282,11.265641 C26.2983125,11.0005364 26.133839,10.7456025 25.9528205,10.5025641 L25.8297436,10.3384615 C25.6478112,10.1014566 25.4504606,9.87669627 25.2389744,9.66564103 L25.1569231,9.59179487 C24.9573343,9.40137034 24.7463463,9.22326363 24.5251282,9.05846154 L24.3774359,8.95179487 C24.1336992,8.77919443 23.8787805,8.62295393 23.614359,8.48410256 L23.4584615,8.41025641 C23.2109347,8.28797813 22.9560904,8.18110793 22.6953846,8.09025641 L22.5723077,8.04102564 C22.2794356,7.94947957 21.9806098,7.87820002 21.6779487,7.82769231 L21.4728205,7.82769231 C21.1563818,7.76097281 20.8355541,7.71709894 20.5128205,7.69641026 L17.0584615,7.69641026 C16.4920156,7.69641026 16.0328205,8.15560538 16.0328205,8.72205128 L16.0328205,9.84615385 C16.0330886,11.186628 14.9607189,12.2808829 13.6205128,12.3076923 L5.60410256,12.3076923 C5.47748283,12.3089265 5.35222623,12.3339778 5.23487179,12.3815385 L5.12820513,12.4389744 C5.07088626,12.464033 5.0159601,12.4942424 4.96410256,12.5292308 C4.56881031,11.6890435 4.35626785,10.7745516 4.34051282,9.84615385 C4.32062159,9.55642041 4.34833921,9.26538538 4.4225641,8.98461538 C4.58102638,8.61540323 4.50931514,8.18766612 4.23910301,7.89032236 C3.96889088,7.59297859 3.54994488,7.48079221 3.16730054,7.60331249 C2.78465619,7.72583277 2.50878801,8.06049421 2.46153846,8.45948718 C2.33535186,8.91054618 2.27727468,9.37792918 2.28923077,9.84615385 C2.32195969,11.0365587 2.60135393,12.2072206 3.10974359,13.2841026 L2.17435897,13.2841026 C1.53993957,13.2841026 1.02564103,13.7984011 1.02564103,14.4328205 L1.02564103,23.6061538 C1.02564103,24.2405733 1.53993957,24.7548718 2.17435897,24.7548718 L6.35897436,24.7548718 C6.35740642,24.9592873 6.41745073,25.159435 6.53128205,25.3292308 C7.3307131,26.4982435 8.3407309,27.5082613 9.50974359,28.3076923 L3.76615385,28.3076923 C3.37726834,28.306928 3.02139978,28.5261684 2.84717949,28.8738462 L0.106666667,34.3302564 C0.0358949685,34.4730513 -0.000626385022,34.6303741 0,34.7897436 L0,40.9435897 C6.93703043e-17,41.5100356 0.459195128,41.9692308 1.02564103,41.9692308 L3.97128205,41.9692308 C4.53772795,41.9692308 4.99692308,41.5100356 4.99692308,40.9435897 C4.99692308,40.3771438 4.53772795,39.9179487 3.97128205,39.9179487 L2.05128205,39.9179487 L2.05128205,34.9948718 L4.38153846,30.3589744 L10.4123077,30.3589744 L15.1220513,36.1025641 C15.3168796,36.3391943 15.6073304,36.4762846 15.9138462,36.4762846 C16.2203619,36.4762846 16.5108127,36.3391943 16.705641,36.1025641 L21.4153846,30.3589744 L27.4461538,30.3589744 L29.7764103,35.0276923 L29.7764103,39.9507692 L11.0194872,39.9507692 C10.4530413,39.9507692 9.99384615,40.4099644 9.99384615,40.9764103 C9.99384615,41.5428562 10.4530413,42.0020513 11.0194872,42.0020513 L30.8020513,42.0020513 C31.3684972,42.0020513 31.8276923,41.5428562 31.8276923,40.9764103 L31.8276923,34.7897436 C31.8283187,34.6303741 31.7917973,34.4730513 31.7210256,34.3302564 Z M3.28205128,21.3333333 L3.28205128,16.7384615 C3.28192455,16.4280299 3.40744473,16.1307629 3.63002267,15.9143676 C3.85260062,15.6979724 4.15328479,15.5808741 4.46358974,15.5897436 L4.58666667,15.5897436 L4.58666667,19.0358974 C4.59214789,20.2046295 4.783247,21.365072 5.15282051,22.4738462 L4.46358974,22.4738462 C4.15470323,22.4826821 3.85528334,22.3666973 3.63295243,22.1520862 C3.41062153,21.9374751 3.28413216,21.6423392 3.28205128,21.3333333 Z M8.62358974,24.7712821 L13.6205128,24.7712821 C14.2151992,24.7208868 14.6722331,24.2234845 14.6722331,23.6266667 C14.6722331,23.0298488 14.2151992,22.5324465 13.6205128,22.4820513 L8.04102564,22.4820513 L7.08923077,21.825641 C6.79410045,20.9278074 6.64181754,19.989191 6.63794872,19.0441026 L6.63794872,14.3261538 L13.6205128,14.3261538 C16.0717641,14.2903807 18.0425959,12.2976508 18.0512821,9.84615385 L18.0512821,9.72307692 L20.5128205,9.72307692 C23.1094085,9.72307692 25.214359,11.8280274 25.214359,14.4246154 L25.214359,19.0030769 C25.2144825,22.8980331 22.778187,26.37705 19.1179487,27.7087179 C18.8469743,27.807794 18.630262,28.0164203 18.5209584,28.2834333 C18.4116549,28.5504462 18.4198702,28.8511483 18.5435897,29.1117949 C18.6318403,29.2935023 18.7450742,29.4619722 18.88,29.6123077 L15.9179487,31.8687179 L12.9558974,29.6123077 C13.0937166,29.4624916 13.2097297,29.2939964 13.3005128,29.1117949 C13.4242323,28.8511483 13.4324477,28.5504462 13.3231441,28.2834333 C13.2138406,28.0164203 12.9971282,27.807794 12.7261538,27.7087179 C11.1249749,27.1147993 9.71734238,26.0931305 8.65641026,24.7548718 L8.62358974,24.7712821 Z" id="Shape"></path>
                                    <path d="M4.38974359,7.55692308 C4.7154866,7.55307781 5.02003193,7.39471424 5.21025641,7.13025641 C5.28715051,7.0175479 5.37216233,6.91059754 5.46461538,6.81025641 C5.79104274,6.38783723 5.73884938,5.78565145 5.344611,5.42569467 C4.95037262,5.06573789 4.34593501,5.06839104 3.95487179,5.43179487 C3.80903626,5.58878446 3.67467299,5.75605302 3.55282051,5.93230769 C3.31973002,6.24309502 3.28223671,6.65890212 3.45597211,7.00637292 C3.62970751,7.35384372 3.98484917,7.57333333 4.37333333,7.57333333 L4.38974359,7.55692308 Z" id="Shape"></path>
                                    <path d="M7.7374359,39.9179487 L6.50666667,39.9179487 C5.94022077,39.9179487 5.48102564,40.3771438 5.48102564,40.9435897 C5.48102564,41.5100356 5.94022077,41.9692308 6.50666667,41.9692308 L7.7374359,41.9692308 C8.30388179,41.9692308 8.76307692,41.5100356 8.76307692,40.9435897 C8.76307692,40.3771438 8.30388179,39.9179487 7.7374359,39.9179487 L7.7374359,39.9179487 Z" id="Shape"></path>
                                </g>
                            </g>
                        </g>
                    </g>
                </g>
            </g>
        </g>
    </g>
</svg>