<?xml version="1.0" encoding="UTF-8" standalone="no"?>
<svg width="39px" height="51px" viewBox="0 0 39 51" version="1.1" xmlns="http://www.w3.org/2000/svg" xmlns:xlink="http://www.w3.org/1999/xlink">
    <!-- Generator: Sketch 41.2 (35397) - http://www.bohemiancoding.com/sketch -->
    <title>Agent Management - Active</title>
    <desc>Created with Sketch.</desc>
    <defs></defs>
    <g id="Symbols" stroke="none" stroke-width="1" fill="none" fill-rule="evenodd">
        <g id="Agent-Management---Active" transform="translate(0.000000, -1.000000)">
            <g id="Asset-33">
                <g>
                    <g id="Layer_2">
                        <g id="Layer_1-2">
                            <polygon id="Shape" fill="#E2991A" points="37.54 42.3 37.54 49.8 1.25 49.8 1.25 42.3 4.57 35.66 13.28 35.66 19.4 40.32 25.51 35.66 34.22 35.66"></polygon>
                            <path d="M32,17.51 L32,23.09 C31.993399,28.3484442 28.7016463,33.0423876 23.76,34.84 C23.9861578,35.3325639 24.4779991,35.6487476 25.02,35.65 L25.55,35.65 L19.4,43.11 L13.29,35.66 L13.82,35.66 C14.3620009,35.6587476 14.8538422,35.3425639 15.08,34.85 C12.6023527,33.9334379 10.4754611,32.2613093 9,30.07 L9.64,28.67 L7.64,27.27 C7.1495762,25.9272146 6.89581394,24.5095294 6.89,23.08 L6.89,16.08 L16.6,16.08 C18.9050266,16.0583042 20.7683042,14.1950266 20.79,11.89 L20.79,10.53 L25,10.53 C28.8581962,10.5299843 31.9889766,13.6518195 32,17.51 L32,17.51 Z" id="Shape" fill="#FED2A4"></path>
                            <path d="M27,5 C25.4188623,3.20532411 23.1418306,2.17792744 20.75,2.18 C20.2793735,2.16948202 19.8092244,2.21649693 19.35,2.32 C17.1998955,2.66776558 15.2757059,3.85464886 14,5.62 C13.0634412,5.17294218 12.0377695,4.94387548 11,4.95 C7.13400675,4.95 4,8.08400675 4,11.95 C4.02846061,14.3404707 5.03709833,16.6144245 6.79,18.24 L6.79,16.11 L16.6,16.11 C18.9050266,16.0883042 20.7683042,14.2250266 20.79,11.92 L20.79,10.53 L25,10.53 C26.8565154,10.53 28.6369928,11.2674979 29.9497475,12.5802525 C31.2625021,13.8930072 32,15.6734846 32,17.53 L32,17.53 C33.7532543,16.210163 34.786083,14.1445057 34.79,11.95 C34.7666312,9.96416768 33.9091178,8.07973114 32.4272019,6.75761108 C30.9452861,5.43549102 28.9756305,4.79761381 27,5 L27,5 Z" id="Shape" fill="#53433F"></path>
                            <path d="M38.66,41.84 L35.34,35.2 C35.127669,34.7762678 34.6939542,34.5090685 34.22,34.51 L27.22,34.51 C30.929521,31.9374406 33.1475363,27.7142499 33.16,23.2 L33.16,18.2 C34.9228393,16.6525836 35.9334886,14.4206555 35.9334886,12.075 C35.9334886,9.72934445 34.9228393,7.49741642 33.16,5.95 C31.6076893,4.52616855 29.5659516,3.7560394 27.46,3.8 C25.6892393,2.02904682 23.2942582,1.02365744 20.79,1 C20.2389406,0.988580809 19.688461,1.04228614 19.15,1.16 C17.019696,1.50365384 15.069596,2.56157428 13.62,4.16 C12.7722234,3.89667796 11.8875417,3.77174199 11,3.79 C9.88114377,3.69541393 8.758924,3.92819636 7.77,4.46 C7.15972535,4.79965512 6.94034488,5.56972535 7.28,6.18 C7.61965512,6.79027465 8.38972535,7.00965512 9,6.67 C9.61242304,6.34264501 10.3101926,6.21006879 11,6.29 C11.8435167,6.28493687 12.6773904,6.46948268 13.44,6.83 C13.985709,7.09610045 14.6437158,6.93159877 15,6.44 C16.0878592,4.92983305 17.7323456,3.91507337 19.57,3.62 L19.68,3.62 C20.0379258,3.54253625 20.4039542,3.50895566 20.77,3.52 C22.8068741,3.49685254 24.7527978,4.3621132 26.1,5.89 C26.3652886,6.19829842 26.7658294,6.35552004 27.17,6.31 C29.3110229,6.0812381 31.3991174,7.07420382 32.5729626,8.87930738 C33.7468077,10.6844109 33.8074983,12.995782 32.73,14.86 L32.67,14.73 C32.5457268,14.3872559 32.398734,14.0531813 32.23,13.73 L32.23,13.73 C32.0510683,13.4069037 31.8506163,13.096203 31.63,12.8 L31.48,12.6 C31.2582698,12.3111502 31.0177489,12.0372236 30.76,11.78 L30.66,11.69 C30.4167512,11.4579201 30.1596096,11.2408525 29.89,11.04 L29.71,10.91 C29.412946,10.6996432 29.1022638,10.5092251 28.78,10.34 L28.59,10.25 C28.2883267,10.1009733 27.9777352,9.97072529 27.66,9.86 L27.51,9.8 C27.1530621,9.68842823 26.7888682,9.60155627 26.42,9.54 L26.17,9.54 C25.7843403,9.45868561 25.3933315,9.40521433 25,9.38 L20.79,9.38 C20.0996441,9.38 19.54,9.93964406 19.54,10.63 L19.54,12 C19.5403268,13.6337028 18.2333761,14.967326 16.6,15 L6.83,15 C6.6756822,15.0015041 6.52302572,15.0320354 6.38,15.09 L6.25,15.16 C6.18014263,15.1905402 6.11320137,15.2273579 6.05,15.27 C5.56823757,14.2460218 5.30920144,13.1314848 5.29,12 C5.26575757,11.6468874 5.29953842,11.2921884 5.39,10.95 C5.58312591,10.5000227 5.49572782,9.97871809 5.16640679,9.61633037 C4.83708576,9.25394266 4.32649532,9.11721551 3.86014753,9.2665371 C3.39379974,9.41585868 3.05758539,9.82372732 3,10.31 C2.84621008,10.8597282 2.77542852,11.4293512 2.79,12 C2.82988837,13.4508059 3.1704001,14.87755 3.79,16.19 L2.65,16.19 C1.87680135,16.19 1.25,16.8168014 1.25,17.59 L1.25,28.77 C1.25,29.5431986 1.87680135,30.17 2.65,30.17 L7.75,30.17 C7.74808908,30.4191314 7.82126807,30.6630614 7.96,30.87 C8.93430659,32.2947342 10.1652658,33.5256934 11.59,34.5 L4.59,34.5 C4.11604579,34.4990685 3.68233098,34.7662678 3.47,35.19 L0.13,41.84 C0.0437469929,42.0140313 -0.000763406746,42.2057684 -1.69406589e-21,42.4 L-1.69406589e-21,49.9 C8.45440525e-17,50.5903559 0.559644063,51.15 1.25,51.15 L4.84,51.15 C5.53035594,51.15 6.09,50.5903559 6.09,49.9 C6.09,49.2096441 5.53035594,48.65 4.84,48.65 L2.5,48.65 L2.5,42.65 L5.34,37 L12.69,37 L18.43,44 C18.667447,44.288393 19.0214339,44.4554718 19.395,44.4554718 C19.7685661,44.4554718 20.122553,44.288393 20.36,44 L26.1,37 L33.45,37 L36.29,42.69 L36.29,48.69 L13.43,48.69 C12.7396441,48.69 12.18,49.2496441 12.18,49.94 C12.18,50.6303559 12.7396441,51.19 13.43,51.19 L37.54,51.19 C38.2303559,51.19 38.79,50.6303559 38.79,49.94 L38.79,42.4 C38.7907634,42.2057684 38.746253,42.0140313 38.66,41.84 Z M4,26 L4,20.4 C3.99984554,20.0216614 4.15282327,19.6593672 4.42409013,19.3956356 C4.695357,19.1319039 5.06181584,18.9891903 5.44,19 L5.59,19 L5.59,23.2 C5.59668024,24.6243922 5.82958228,26.0386815 6.28,27.39 L5.44,27.39 C5.06354456,27.4007688 4.69862658,27.2594123 4.42766078,26.997855 C4.15669498,26.7362978 4.00253607,26.3766009 4,26 Z M10.51,30.19 L16.6,30.19 C17.324774,30.1285808 17.8817841,29.5223718 17.8817841,28.795 C17.8817841,28.0676282 17.324774,27.4614192 16.6,27.4 L9.8,27.4 L8.64,26.6 C8.28030992,25.5057653 8.09471512,24.3618265 8.09,23.21 L8.09,17.46 L16.6,17.46 C19.5874625,17.4164015 21.9894138,14.9877619 22,12 L22,11.85 L25,11.85 C28.1645916,11.85 30.73,14.4154084 30.73,17.58 L30.73,23.16 C30.7301506,27.9069779 27.7609154,32.1470297 23.3,33.77 C22.96975,33.8907489 22.7056318,34.1450123 22.5724181,34.4704343 C22.4392044,34.7958563 22.4492169,35.162337 22.6,35.48 C22.7075554,35.7014559 22.8455591,35.9067786 23.01,36.09 L19.4,38.84 L15.79,36.09 C15.9579671,35.9074116 16.099358,35.7020581 16.21,35.48 C16.3607831,35.162337 16.3707956,34.7958563 16.2375819,34.4704343 C16.1043682,34.1450123 15.84025,33.8907489 15.51,33.77 C13.5585632,33.0461616 11.843011,31.8010028 10.55,30.17 L10.51,30.19 Z" id="Shape" fill="#212020"></path>
                            <path d="M5.35,9.21 C5.74699929,9.20531358 6.11816392,9.01230798 6.35,8.69 C6.44371468,8.5526365 6.54732284,8.42229075 6.66,8.3 C7.05783334,7.78517663 6.99422268,7.0512627 6.51374466,6.61256538 C6.03326663,6.17386805 5.29660829,6.17710159 4.82,6.62 C4.64226294,6.81133106 4.47850771,7.01518962 4.33,7.23 C4.04592096,7.60877206 4.00022599,8.11553696 4.21196601,8.53901699 C4.42370603,8.96249703 4.85653493,9.23 5.33,9.23 L5.35,9.21 Z" id="Shape" fill="#212020"></path>
                            <path d="M9.43,48.65 L7.93,48.65 C7.23964406,48.65 6.68,49.2096441 6.68,49.9 C6.68,50.5903559 7.23964406,51.15 7.93,51.15 L9.43,51.15 C10.1203559,51.15 10.68,50.5903559 10.68,49.9 C10.68,49.2096441 10.1203559,48.65 9.43,48.65 L9.43,48.65 Z" id="Shape" fill="#212020"></path>
                        </g>
                    </g>
                </g>
            </g>
        </g>
    </g>
</svg>