<?xml version="1.0" encoding="UTF-8"?>
<svg width="68px" height="68px" viewBox="0 0 68 68" version="1.1" xmlns="http://www.w3.org/2000/svg" xmlns:xlink="http://www.w3.org/1999/xlink">
    <!-- Generator: Sketch 50 (54983) - http://www.bohemiancoding.com/sketch -->
    <title>Ambulance</title>
    <desc>Created with Sketch.</desc>
    <defs></defs>
    <g id="Ambulance" stroke="none" stroke-width="1" fill="none" fill-rule="evenodd">
        <circle id="Oval" stroke="#FFDC00" stroke-width="4" fill="#FFFFFF" cx="34" cy="34" r="31"></circle>
        <path d="M51.7164344,30.8483712 C51.6850397,30.75655 51.6617468,30.6967986 51.6377787,30.6360346 C51.6013203,30.5459012 51.5763395,30.4891881 51.5510212,30.432475 C51.5078112,30.3379532 51.4808049,30.2825903 51.4504229,30.2218263 C51.4045123,30.1330433 51.375143,30.078018 51.3515125,30.0371711 C51.2944618,29.937248 51.2613792,29.8808725 51.2168189,29.8106562 C50.9886161,29.4480974 50.7141652,29.1145702 50.3813132,28.8002851 C50.3354026,28.7570751 50.2881416,28.7152154 50.2402055,28.6736933 C50.1629002,28.607528 50.116652,28.5697192 50.0697286,28.5319105 C49.9883723,28.4687834 49.9384108,28.4309747 49.8857486,28.3928283 C49.805405,28.3357776 49.7530804,28.2996568 49.679826,28.2517207 C49.316592,28.0157536 48.9239887,27.8267099 48.488513,27.6822265 C48.4270738,27.6616343 48.3649594,27.643405 48.3021699,27.6251758 C48.2022468,27.5974944 48.1414827,27.5823034 48.0803811,27.56745 C47.974044,27.5434819 47.9109169,27.5303164 47.8639935,27.5218769 C47.7458412,27.5002719 47.6810262,27.489807 47.5898802,27.4769791 C47.357964,27.4462594 47.1287485,27.4303933 46.9069597,27.4303933 L40.5696067,27.4303933 L40.5696067,21.0933778 C40.5696067,20.7490482 40.5348362,20.4037059 40.4659703,20.0674781 C40.0524371,18.0430224 38.4064065,16.4405394 36.3704732,16.0796684 C36.1550984,16.0415221 35.9420866,16.0168789 35.7405525,16.0067516 C35.6230753,16.002363 35.5501585,16 35.476904,16 L32.5227584,16 C29.7144465,16 27.4297181,18.2843908 27.4297181,21.0923651 L27.4297181,27.4303933 L25.8066428,27.4303933 C25.433619,27.4303933 25.1314867,27.7325256 25.1314867,28.1055494 C25.1314867,28.4782356 25.433619,28.7807055 25.8066428,28.7807055 L28.1048743,28.7807055 C28.477898,28.7807055 28.7800304,28.4782356 28.7800304,28.1055494 L28.7800304,21.0923651 C28.7800304,19.029088 30.4591437,17.3503123 32.523096,17.3503123 L35.476904,17.3503123 C35.5309165,17.3503123 35.5845914,17.3523377 35.6308396,17.3540256 C35.8181955,17.3628026 35.9744941,17.3810319 36.1348437,17.4093884 C37.6303145,17.6740496 38.8391816,18.8511843 39.1430018,20.3375406 C39.1936385,20.5849853 39.2192945,20.8391816 39.2192945,21.0933778 L39.2192945,28.1055494 C39.2192945,28.4782356 39.5214268,28.7807055 39.8944506,28.7807055 L46.9069597,28.7807055 C47.0686596,28.7807055 47.2377862,28.7925208 47.4244669,28.8168264 C47.4740909,28.8242531 47.5237149,28.8320174 47.6000075,28.8458581 C47.6465933,28.8549727 47.6928415,28.8640873 47.7235611,28.8708389 C47.8123441,28.8917687 47.8589299,28.903584 47.9304964,28.9235011 C47.9757319,28.936329 48.0216425,28.9501697 48.0864575,28.9714371 C48.3885899,29.0716978 48.6772191,29.2104424 48.9601095,29.3944225 C48.998931,29.4197408 49.0367397,29.4460719 49.0731982,29.472403 C49.1346374,29.5162881 49.1690703,29.5422817 49.2028282,29.5689503 C49.2662928,29.6185743 49.3017385,29.6479436 49.325369,29.6678607 C49.3922094,29.7255865 49.4263048,29.7559686 49.4742409,29.8008665 C49.7044692,30.0186043 49.9066784,30.263686 50.0839069,30.5445509 C50.1082125,30.58371 50.1315054,30.6235442 50.1689766,30.6886968 C50.1915943,30.728531 50.2128617,30.7683652 50.2331164,30.8078618 C50.2675494,30.8753774 50.2874665,30.9162244 50.3188612,30.98374 C50.3381032,31.0272876 50.3570076,31.0708351 50.3698355,31.1015547 C50.4008927,31.1798728 50.4187843,31.2257835 50.4353257,31.2727068 C50.5092553,31.4840307 50.5642805,31.6977176 50.6004013,31.9188312 C50.6331464,32.1203653 50.6496877,32.3235873 50.6496877,32.5227584 L50.6496877,35.4782543 C50.6496877,35.6726993 50.6338216,35.8725455 50.6024268,36.0720542 C50.5642805,36.3032951 50.5092553,36.5176572 50.4356632,36.7269556 C50.4191219,36.773879 50.4012303,36.819452 50.3884023,36.8525346 C50.3570076,36.92984 50.3381032,36.9733876 50.3235873,37.0061327 C50.2874665,37.0844508 50.2675494,37.1256353 50.2499953,37.1604058 C50.2131993,37.2316348 50.1922695,37.2711314 50.1544607,37.3369592 C50.1315054,37.3774685 50.1082125,37.4173028 50.0741171,37.4709777 C49.907016,37.736314 49.7048067,37.9817333 49.4890944,38.185968 C49.4259673,38.2447066 49.3918719,38.2754262 49.3324581,38.3267381 C49.2990379,38.3554322 49.2649425,38.3834512 49.2055288,38.4300369 C49.1697455,38.4577183 49.1336247,38.4850622 49.0715103,38.5296225 C49.0350519,38.5559536 48.9979183,38.5816095 48.9732751,38.5984884 C48.6772191,38.7902327 48.3889274,38.9289773 48.0665404,39.0363272 C48.0226552,39.0505054 47.9784325,39.063671 47.9041653,39.0846008 C47.8602802,39.0967536 47.8150447,39.1085689 47.7698093,39.1186962 L47.9230697,39.7762983 L47.7350387,39.1267981 C47.6904784,39.137263 47.645243,39.1463776 47.5726637,39.1598807 C47.52439,39.1683202 47.4767915,39.176422 47.4099511,39.1851991 C47.2377862,39.2081544 47.0686596,39.2203072 46.9069597,39.2203072 L39.8944506,39.2203072 C39.5214268,39.2203072 39.2192945,39.5224396 39.2192945,39.8954633 L39.2192945,46.9072973 C39.2192945,47.1614936 39.1936385,47.4156899 39.1433394,47.662797 C38.8391816,49.1494908 37.6303145,50.326288 36.1351813,50.5912867 C35.9744941,50.6196433 35.8178579,50.6382101 35.6764127,50.6452992 C35.5845914,50.648675 35.5309165,50.6503629 35.476904,50.6503629 L32.5227584,50.6503629 C30.4591437,50.6503629 28.7800304,48.9715872 28.7800304,46.9079725 L28.7800304,39.8954633 C28.7800304,39.5224396 28.477898,39.2203072 28.1048743,39.2203072 L21.09169,39.2203072 C20.9293149,39.2203072 20.7595131,39.2081544 20.5785713,39.1841863 C20.5265843,39.1770972 20.4752724,39.1683202 20.4097823,39.1568425 C20.3598207,39.1477279 20.3105343,39.137263 20.2433563,39.122072 C20.1944075,39.1105943 20.1454586,39.0984415 20.0890831,39.0829129 C18.4764727,38.6349468 17.3503123,37.1529791 17.3503123,35.4782543 L17.3503123,32.5224208 C17.3503123,30.8480336 18.4764727,29.3657283 20.0890831,28.9177622 C20.1454586,28.9022336 20.1944075,28.8900808 20.2612479,28.8742147 C20.3105343,28.8630746 20.3598207,28.8532848 20.4242981,28.841132 C20.4752724,28.832355 20.5265843,28.8239155 20.5627051,28.8185143 C20.7618762,28.7921832 20.9306652,28.7807055 21.09169,28.7807055 C21.4647137,28.7807055 21.7668461,28.4782356 21.7668461,28.1055494 C21.7668461,27.7325256 21.4647137,27.4303933 21.09169,27.4303933 C20.8699012,27.4303933 20.6396729,27.4462594 20.4074192,27.4769791 C20.3274132,27.4881191 20.2582097,27.4992592 20.1640254,27.5161381 C20.0961722,27.5286285 20.0289942,27.5424692 19.9425742,27.5620487 C19.8730331,27.5779149 19.8041672,27.595469 19.76197,27.6076218 C17.532942,28.2260648 16,30.2434313 16,32.5224208 L16,35.4782543 C16,37.7572439 17.532942,39.7746104 19.7359764,40.3863018 C19.8041672,40.4052062 19.8730331,40.4227603 19.9209692,40.4332252 C20.0289942,40.458206 20.0961722,40.4723842 20.1896814,40.4892631 C20.2582097,40.501416 20.3274132,40.5128936 20.4064065,40.5230209 C20.637985,40.5547533 20.8688884,40.5706195 21.09169,40.5706195 L27.4297181,40.5706195 L27.4297181,46.9079725 C27.4297181,49.7159468 29.714784,52.0006752 32.523096,52.0006752 L35.476904,52.0006752 C35.5501585,52.0006752 35.6230753,51.9983121 35.6943043,51.9952739 C35.9420866,51.9837963 36.1547608,51.9591531 36.3701356,51.9213443 C38.4064065,51.5601358 40.0524371,49.9576527 40.4663078,47.9328595 C40.5348362,47.5969693 40.5696067,47.2519645 40.5696067,46.9072973 L40.5696067,40.5706195 L46.9069597,40.5706195 C47.1287485,40.5706195 47.357964,40.5547533 47.6114852,40.5206579 C47.6786632,40.5115433 47.7448285,40.5010784 47.8123441,40.488588 C47.9122672,40.4703588 47.976407,40.4571932 48.0337953,40.4436901 C48.1387821,40.4190469 48.2008965,40.4035183 48.2623357,40.386977 C48.3622588,40.3586204 48.426061,40.3393785 48.5118059,40.3110219 C48.9223008,40.1746404 49.3135538,39.9862718 49.6754374,39.7516551 C49.7540931,39.7003432 49.8070929,39.6635472 49.8449016,39.636541 C49.9394235,39.5690253 49.9873596,39.5322293 50.0312447,39.4981339 C50.1180023,39.4299432 50.166276,39.3904465 50.2091484,39.3536505 C50.2878041,39.2854598 50.3354026,39.2436001 50.4015679,39.1811481 C50.7151779,38.8850922 50.9892913,38.551565 51.2073667,38.20521 C51.2613792,38.1201403 51.2944618,38.0637647 51.3430731,37.9790327 C51.3744678,37.9240074 51.4041747,37.8686446 51.4338816,37.8115939 C51.4808049,37.7180848 51.5078112,37.662722 51.5334671,37.606684 C51.5763395,37.511487 51.6013203,37.4547739 51.6249508,37.3970481 C51.6617468,37.3042141 51.6857148,37.2417622 51.710358,37.1725587 C51.8092684,36.8913561 51.8842107,36.6000263 51.9334971,36.2978939 C51.9777198,36.0247932 52,35.7486544 52,35.4782543 L52,32.5227584 C52,32.2526959 51.9777198,31.9772322 51.9338347,31.7034564 C51.8845483,31.4084132 51.8153448,31.134975 51.7164344,30.8483712 Z" id="Fill-5" stroke="#FFDC00" fill="#FFDC00"></path>
    </g>
</svg>