<?xml version="1.0" encoding="UTF-8"?>
<svg width="68px" height="68px" viewBox="0 0 68 68" version="1.1" xmlns="http://www.w3.org/2000/svg" xmlns:xlink="http://www.w3.org/1999/xlink">
    <!-- Generator: Sketch 50 (54983) - http://www.bohemiancoding.com/sketch -->
    <title>Environmental</title>
    <desc>Created with Sketch.</desc>
    <defs>
        <polygon id="path-1" points="26.9929346 39.9147949 26.9929346 0 0 0 0 39.9147949 26.9929346 39.9147949"></polygon>
    </defs>
    <g id="Environmental" stroke="none" stroke-width="1" fill="none" fill-rule="evenodd">
        <circle id="Oval" stroke="#3AB54A" stroke-width="4" fill="#FFFFFF" cx="34" cy="34" r="31"></circle>
        <g id="Page-1" transform="translate(21.000000, 14.000000)">
            <mask id="mask-2" fill="white">
                <use xlink:href="#path-1"></use>
            </mask>
            <g id="Clip-2"></g>
            <path d="M15.6906336,37.3312051 C32.5287925,21.0501795 8.19876449,12.3819744 8.19876449,12.3819744 C22.0696991,23.1606923 18.7317925,28.663 18.7317925,28.663 C-3.59544112,25.7232564 3.67386729,2.58325641 3.67386729,2.58325641 C8.34688598,11.7791538 24.1469327,10.0455641 24.4436804,21.5778718 C24.7401757,33.1101795 15.6906336,37.3312051 15.6906336,37.3312051 M26.9852131,21.5104359 C26.8905869,17.8388974 25.518886,14.8988974 22.7913813,12.5219744 C20.5864654,10.6004359 17.7925963,9.32120513 15.0908299,8.08428205 C11.2303346,6.31684615 7.5840729,4.64735897 5.93278318,1.39787179 C5.49422243,0.534538462 4.61937196,-7.69230769e-05 3.6746243,-7.69230769e-05 C3.60397009,-7.69230769e-05 3.53230654,0.003 3.46089533,0.0088974359 C2.43640935,0.0963333333 1.56458692,0.802487179 1.25168972,1.79787179 C1.10003551,2.28171795 -2.40744112,13.7447949 3.03318505,22.4368462 C5.97038131,27.1299231 10.8508206,30.0419744 17.5463159,31.1006923 C16.6949327,32.5027436 15.4912879,33.9576154 13.938157,35.4594103 C13.0375682,36.3301795 12.8886897,37.7345385 13.585643,38.7799231 C14.0718953,39.5091538 14.8700355,39.9147949 15.6918953,39.9147949 C16.0484467,39.9147949 16.4092879,39.8383846 16.7512037,39.6788974 C17.0312972,39.5483846 19.5597084,38.3217179 22.062886,35.5132564 C24.4050729,32.8853077 27.1603346,28.3224872 26.9852131,21.5104359" id="Fill-1" fill="#3AB54A" mask="url(#mask-2)"></path>
        </g>
    </g>
</svg>