<?xml version="1.0" encoding="UTF-8"?>
<svg width="68px" height="68px" viewBox="0 0 68 68" version="1.1" xmlns="http://www.w3.org/2000/svg" xmlns:xlink="http://www.w3.org/1999/xlink">
    <!-- Generator: Sketch 50 (54983) - http://www.bohemiancoding.com/sketch -->
    <title>K9</title>
    <desc>Created with Sketch.</desc>
    <defs>
        <polygon id="path-1" points="28.9902247 42.9732517 28.9902247 0 1.39333815e-05 0 1.39333815e-05 42.9732517 28.9902247 42.9732517"></polygon>
    </defs>
    <g id="K9" stroke="none" stroke-width="1" fill="none" fill-rule="evenodd">
        <circle id="Oval" stroke="#934ECF" stroke-width="4" fill="#FFFFFF" cx="34" cy="34" r="31"></circle>
        <g id="Page-1" transform="translate(21.000000, 13.000000)">
            <mask id="mask-2" fill="white">
                <use xlink:href="#path-1"></use>
            </mask>
            <g id="Clip-2"></g>
            <path d="M27.3503725,24.3631624 C27.2689118,24.8400046 27.1602433,25.2487498 26.9973219,25.3032764 C26.9973219,25.3032764 26.9565916,25.6983696 26.9023388,25.8755198 C26.848086,26.0525882 26.7394174,26.6657061 26.7394174,26.6657061 C26.7394174,26.6657061 26.4543051,28.4641852 26.0334792,28.6413354 C25.7846983,28.7459741 25.5881337,28.7983753 25.4241534,28.7983753 C25.3105972,28.7983753 25.2126815,28.7731966 25.1237264,28.7230844 C24.9065522,28.6004608 24.6486478,28.5732384 24.6486478,28.5732384 C24.6486478,28.5732384 24.3363275,29.4179513 23.5489287,29.6086719 C23.2103781,29.6907479 22.8365551,29.7273715 22.4816309,29.7273715 C22.011114,29.7273715 21.5737517,29.6629532 21.2950747,29.554227 C20.8063107,29.3634247 20.453423,29.3225502 20.453423,29.3225502 C20.453423,29.3225502 19.5029399,29.2816757 19.0006534,29.1181776 C18.4983669,28.9546795 17.9823949,28.8320559 17.9823949,28.8320559 C17.9823949,28.8320559 17.9349034,28.8290312 17.8663949,28.8290312 C17.6837601,28.8290312 17.3517264,28.8506947 17.3714399,29.0092061 C17.3986478,29.2272308 17.7652208,31.0257099 17.7380129,31.3935806 C17.7108051,31.7614513 17.7244904,33.3010312 18.104586,34.609016 C18.4846815,35.9170008 18.7970017,37.0751395 18.8512545,37.1568886 C18.9056702,37.2386376 19.2315129,37.810881 19.2315129,37.810881 C19.2315129,37.810881 13.7781281,41.3382707 8.67233596,41.3382707 C5.92124607,41.3382707 3.27165618,40.3148544 1.62916461,37.1636738 C1.62916461,37.1636738 2.13829382,35.2016966 2.15865899,34.3433316 C2.17902416,33.4849665 2.26048483,32.3200426 2.26048483,32.1565445 C2.26048483,31.9930464 2.13829382,29.6018867 2.15865899,29.2748905 C2.17902416,28.9478943 2.38267584,27.8851567 2.38267584,27.6603468 C2.38267584,27.4355369 2.24011966,26.5158601 2.36231067,25.7392441 C2.48450169,24.9626281 2.95290056,22.305784 3.27874326,21.447419 C3.60458596,20.589054 4.52101854,18.6679513 4.64320955,18.4635787 C4.76540056,18.2592061 5.05939213,17.8095863 5.05939213,17.8095863 C5.05939213,17.8095863 4.97874607,17.4208696 4.96905225,17.2986548 C4.94054101,16.9410027 5.00978258,16.6650996 4.96905225,16.5629133 C4.92832191,16.460727 4.16120674,15.5614875 4.09335,14.6350255 C4.02549326,13.7085635 4.10695393,13.3133886 4.22914494,12.8774209 C4.35133596,12.4414532 4.74503539,10.5747954 4.8129736,10.4112973 C4.88074888,10.2477992 5.77681629,8.66734487 5.65462528,6.07859772 C5.53243427,3.48993232 5.47818146,2.57704068 5.35599045,2.3045711 C5.23379944,2.03201977 5.20659157,2.03201977 5.23379944,1.84129924 C5.25269831,1.70837529 5.29807191,1.63496464 5.38352416,1.63496464 C5.42058876,1.63496464 5.4654736,1.64886198 5.5189118,1.67780114 C5.69535562,1.77320228 6.03488371,1.69145323 6.63215337,2.87681445 C7.22958596,4.06217567 8.60089494,6.60996654 8.69587809,6.80076882 C8.79086124,6.99148935 8.84527697,7.2367365 9.03524326,7.79532776 C9.22537247,8.35400076 10.5422657,10.9426662 10.7188725,11.0244152 C10.7827376,11.0540084 10.8395157,11.0639817 10.8924652,11.0639817 C10.9855747,11.0639817 11.0667096,11.0330806 11.1532208,11.0244152 C11.1804287,11.0217175 11.2710944,11.0200825 11.4042826,11.0200825 C11.9373612,11.0200825 13.1516955,11.0462422 13.7057096,11.1334684 C14.0787994,11.1921643 14.3441983,11.2172612 14.5137994,11.2172612 C14.6588809,11.2172612 14.7339062,11.1988677 14.7463697,11.167476 C14.7735775,11.0993791 15.4321056,9.02843042 15.6220719,8.59238099 C15.8122011,8.15641331 17.0341112,6.35114905 17.2920157,5.95597414 C17.5500831,5.56088099 18.5479764,4.86601407 18.7379427,4.19836958 C18.9280719,3.53080684 19.4236787,2.86316236 19.4914539,2.60426312 C19.5492096,2.38411293 19.6119343,1.94708251 19.7546534,1.94708251 C19.7797433,1.94708251 19.807277,1.9605711 19.8376618,1.99114525 C20.0413135,2.19551787 20.6455888,2.93125932 20.5097124,3.62612624 C20.3739989,4.32099316 20.027791,5.56088099 19.9598528,5.710727 C19.8920775,5.86065475 19.0298978,7.6795711 18.7990382,8.79675361 C18.5683416,9.91401787 18.4121,10.3159779 18.4121,10.3704228 C18.4121,10.4249494 18.0910635,12.0190559 18.0910635,12.0190559 C18.0910635,12.0190559 18.2810298,12.5640768 18.3624904,12.6049513 C18.4439511,12.6458259 19.4622096,13.2861662 19.598086,13.4496643 C19.7337994,13.6131624 20.2497713,13.8720616 20.4262152,14.1445312 C20.602659,14.4170008 20.8742489,14.9483696 20.9964399,15.0982973 C21.1186309,15.2481433 21.6209174,15.5614875 21.6888556,15.7386376 C21.7567938,15.9157878 21.851777,16.6106548 21.8245691,16.8150274 C21.7975242,17.0194 21.8382545,17.3736186 21.8925073,17.6188658 C21.9467601,17.8641129 22.0011758,18.9677251 22.0011758,19.103919 L22.0011758,19.7034665 C22.0011758,19.7034665 23.3860073,20.8070787 23.589659,20.8751757 C23.7933107,20.9432726 24.9880129,21.7607631 25.3003331,22.0333144 C25.6124904,22.305784 26.5222433,23.0687479 26.7394174,23.2867726 C26.9565916,23.5047973 27.4318331,23.8862384 27.3503725,24.3631624 M27.9504933,22.1879019 C27.9290691,22.1673011 27.9089483,22.1482536 27.8915157,22.1306776 C27.7064371,21.9450255 27.3234904,21.6159856 26.7603528,21.1350559 C26.6037039,21.0013144 26.4558528,20.8750122 26.3693416,20.7995578 C26.0852067,20.5515312 25.5395831,20.1746681 25.318173,20.0240863 C24.7476225,19.6361053 24.4655242,19.4767764 24.2954343,19.3984608 C24.1642011,19.3099266 23.9070298,19.1178163 23.6233837,18.8996281 C23.6079876,18.5036357 23.5656281,17.6377498 23.482864,17.2642384 C23.4610326,17.1651586 23.4471028,17.038938 23.4453107,16.9810597 C23.497364,16.4670217 23.3614876,15.5482441 23.209482,15.1516795 C23.0069708,14.6233354 22.6016225,14.3046776 22.2758612,14.0485578 C22.2651084,14.0401376 22.2530522,14.030573 22.2405888,14.0207631 C22.1987994,13.9489875 22.1471534,13.8578373 22.1080522,13.7885958 C22.0037011,13.6042517 21.8959287,13.4136129 21.7923107,13.2535483 C21.5133079,12.8228125 21.1194455,12.5478087 20.8318893,12.3471148 C20.7993051,12.3243886 20.757923,12.2954494 20.7300635,12.2753392 C20.5046618,12.056497 20.1554399,11.8079798 19.8372545,11.5996833 C19.9329708,11.1195711 19.9838837,10.8556852 20.0107657,10.6936586 C20.0115803,10.6910426 20.0123949,10.6884266 20.0132096,10.6856471 C20.0793556,10.45863 20.21735,9.98612053 20.394364,9.12865475 C20.5053135,8.59205399 20.8862236,7.59120038 21.4136,6.45145513 C21.4276112,6.42120798 21.4376309,6.39946274 21.4431702,6.38695513 C21.6097573,6.01932966 21.985291,4.57204449 22.108541,3.94069658 C22.4168697,2.36285817 21.2306393,1.07678213 20.9897601,0.83505019 C20.6537348,0.497835361 20.2150691,0.312101521 19.7546534,0.312101521 C19.1696028,0.312101521 18.4248079,0.636972243 18.0886197,1.54880114 C18.0148978,1.74859582 17.9704202,1.94708251 17.937836,2.09284106 C17.909732,2.14466996 17.870468,2.21448365 17.8390242,2.27048175 C17.6361871,2.63107681 17.3612573,3.11993612 17.1908416,3.68335057 C17.096836,3.82559392 16.8080579,4.10386768 16.6488022,4.25731065 C16.3779455,4.51825361 16.122159,4.76464525 15.9293416,5.05992281 C15.8847011,5.12834677 15.8103275,5.24017947 15.7170551,5.38029734 C14.6899174,6.92543612 14.2892938,7.57059962 14.1295494,7.93699886 C14.0199034,8.18845894 13.8380831,8.71296084 13.5871843,9.47224601 C12.915541,9.40627452 12.0251758,9.39016996 11.6198275,9.38632776 C11.2381843,8.67846274 10.6924792,7.59103688 10.5761534,7.26436768 C10.5087854,7.06628973 10.4603163,6.91178403 10.4175494,6.77550837 C10.3376365,6.52118707 10.2686393,6.30152738 10.1531281,6.06960532 C10.1161449,5.99521369 10.019777,5.81405779 9.74655787,5.30108251 C9.27758876,4.420073 8.49263371,2.9455654 8.08606348,2.13886578 C7.5252882,1.02609772 6.96785281,0.453854373 6.17190056,0.178360076 C5.91603258,0.0599057034 5.65136685,-1.63498099e-05 5.38352416,-1.63498099e-05 C4.48077697,-1.63498099e-05 3.75593989,0.662069202 3.62095955,1.60994943 C3.53672921,2.20164905 3.68164775,2.57360722 3.82412247,2.87583346 C3.82444831,2.87648745 3.82477416,2.87722319 3.8251,2.87795894 C3.89287528,3.30795894 3.96700449,4.87999316 4.02728539,6.15593232 C4.0693191,7.04658821 3.99160562,8.37100456 3.38252416,9.62274601 C3.35727135,9.6747384 3.33332191,9.72386958 3.30896517,9.78264715 C3.22897079,9.97541141 3.18620393,10.1442232 2.92829944,11.2878924 C2.82948764,11.726149 2.70648202,12.2715787 2.66078258,12.4347498 C2.47896236,13.0836738 2.38911124,13.6712859 2.46853539,14.7548696 C2.53867303,15.7123144 3.00764213,16.5553924 3.33324045,17.0546338 C3.3316927,17.16663 3.33421798,17.2930141 3.34497079,17.4287175 C3.34554101,17.4361567 3.34635562,17.4456395 3.34749607,17.4575749 C3.30961685,17.518151 3.27458876,17.5748848 3.24615899,17.622381 C3.0512236,17.9484779 2.10326573,19.9513297 1.75632472,20.8653658 C1.29688652,22.0755787 0.758431461,25.4505065 0.753055056,25.4842688 C0.629397753,26.2702042 0.701490449,27.0885939 0.74026573,27.5282403 C0.743361236,27.5633106 0.747189888,27.6060654 0.750041011,27.640727 C0.733993258,27.7679285 0.693181461,28.0230673 0.664833146,28.200381 C0.591844382,28.6576852 0.546470787,28.9514095 0.532622472,29.1729494 C0.517389326,29.4177878 0.532948315,29.9291281 0.605041011,31.5516833 C0.615875281,31.7936605 0.62785,32.0652308 0.630864045,32.155727 C0.628094382,32.2273392 0.617585955,32.4136452 0.608299438,32.5795958 C0.582394944,33.0386985 0.543456742,33.7325027 0.52993427,34.304419 C0.520158989,34.7159437 0.274473596,35.8951738 0.0524932584,36.7519038 C-0.0493325843,37.1447897 -0.00192247191,37.5617916 0.185518539,37.9215692 C1.90824888,41.2263563 4.84286966,42.9732517 8.67233596,42.9732517 C14.1941478,42.9732517 19.8749708,39.3397517 20.1141393,39.1851643 C20.8419904,38.7142897 21.0757011,37.7543106 20.6459961,36.9996852 C20.4908135,36.7269703 20.3924904,36.5572593 20.3288697,36.4491053 C20.2660635,36.2447327 20.1443612,35.8160407 20.0347966,35.4299399 C19.9256393,35.0456376 19.801982,34.6100787 19.6686309,34.1512213 C19.3655972,33.1088392 19.3423809,31.7936605 19.3627461,31.5144057 C19.3752096,31.3458392 19.3688556,31.1518487 19.3337461,30.8574703 C19.7162039,30.9141224 20.0766674,30.9399551 20.2828444,30.9511548 C20.3531449,30.9652973 20.5086534,31.0015122 20.7046478,31.0780293 C21.3385747,31.3254019 22.0901309,31.3623525 22.4816309,31.3623525 C22.9861169,31.3623525 23.4873444,31.3055369 23.9311421,31.1980369 C24.4889034,31.0629057 24.9511112,30.7759665 25.3145073,30.4308221 C25.3508388,30.432457 25.3873331,30.4333563 25.4241534,30.4333563 C25.8088921,30.4333563 26.2027545,30.3429418 26.6634146,30.1491148 C27.5479961,29.7769114 27.8959146,28.8557631 28.1196056,28.0037745 C28.2509202,27.5042878 28.3288781,27.0429779 28.3457404,26.9393202 C28.3886702,26.6979152 28.4427601,26.4247916 28.4644287,26.3402631 C28.498968,26.224343 28.5272348,26.0928087 28.5502067,25.9639722 C28.8099848,25.4952232 28.899836,24.9688411 28.9562067,24.6393924 C29.1746028,23.3608373 28.2852966,22.5086034 27.9504933,22.1879019" id="Fill-1" fill="#934ECF" mask="url(#mask-2)"></path>
        </g>
    </g>
</svg>