<?xml version="1.0" encoding="UTF-8"?>
<svg width="68px" height="68px" viewBox="0 0 68 68" version="1.1" xmlns="http://www.w3.org/2000/svg" xmlns:xlink="http://www.w3.org/1999/xlink">
    <!-- Generator: Sketch 50 (54983) - http://www.bohemiancoding.com/sketch -->
    <title>Rescue</title>
    <desc>Created with Sketch.</desc>
    <defs>
        <polygon id="path-1" points="0.000489130434 44.7894737 44.711413 44.7894737 44.711413 0.288210526 0.000489130434 0.288210526 0.000489130434 44.7894737"></polygon>
    </defs>
    <g id="Rescue" stroke="none" stroke-width="1" fill="none" fill-rule="evenodd">
        <circle id="Oval" stroke="#FF7500" stroke-width="4" fill="#FFFFFF" cx="34" cy="34" r="31"></circle>
        <g id="Page-1" transform="translate(12.000000, 11.000000)">
            <path d="M35.1777717,8.06376053 C35.3470109,8.20591842 35.5133152,8.34905 35.6766848,8.49607632 C35.9114674,8.70541842 36.2029891,8.80960263 36.4954891,8.80960263 C36.8290761,8.80960263 37.162663,8.67328684 37.4042935,8.40747105 C37.85625,7.90797105 37.8161413,7.13778684 37.3142935,6.68794474 C37.1303804,6.52339211 36.9435326,6.36078684 36.75375,6.20207632 C36.2372283,5.77073421 35.4663587,5.83499737 35.0310326,6.34812895 C34.5957065,6.86320789 34.66125,7.63047105 35.1777717,8.06376053" id="Fill-1" fill="#FF7500"></path>
            <g id="Group-5" transform="translate(0.000000, 0.685571)">
                <mask id="mask-2" fill="white">
                    <use xlink:href="#path-1"></use>
                </mask>
                <g id="Clip-4"></g>
                <path d="M34.9733152,26.1110947 C35.2990761,24.9738316 35.4839674,23.7781474 35.4839674,22.5396211 C35.4839674,21.3001211 35.2990761,20.1044368 34.9733152,18.9671737 L41.1754891,16.0412526 C41.8945109,18.1054632 42.26625,20.2904105 42.26625,22.5396211 C42.26625,24.8122 41.8602717,26.9883842 41.1490761,29.0233842 L34.9733152,26.1110947 Z M30.6885326,40.5118842 L27.7879891,34.4205158 C30.6630978,33.1118842 32.9796196,30.8062 34.2934239,27.9455158 L40.4144022,30.8324895 C38.4295109,35.0962526 34.9733152,38.5362789 30.6885326,40.5118842 L30.6885326,40.5118842 Z M22.3557065,42.3560421 C20.0714674,42.3560421 17.8850543,41.9519632 15.8395109,41.2431211 L18.7654891,35.1001474 C19.9286413,35.4292526 21.1328804,35.6064632 22.3557065,35.6064632 C23.6010326,35.6064632 24.802337,35.4214632 25.9449457,35.0972263 L28.8719022,41.2431211 C26.8263587,41.9519632 24.6399457,42.3560421 22.3557065,42.3560421 L22.3557065,42.3560421 Z M4.29701087,30.8324895 L10.4042935,27.9523316 C10.6635326,28.5199895 10.964837,29.0701211 11.3072283,29.5998053 C11.6730978,30.1655158 12.4302717,30.3281211 12.9966848,29.9639632 C13.5650543,29.6007789 13.7294022,28.8481211 13.3635326,28.2814368 C12.2571196,26.5716474 11.6730978,24.5863053 11.6730978,22.5396211 C11.6730978,16.6770684 16.4655978,11.9060158 22.3557065,11.9060158 C28.2467935,11.9060158 33.0383152,16.6770684 33.0383152,22.5396211 C33.0383152,28.4031474 28.2467935,33.1722526 22.3557065,33.1722526 C21.2463587,33.1722526 20.1536413,33.0038053 19.109837,32.6727526 C18.79875,32.5714895 18.4778804,32.6075158 18.2049457,32.7409105 C17.8958152,32.7886211 17.6140761,32.9716737 17.4702717,33.2715684 L14.0228804,40.5118842 C9.73907609,38.5362789 6.28190217,35.0962526 4.29701087,30.8324895 L4.29701087,30.8324895 Z M2.4461413,22.5396211 C2.4461413,20.2660684 2.85211957,18.0898842 3.56331522,16.0539105 L9.73809783,18.9662 C9.41331522,20.1034632 9.22744565,21.3001211 9.22744565,22.5396211 C9.22744565,23.7586737 9.39961957,24.9602 9.72929348,26.1159632 L3.56233696,29.0233842 C2.85211957,26.9883842 2.4461413,24.8122 2.4461413,22.5396211 L2.4461413,22.5396211 Z M14.0228804,4.56541053 L16.9234239,10.6577526 C14.0483152,11.9654105 11.7317935,14.2710947 10.4179891,17.1317789 L4.29798913,14.2448053 C6.28190217,9.98201579 9.73907609,6.54101579 14.0228804,4.56541053 L14.0228804,4.56541053 Z M22.3557065,2.72222632 C24.5929891,2.72222632 26.7940761,3.10098947 28.87875,3.81956842 L25.9449457,9.98104211 C24.802337,9.65680526 23.6010326,9.47180526 22.3557065,9.47180526 C21.1103804,9.47180526 19.9090761,9.65680526 18.7664674,9.98104211 L15.8395109,3.83417368 C17.8850543,3.12630526 20.0714674,2.72222632 22.3557065,2.72222632 L22.3557065,2.72222632 Z M39.9839674,8.85156842 C39.5672283,8.32285789 38.7992935,8.23035789 38.2671196,8.64222632 C37.7349457,9.05506842 37.6400543,9.82135789 38.0558152,10.3500684 C39.0096196,11.5662 39.7971196,12.8709368 40.4329891,14.2370158 L34.2934239,17.1327526 C32.9796196,14.2710947 30.6630978,11.9654105 27.7879891,10.6577526 L30.6963587,4.54788421 C31.4554891,4.89743684 32.1960326,5.28691053 32.9091848,5.73188421 C33.4804891,6.08727895 34.2357065,5.91688421 34.5947283,5.34630526 C34.9527717,4.7767 34.7796196,4.02501579 34.207337,3.66864737 C30.6591848,1.45741053 26.56125,0.288015789 22.3557065,0.288015789 C10.0286413,0.288015789 0.000489130434,10.2702263 0.000489130434,22.5396211 C0.000489130434,34.8090158 10.0286413,44.7902526 22.3557065,44.7902526 C34.6827717,44.7902526 44.7119022,34.8090158 44.7119022,22.5396211 C44.7119022,17.5280684 43.07625,12.7940158 39.9839674,8.85156842 L39.9839674,8.85156842 Z" id="Fill-3" fill="#FF7500" mask="url(#mask-2)"></path>
            </g>
            <path d="M15.5786087,31.4445474 C15.0562174,31.0190474 14.2863261,31.0949947 13.8578478,31.6149421 C13.4293696,32.1339158 13.5056739,32.9011789 14.0280652,33.3276526 C14.2853478,33.5360211 14.5504565,33.7375737 14.822413,33.9284158 C15.0356739,34.0764158 15.2802391,34.1474947 15.5228478,34.1474947 C15.9082826,34.1474947 16.2878478,33.9673632 16.5255652,33.6285211 C16.9129565,33.0783895 16.7789348,32.3189158 16.2252391,31.9333368 C16.0031739,31.7794947 15.7879565,31.6159158 15.5786087,31.4445474" id="Fill-6" fill="#FF7500"></path>
            <path d="M16.722587,25.0005105 C16.0847609,25.0005105 15.5594348,24.7385895 15.057587,24.3267211 L14.3326957,25.1903789 C15.0018261,25.7853 15.8538913,26.0783789 16.6981304,26.0783789 C17.9013913,26.0783789 18.7456304,25.4600895 18.7456304,24.3578789 L18.7456304,24.3413263 C18.7456304,23.3744579 18.1087826,22.9703789 16.9769348,22.6773 C16.0133478,22.4309579 15.7746522,22.3121684 15.7746522,21.9480105 L15.7746522,21.9324316 C15.7746522,21.6617474 16.0211739,21.4485105 16.4917174,21.4485105 C16.9612826,21.4485105 17.4474783,21.6539579 17.9415,21.9957211 L18.5783478,21.0765632 C18.012913,20.6238 17.3193261,20.3696684 16.5073696,20.3696684 C15.3686739,20.3696684 14.5557391,21.0366421 14.5557391,22.0434316 L14.5557391,22.0590105 C14.5557391,23.1602474 15.2806304,23.4708526 16.4036739,23.7561421 C17.3349783,23.9937211 17.5267174,24.1524316 17.5267174,24.4610895 L17.5267174,24.4766684 C17.5267174,24.8018789 17.2244348,25.0005105 16.722587,25.0005105" id="Fill-8" fill="#FF7500"></path>
            <path d="M20.7398152,23.2081526 C20.7398152,22.2568632 21.4245978,21.4808368 22.4126413,21.4808368 C23.4006848,21.4808368 24.1011196,22.2734158 24.1011196,23.2247053 L24.1011196,23.2402842 C24.1011196,24.1915737 23.416337,24.9685737 22.4292717,24.9685737 C21.4412283,24.9685737 20.7398152,24.1759947 20.7398152,23.2247053 L20.7398152,23.2081526 Z M22.4126413,26.0941526 C24.1334022,26.0941526 25.3836196,24.8020737 25.3836196,23.2247053 L25.3836196,23.2081526 C25.3836196,21.6307842 24.1490543,20.3542842 22.4292717,20.3542842 C20.7075326,20.3542842 19.4573152,21.6463632 19.4573152,23.2247053 L19.4573152,23.2402842 C19.4573152,24.8176526 20.6918804,26.0941526 22.4126413,26.0941526 L22.4126413,26.0941526 Z" id="Fill-10" fill="#FF7500"></path>
            <path d="M28.3556739,25.0005105 C27.7188261,25.0005105 27.1925217,24.7385895 26.6906739,24.3267211 L25.9657826,25.1903789 C26.6358913,25.7853 27.4879565,26.0783789 28.3321957,26.0783789 C29.5344783,26.0783789 30.3787174,25.4600895 30.3787174,24.3578789 L30.3787174,24.3413263 C30.3787174,23.3744579 29.7418696,22.9703789 28.611,22.6773 C27.6464348,22.4309579 27.4077391,22.3121684 27.4077391,21.9480105 L27.4077391,21.9324316 C27.4077391,21.6617474 27.6552391,21.4485105 28.1248043,21.4485105 C28.5943696,21.4485105 29.0805652,21.6539579 29.574587,21.9957211 L30.2114348,21.0765632 C29.646,20.6238 28.9533913,20.3696684 28.1404565,20.3696684 C27.0017609,20.3696684 26.1888261,21.0366421 26.1888261,22.0434316 L26.1888261,22.0590105 C26.1888261,23.1602474 26.9137174,23.4708526 28.0367609,23.7561421 C28.9690435,23.9937211 29.1598043,24.1524316 29.1598043,24.4610895 L29.1598043,24.4766684 C29.1598043,24.8018789 28.8575217,25.0005105 28.3556739,25.0005105" id="Fill-12" fill="#FF7500"></path>
        </g>
    </g>
</svg>